<?xml version="1.0" encoding="utf-8"?>
<!-- Generator: Adobe Illustrator 25.4.1, SVG Export Plug-In . SVG Version: 6.00 Build 0)  -->
<svg version="1.1" id="Layer_1" xmlns="http://www.w3.org/2000/svg" xmlns:xlink="http://www.w3.org/1999/xlink" x="0px" y="0px"
	 viewBox="0 0 32 32" style="enable-background:new 0 0 32 32;" xml:space="preserve">
<style type="text/css">
	.st0{fill:#D1D1D1;}
	.st1{fill:none;stroke:#202630;stroke-linecap:round;}
	.st2{fill:#202630;}
	.st3{fill:none;stroke:#202630;stroke-linecap:round;stroke-linejoin:round;stroke-miterlimit:10;}
	.st4{fill:#1A9CD2;}
	.st5{fill:#202630;stroke:#202630;stroke-linecap:round;stroke-linejoin:round;stroke-miterlimit:10;}
	.st6{fill:none;stroke:#202630;stroke-width:2;stroke-linecap:round;stroke-linejoin:round;stroke-miterlimit:10;}
</style>
<path class="st2" d="M9,16c-0.8,0-1.6-0.3-2.1-0.9C6.3,14.6,6,13.8,6,13V9c0-0.8,0.3-1.6,0.9-2.1S8.2,6,9,6h14
	c0.8,0,1.6,0.3,2.1,0.9C25.7,7.4,26,8.2,26,9v4c0,0.8-0.3,1.6-0.9,2.1C24.6,15.7,23.8,16,23,16c0.8,0,1.6,0.3,2.1,0.9
	c0.6,0.6,0.9,1.3,0.9,2.1v4c0,0.8-0.3,1.6-0.9,2.1C24.6,25.7,23.8,26,23,26H9c-0.8,0-1.6-0.3-2.1-0.9C6.3,24.6,6,23.8,6,23v-4
	c0-0.8,0.3-1.6,0.9-2.1C7.4,16.3,8.2,16,9,16z M14,22c0.3,0,0.5-0.1,0.7-0.3c0.2-0.2,0.3-0.4,0.3-0.7s-0.1-0.5-0.3-0.7
	C14.5,20.1,14.3,20,14,20c-0.3,0-0.5,0.1-0.7,0.3S13,20.7,13,21s0.1,0.5,0.3,0.7C13.5,21.9,13.7,22,14,22z M11,22
	c0.3,0,0.5-0.1,0.7-0.3c0.2-0.2,0.3-0.4,0.3-0.7s-0.1-0.5-0.3-0.7C11.5,20.1,11.3,20,11,20s-0.5,0.1-0.7,0.3S10,20.7,10,21
	s0.1,0.5,0.3,0.7C10.5,21.9,10.7,22,11,22z M11,12c0.3,0,0.5-0.1,0.7-0.3c0.2-0.2,0.3-0.4,0.3-0.7s-0.1-0.5-0.3-0.7
	C11.5,10.1,11.3,10,11,10s-0.5,0.1-0.7,0.3S10,10.7,10,11s0.1,0.5,0.3,0.7C10.5,11.9,10.7,12,11,12z M14,12c0.3,0,0.5-0.1,0.7-0.3
	c0.2-0.2,0.3-0.4,0.3-0.7s-0.1-0.5-0.3-0.7C14.5,10.1,14.3,10,14,10c-0.3,0-0.5,0.1-0.7,0.3S13,10.7,13,11s0.1,0.5,0.3,0.7
	C13.5,11.9,13.7,12,14,12z"/>
</svg>
