<?xml version="1.0" encoding="utf-8"?>
<!-- Generator: Adobe Illustrator 25.4.1, SVG Export Plug-In . SVG Version: 6.00 Build 0)  -->
<svg version="1.1" id="Layer_1" xmlns="http://www.w3.org/2000/svg" xmlns:xlink="http://www.w3.org/1999/xlink" x="0px" y="0px"
	 viewBox="0 0 32 32" style="enable-background:new 0 0 32 32;" xml:space="preserve">
<style type="text/css">
	.st0{fill:#00759C;stroke:#00759C;stroke-width:0.73;stroke-linecap:round;stroke-linejoin:round;}
	.st1{fill:#009CD5;stroke:#009CD5;stroke-width:0.75;stroke-linecap:round;stroke-linejoin:round;stroke-miterlimit:10;}
	.st2{opacity:0.2;fill:#009CD5;}
	.st3{fill:none;stroke:#16212D;stroke-linecap:round;}
	.st4{fill:#16212D;}
	.st5{fill:#FFFFFF;}
	.st6{fill:#009CD5;}
	.st7{fill:none;stroke:#16212D;stroke-linecap:round;stroke-linejoin:round;stroke-miterlimit:10;}
	.st8{fill:#009CD5;stroke:#009CD5;stroke-linecap:round;stroke-linejoin:round;stroke-miterlimit:10;}
	.st9{fill:#16212D;stroke:#16212D;stroke-linecap:round;stroke-linejoin:round;stroke-miterlimit:10;}
	.st10{fill:none;stroke:#16212D;stroke-width:2;stroke-linecap:round;stroke-linejoin:round;stroke-miterlimit:10;}
	.st11{fill:none;stroke:#16212D;stroke-width:1.5;stroke-linecap:round;stroke-linejoin:round;stroke-miterlimit:10;}
	.st12{fill:none;stroke:#009CD5;stroke-width:0.75;stroke-linecap:round;}
	.st13{fill:#E9E9E9;}
	.st14{fill:none;stroke:#16212D;stroke-width:0.75;stroke-linecap:round;}
	.st15{fill:none;stroke:#009CD5;stroke-width:0.75;stroke-linecap:round;stroke-linejoin:round;}
	.st16{fill:#00759C;stroke:#00759C;stroke-width:0.75;stroke-linecap:round;stroke-linejoin:round;}
	.st17{fill:none;stroke:#16212D;stroke-width:0.75;stroke-linecap:round;stroke-linejoin:round;}
	.st18{fill:#949495;stroke:#949495;stroke-width:0.73;stroke-linecap:round;stroke-linejoin:round;}
	.st19{fill:#D8D8D8;stroke:#D8D8D8;stroke-width:0.75;}
	.st20{opacity:0.4;fill:#009CD5;stroke:#009CD5;stroke-width:0.75;}
	.st21{fill:#009CD5;stroke:#009CD5;stroke-width:0.75;stroke-linecap:round;stroke-linejoin:round;}
	.st22{fill:none;stroke:#009CD5;stroke-linecap:round;}
	.st23{fill:#949495;stroke:#949495;stroke-width:0.75;stroke-linecap:round;stroke-linejoin:round;}
	.st24{fill:none;stroke:#949495;stroke-linecap:round;}
</style>
<path class="st6" d="M16,7.4c2.3,0,4.4,0.9,6,2.5c1.6,1.6,2.5,3.8,2.5,6s-0.9,4.4-2.5,6c-1.6,1.6-3.8,2.5-6,2.5s-4.4-0.9-6-2.5
	c-1.6-1.6-2.5-3.8-2.5-6s0.9-4.4,2.5-6C11.6,8.3,13.7,7.4,16,7.4z M16.2,12c-0.1,0.1-0.1,0.2-0.2,0.3c0,0.1-0.1,0.2-0.1,0.3
	s0,0.2,0.1,0.3c0,0.1,0.1,0.2,0.2,0.3l2,2h-6.4c-0.2,0-0.4,0.1-0.6,0.3c-0.2,0.2-0.3,0.4-0.3,0.6c0,0.2,0.1,0.4,0.3,0.6
	c0.2,0.2,0.4,0.3,0.6,0.3h6.4l-2,2C16.1,18.9,16,19,16,19.1c0,0.1-0.1,0.2-0.1,0.3c0,0.1,0,0.2,0.1,0.3c0,0.1,0.1,0.2,0.2,0.3
	s0.2,0.1,0.3,0.2c0.1,0,0.2,0.1,0.3,0.1c0.1,0,0.2,0,0.3-0.1c0.1,0,0.2-0.1,0.3-0.2l3.4-3.4c0.1-0.1,0.1-0.2,0.2-0.3
	c0-0.1,0.1-0.2,0.1-0.3c0-0.1,0-0.2-0.1-0.3c0-0.1-0.1-0.2-0.2-0.3L17.4,12c-0.2-0.2-0.4-0.3-0.6-0.3S16.3,11.8,16.2,12z"/>
</svg>
