<?xml version="1.0" encoding="utf-8"?>
<!-- Generator: Adobe Illustrator 25.4.1, SVG Export Plug-In . SVG Version: 6.00 Build 0)  -->
<svg version="1.1" id="Layer_1" xmlns="http://www.w3.org/2000/svg" xmlns:xlink="http://www.w3.org/1999/xlink" x="0px" y="0px"
	 viewBox="0 0 32 32" style="enable-background:new 0 0 32 32;" xml:space="preserve">
<style type="text/css">
	.st0{opacity:0.2;}
	.st1{fill:#009CD5;}
	.st2{fill:#00759C;stroke:#00759C;stroke-width:0.73;stroke-linecap:round;stroke-linejoin:round;}
	.st3{fill:#009CD5;stroke:#009CD5;stroke-width:0.75;stroke-linecap:round;stroke-linejoin:round;stroke-miterlimit:10;}
	.st4{opacity:0.2;fill:#009CD5;}
	.st5{fill:none;stroke:#16212D;stroke-linecap:round;}
	.st6{fill:#16212D;}
	.st7{fill:#FFFFFF;}
	.st8{fill:none;stroke:#16212D;stroke-linecap:round;stroke-linejoin:round;stroke-miterlimit:10;}
	.st9{fill:#009CD5;stroke:#009CD5;stroke-linecap:round;stroke-linejoin:round;stroke-miterlimit:10;}
	.st10{fill:none;stroke:#009CD5;stroke-linecap:round;stroke-linejoin:round;stroke-miterlimit:10;}
	.st11{fill:#16212D;stroke:#16212D;stroke-linecap:round;stroke-linejoin:round;stroke-miterlimit:10;}
	.st12{fill:none;stroke:#16212D;stroke-width:2;stroke-linecap:round;stroke-linejoin:round;stroke-miterlimit:10;}
	.st13{fill:none;stroke:#16212D;stroke-width:1.5;stroke-linecap:round;stroke-linejoin:round;stroke-miterlimit:10;}
	.st14{fill:none;stroke:#009CD5;stroke-width:0.75;stroke-linecap:round;}
	.st15{fill:#E9E9E9;}
	.st16{fill:none;stroke:#16212D;stroke-width:0.75;stroke-linecap:round;}
	.st17{fill:none;stroke:#009CD5;stroke-width:0.75;stroke-linecap:round;stroke-linejoin:round;}
	.st18{fill:#00759C;stroke:#00759C;stroke-width:0.75;stroke-linecap:round;stroke-linejoin:round;}
	.st19{fill:none;stroke:#16212D;stroke-width:0.75;stroke-linecap:round;stroke-linejoin:round;}
	.st20{fill:none;stroke:#038CB2;stroke-width:0.73;stroke-linecap:round;stroke-linejoin:round;}
	.st21{fill:none;stroke:#038CB2;stroke-width:0.75;}
	.st22{fill:#949495;stroke:#949495;stroke-width:0.73;stroke-linecap:round;stroke-linejoin:round;}
	.st23{fill:#D8D8D8;stroke:#D8D8D8;stroke-width:0.75;}
	.st24{opacity:0.4;fill:#009CD5;stroke:#009CD5;stroke-width:0.75;}
	.st25{fill:#009CD5;stroke:#009CD5;stroke-width:0.75;stroke-linecap:round;stroke-linejoin:round;}
	.st26{fill:none;stroke:#009CD5;stroke-linecap:round;}
	.st27{fill:none;stroke:#038CB2;stroke-width:0.75;stroke-linecap:round;stroke-linejoin:round;}
	.st28{fill:#949495;stroke:#949495;stroke-width:0.75;stroke-linecap:round;stroke-linejoin:round;}
	.st29{fill:none;stroke:#949495;stroke-linecap:round;}
	.st30{fill:none;stroke:#038CB2;stroke-linecap:round;}
	.st31{fill:#949495;stroke:#16212D;stroke-width:0.73;stroke-linecap:round;stroke-linejoin:round;}
	.st32{fill:#D8D8D8;stroke:#16212D;stroke-width:0.75;}
	.st33{fill:#949495;stroke:#16212D;stroke-width:0.75;stroke-linecap:round;stroke-linejoin:round;}
	.st34{fill-rule:evenodd;clip-rule:evenodd;fill:#16212D;}
</style>
<path class="st34" d="M18,7.7c0.1-0.1,0.3-0.1,0.5,0c0.2,0,0.3,0.1,0.4,0.3l5.3,6.8c0.1,0.1,0.2,0.3,0.2,0.5s-0.1,0.3-0.2,0.5
	l-5.3,6.8c-0.1,0.1-0.2,0.2-0.4,0.3c-0.2,0-0.3,0-0.5,0c-0.1-0.1-0.3-0.1-0.4-0.3c-0.1-0.1-0.1-0.3-0.1-0.4v-3c-4.1,0.1-6,0.9-7,1.7
	c-0.9,0.8-1.1,1.7-1.3,2.7l0,0.3c0,0.2-0.1,0.3-0.3,0.5c-0.1,0.1-0.3,0.2-0.5,0.2c-0.2,0-0.4-0.1-0.5-0.2c-0.1-0.1-0.2-0.3-0.2-0.5
	c-0.1-2.1,0.1-5.1,1.5-7.6c1.4-2.4,4-4.3,8.3-4.5v-3c0-0.2,0-0.3,0.1-0.4C17.8,7.9,17.9,7.8,18,7.7z"/>
</svg>
