<?xml version="1.0" encoding="utf-8"?>
<!-- Generator: Adobe Illustrator 25.4.1, SVG Export Plug-In . SVG Version: 6.00 Build 0)  -->
<svg version="1.1" id="Layer_1" xmlns="http://www.w3.org/2000/svg" xmlns:xlink="http://www.w3.org/1999/xlink" x="0px" y="0px"
	 viewBox="0 0 32 32" style="enable-background:new 0 0 32 32;" xml:space="preserve">
<style type="text/css">
	.st0{opacity:0.2;}
	.st1{fill:#009CD5;}
	.st2{fill:#00759C;stroke:#00759C;stroke-width:0.73;stroke-linecap:round;stroke-linejoin:round;}
	.st3{fill:#009CD5;stroke:#009CD5;stroke-width:0.75;stroke-linecap:round;stroke-linejoin:round;stroke-miterlimit:10;}
	.st4{opacity:0.2;fill:#009CD5;}
	.st5{fill:none;stroke:#16212D;stroke-linecap:round;}
	.st6{fill:#16212D;}
	.st7{fill:#FFFFFF;}
	.st8{fill:none;stroke:#16212D;stroke-linecap:round;stroke-linejoin:round;stroke-miterlimit:10;}
	.st9{fill:#009CD5;stroke:#009CD5;stroke-linecap:round;stroke-linejoin:round;stroke-miterlimit:10;}
	.st10{fill:none;stroke:#009CD5;stroke-linecap:round;stroke-linejoin:round;stroke-miterlimit:10;}
	.st11{fill:#16212D;stroke:#16212D;stroke-linecap:round;stroke-linejoin:round;stroke-miterlimit:10;}
	.st12{fill:none;stroke:#16212D;stroke-width:2;stroke-linecap:round;stroke-linejoin:round;stroke-miterlimit:10;}
	.st13{fill:none;stroke:#16212D;stroke-width:1.5;stroke-linecap:round;stroke-linejoin:round;stroke-miterlimit:10;}
	.st14{fill:none;stroke:#009CD5;stroke-width:0.75;stroke-linecap:round;}
	.st15{fill:#E9E9E9;}
	.st16{fill:none;stroke:#16212D;stroke-width:0.75;stroke-linecap:round;}
	.st17{fill:none;stroke:#009CD5;stroke-width:0.75;stroke-linecap:round;stroke-linejoin:round;}
	.st18{fill:#00759C;stroke:#00759C;stroke-width:0.75;stroke-linecap:round;stroke-linejoin:round;}
	.st19{fill:none;stroke:#16212D;stroke-width:0.75;stroke-linecap:round;stroke-linejoin:round;}
	.st20{fill:none;stroke:#038CB2;stroke-width:0.73;stroke-linecap:round;stroke-linejoin:round;}
	.st21{fill:none;stroke:#038CB2;stroke-width:0.75;}
	.st22{fill:#949495;stroke:#949495;stroke-width:0.73;stroke-linecap:round;stroke-linejoin:round;}
	.st23{fill:#D8D8D8;stroke:#D8D8D8;stroke-width:0.75;}
	.st24{opacity:0.4;fill:#009CD5;stroke:#009CD5;stroke-width:0.75;}
	.st25{fill:#009CD5;stroke:#009CD5;stroke-width:0.75;stroke-linecap:round;stroke-linejoin:round;}
	.st26{fill:none;stroke:#009CD5;stroke-linecap:round;}
	.st27{fill:none;stroke:#038CB2;stroke-width:0.75;stroke-linecap:round;stroke-linejoin:round;}
	.st28{fill:#949495;stroke:#949495;stroke-width:0.75;stroke-linecap:round;stroke-linejoin:round;}
	.st29{fill:none;stroke:#949495;stroke-linecap:round;}
	.st30{fill:none;stroke:#038CB2;stroke-linecap:round;}
	.st31{fill:#949495;stroke:#16212D;stroke-width:0.73;stroke-linecap:round;stroke-linejoin:round;}
	.st32{fill:#D8D8D8;stroke:#16212D;stroke-width:0.75;}
	.st33{fill:#949495;stroke:#16212D;stroke-width:0.75;stroke-linecap:round;stroke-linejoin:round;}
</style>
<g class="st0">
	<path class="st1" d="M21.5,26.2h-11c-1,0-1.9-0.8-1.9-1.9V7.7c0-1,0.8-1.9,1.9-1.9l7.3,0l5.6,5.6l0,12.9
		C23.4,25.3,22.5,26.2,21.5,26.2z"/>
	<path class="st1" d="M17.8,5.8v3.8c0,1,0.8,1.9,1.9,1.9h3.8L17.8,5.8z"/>
</g>
<g>
	<path class="st21" d="M21.5,26.2h-11c-1,0-1.9-0.8-1.9-1.9V7.7c0-1,0.8-1.9,1.9-1.9l7.3,0l5.6,5.6l0,12.9
		C23.4,25.3,22.5,26.2,21.5,26.2z"/>
	<path class="st27" d="M17.8,5.8v3.8c0,1,0.8,1.9,1.9,1.9h3.8L17.8,5.8z"/>
</g>
<g>
	<line class="st30" x1="13.8" y1="16.8" x2="16" y2="14.6"/>
	<line class="st30" x1="18.2" y1="16.8" x2="16" y2="14.6"/>
	<line class="st30" x1="16" y1="21.5" x2="16" y2="14.6"/>
</g>
</svg>
