<?xml version="1.0" encoding="UTF-8"?>
<svg width="752pt" height="752pt" version="1.1" viewBox="0 0 752 752" xmlns="http://www.w3.org/2000/svg">
    <style type="text/css">
        .st1{fill:#aaa;}
    </style>
    <path class="st1" d="m526.12 166.68h-300.72c-13.734 0-25.102 11.367-25.102 25.102v275.62c0 13.734 9.9453 30.781 21.785 37.414l132.13 75.301c11.84 6.6289 31.73 6.6289 43.57 0l132.13-75.301c11.84-6.6289 21.785-23.68 21.785-37.414v-275.63c0-13.734-11.84-25.098-25.574-25.098zm-155.33 232.53-58.727-58.723 135.45-120.77 44.043 44.043zm-66.301 21.785-14.68-14.68 7.5781-7.1055c12.312-12.312 12.312-31.73 0-44.043l7.1055-7.5781 58.723 58.723-7.1094 7.5781c-12.312-12.312-31.73-12.312-44.043 0zm-14.684 14.68h-29.363l22.258-22.258 14.68 14.68zm-29.359 10.418h207.9v10.422h-207.9z" />
</svg>
