<?xml version="1.0" encoding="utf-8"?>
<!-- Generator: Adobe Illustrator 25.4.1, SVG Export Plug-In . SVG Version: 6.00 Build 0)  -->
<svg version="1.1" id="Layer_1" xmlns="http://www.w3.org/2000/svg" xmlns:xlink="http://www.w3.org/1999/xlink" x="0px" y="0px"
	 viewBox="0 0 32 32" style="enable-background:new 0 0 32 32;" xml:space="preserve">
<style type="text/css">
	.st0{opacity:0.2;fill:#1C9BD2;}
	.st1{fill:none;stroke:#202630;stroke-linecap:round;}
	.st2{fill:#202630;}
	.st3{fill:#1C9BD2;}
	.st4{fill:none;stroke:#202630;stroke-linecap:round;stroke-linejoin:round;stroke-miterlimit:10;}
	.st5{fill:#1C9BD2;stroke:#1C9BD2;stroke-linecap:round;stroke-linejoin:round;stroke-miterlimit:10;}
	.st6{fill:#1A9CD2;}
	.st7{fill:#202630;stroke:#202630;stroke-linecap:round;stroke-linejoin:round;stroke-miterlimit:10;}
	.st8{fill:none;stroke:#202630;stroke-width:2;stroke-linecap:round;stroke-linejoin:round;stroke-miterlimit:10;}
	.st9{fill:none;stroke:#1C9BD2;stroke-width:0.75;stroke-linecap:round;}
	.st10{fill:#E8E8E8;}
	.st11{fill:none;stroke:#202630;stroke-width:0.75;stroke-linecap:round;}
	.st12{fill:none;stroke:#1C9BD2;stroke-width:0.75;stroke-linecap:round;stroke-linejoin:round;}
	.st13{fill:none;stroke:#202630;stroke-width:0.75;stroke-linecap:round;stroke-linejoin:round;}
	.st14{fill:#8D8E8E;}
	.st15{fill:#D6D7D6;}
	.st16{fill:none;stroke:#8D8E8E;stroke-width:1.2;stroke-linecap:round;}
</style>
<path class="st0" d="M21.6,26.2h-11c-1,0-1.9-0.8-1.9-1.9V7.7c0-1,0.8-1.9,1.9-1.9l7.3,0l5.6,5.6l0,12.9
	C23.4,25.4,22.6,26.2,21.6,26.2z"/>
<path class="st12" d="M21.6,26.2h-11c-1,0-1.9-0.8-1.9-1.9V7.7c0-1,0.8-1.9,1.9-1.9l7.3,0l5.6,5.6l0,12.9
	C23.4,25.4,22.6,26.2,21.6,26.2z"/>
<path class="st9" d="M17.8,5.8v3.8c0,1,0.8,1.9,1.9,1.9h3.8"/>
<line class="st9" x1="12.7" y1="15.3" x2="19.5" y2="15.3"/>
<line class="st9" x1="12.7" y1="18.1" x2="19.5" y2="18.1"/>
<line class="st9" x1="12.7" y1="20.8" x2="16" y2="20.8"/>
</svg>
