<?xml version="1.0" encoding="utf-8"?>
<!-- Generator: Adobe Illustrator 25.4.1, SVG Export Plug-In . SVG Version: 6.00 Build 0)  -->
<svg version="1.1" id="Layer_1" xmlns="http://www.w3.org/2000/svg" xmlns:xlink="http://www.w3.org/1999/xlink" x="0px" y="0px"
	 viewBox="0 0 32 32" style="enable-background:new 0 0 32 32;" xml:space="preserve">
<style type="text/css">
	.st0{fill:#0E749A;stroke:#0E749A;stroke-width:0.75;stroke-linecap:round;stroke-linejoin:round;}
	.st1{fill:#1C9BD2;stroke:#1C9BD2;stroke-width:0.75;stroke-linecap:round;stroke-linejoin:round;stroke-miterlimit:10;}
	.st2{opacity:0.2;fill:#1C9BD2;}
	.st3{fill:none;stroke:#202630;stroke-linecap:round;}
	.st4{fill:#202630;}
	.st5{fill:#1C9BD2;}
	.st6{fill:#FFFFFF;}
	.st7{fill:none;stroke:#202630;stroke-linecap:round;stroke-linejoin:round;stroke-miterlimit:10;}
	.st8{fill:#1C9BD2;stroke:#1C9BD2;stroke-linecap:round;stroke-linejoin:round;stroke-miterlimit:10;}
	.st9{fill:#1A9CD2;}
	.st10{fill:#202630;stroke:#202630;stroke-linecap:round;stroke-linejoin:round;stroke-miterlimit:10;}
	.st11{fill:none;stroke:#202630;stroke-width:2;stroke-linecap:round;stroke-linejoin:round;stroke-miterlimit:10;}
	.st12{fill:none;stroke:#1C9BD2;stroke-width:0.75;stroke-linecap:round;}
	.st13{fill:#E8E8E8;}
	.st14{fill:none;stroke:#202630;stroke-width:0.75;stroke-linecap:round;}
	.st15{fill:none;stroke:#1C9BD2;stroke-width:0.75;stroke-linecap:round;stroke-linejoin:round;}
	.st16{fill:none;stroke:#202630;stroke-width:0.75;stroke-linecap:round;stroke-linejoin:round;}
	.st17{fill:#8D8E8E;}
	.st18{fill:#D6D7D6;}
	.st19{fill:none;stroke:#8D8E8E;stroke-width:1.2;stroke-linecap:round;}
</style>
<path class="st1" d="M21.6,26.2h-11c-1,0-1.9-0.8-1.9-1.9V7.7c0-1,0.8-1.9,1.9-1.9l7.3,0l5.6,5.6l0,12.9
	C23.4,25.4,22.6,26.2,21.6,26.2z"/>
<path class="st0" d="M17.8,5.8v3.8c0,1,0.8,1.9,1.9,1.9h3.8L17.8,5.8z"/>
<g>
	<path class="st6" d="M13.2,22.3c-0.3,0.1-0.5-0.1-0.5-0.4l0.5-3.1L11,16.7c-0.2-0.2-0.1-0.6,0.2-0.6l3.2-0.5l1.4-2.8
		c0.1-0.3,0.5-0.3,0.6,0l1.4,2.8l3.2,0.5c0.3,0,0.4,0.4,0.2,0.6l-2.3,2.2l0.5,3.1c0.1,0.3-0.2,0.5-0.5,0.4l-2.8-1.5L13.2,22.3
		L13.2,22.3z"/>
</g>
</svg>
