<?xml version="1.0" encoding="utf-8"?>
<!-- Generator: Adobe Illustrator 25.4.1, SVG Export Plug-In . SVG Version: 6.00 Build 0)  -->
<svg version="1.1" id="Layer_1" xmlns="http://www.w3.org/2000/svg" xmlns:xlink="http://www.w3.org/1999/xlink" x="0px" y="0px"
	 viewBox="0 0 32 32" style="enable-background:new 0 0 32 32;" xml:space="preserve">
<style type="text/css">
	.st0{opacity:0.2;fill:#1C9BD2;}
	.st1{fill:none;stroke:#202630;stroke-linecap:round;}
	.st2{fill:#202630;}
	.st3{fill:#1C9BD2;}
	.st4{fill:none;stroke:#202630;stroke-linecap:round;stroke-linejoin:round;stroke-miterlimit:10;}
	.st5{fill:#1A9CD2;}
	.st6{fill:#202630;stroke:#202630;stroke-linecap:round;stroke-linejoin:round;stroke-miterlimit:10;}
	.st7{fill:none;stroke:#202630;stroke-width:2;stroke-linecap:round;stroke-linejoin:round;stroke-miterlimit:10;}
	.st8{fill:none;stroke:#1C9BD2;stroke-linecap:round;}
	.st9{fill:#E8E8E8;}
	.st10{fill:none;stroke:#1C9BD2;stroke-linecap:round;stroke-linejoin:round;}
	.st11{fill:none;stroke:#202630;stroke-linecap:round;stroke-linejoin:round;}
	.st12{fill:#8D8E8E;}
	.st13{fill:#D6D7D6;}
	.st14{fill:none;stroke:#8D8E8E;stroke-width:1.2;stroke-linecap:round;}
</style>
<path class="st9" d="M23.5,10.4h-5.3c-0.7,0-1.3-0.3-1.8-0.7L15,8.4c-0.5-0.5-1.2-0.7-1.9-0.7H8.2c-1.2,0-2.2,1-2.1,2.2L6.3,12l0,0
	c-0.1,0.3-0.2,0.6-0.1,0.9l0.7,9.9c0.1,1.2,1.1,2.2,2.3,2.2h13.7c1.2,0,2.2-0.9,2.3-2.2l0.7-9.9C25.9,11.6,24.9,10.4,23.5,10.4z"/>
<path class="st1" d="M22.8,24.9H9.2c-1.2,0-2.2-0.9-2.3-2.2l-0.7-9.9c-0.1-1.3,1-2.5,2.3-2.5h15c1.3,0,2.4,1.1,2.3,2.5l-0.7,9.9
	C25.1,24,24.1,24.9,22.8,24.9z"/>
<path class="st1" d="M6.3,12L6.2,9.9C6.1,8.7,7,7.6,8.2,7.6h4.9c0.7,0,1.4,0.3,1.9,0.7l1.4,1.3c0.5,0.5,1.1,0.7,1.8,0.7"/>
</svg>
