<?xml version="1.0" encoding="utf-8"?>
<!-- Generator: Adobe Illustrator 25.4.1, SVG Export Plug-In . SVG Version: 6.00 Build 0)  -->
<svg version="1.1" id="Layer_1" xmlns="http://www.w3.org/2000/svg" xmlns:xlink="http://www.w3.org/1999/xlink" x="0px" y="0px"
	 viewBox="0 0 32 32" style="enable-background:new 0 0 32 32;" xml:space="preserve">
<style type="text/css">
	.st0{fill:#0E749A;stroke:#0E749A;stroke-width:0.73;stroke-linecap:round;stroke-linejoin:round;}
	.st1{fill:#1C9BD2;stroke:#1C9BD2;stroke-width:0.75;stroke-linecap:round;stroke-linejoin:round;stroke-miterlimit:10;}
	.st2{opacity:0.2;fill:#1C9BD2;}
	.st3{fill:none;stroke:#202630;stroke-linecap:round;}
	.st4{fill:#202630;}
	.st5{fill:#1C9BD2;}
	.st6{fill:#FFFFFF;}
	.st7{fill:none;stroke:#202630;stroke-linecap:round;stroke-linejoin:round;stroke-miterlimit:10;}
	.st8{fill:#1C9BD2;stroke:#1C9BD2;stroke-linecap:round;stroke-linejoin:round;stroke-miterlimit:10;}
	.st9{fill:#1A9CD2;}
	.st10{fill:#202630;stroke:#202630;stroke-linecap:round;stroke-linejoin:round;stroke-miterlimit:10;}
	.st11{fill:none;stroke:#202630;stroke-width:2;stroke-linecap:round;stroke-linejoin:round;stroke-miterlimit:10;}
	.st12{fill:none;stroke:#1C9BD2;stroke-width:0.75;stroke-linecap:round;}
	.st13{fill:#E8E8E8;}
	.st14{fill:none;stroke:#202630;stroke-width:0.75;stroke-linecap:round;}
	.st15{fill:none;stroke:#1C9BD2;stroke-width:0.75;stroke-linecap:round;stroke-linejoin:round;}
	.st16{fill:#0E749A;stroke:#0E749A;stroke-width:0.75;stroke-linecap:round;stroke-linejoin:round;}
	.st17{fill:none;stroke:#202630;stroke-width:0.75;stroke-linecap:round;stroke-linejoin:round;}
	.st18{fill:#939393;stroke:#939393;stroke-width:0.73;stroke-linecap:round;stroke-linejoin:round;}
	.st19{fill:#D6D7D6;stroke:#D6D7D6;stroke-width:0.75;}
	.st20{opacity:0.4;fill:#1C9BD2;stroke:#1C9BD2;stroke-width:0.75;}
	.st21{fill:#1C9BD2;stroke:#1C9BD2;stroke-width:0.75;stroke-linecap:round;stroke-linejoin:round;}
	.st22{fill:none;stroke:#1C9BD2;stroke-linecap:round;}
	.st23{fill:#939393;stroke:#939393;stroke-width:0.75;stroke-linecap:round;stroke-linejoin:round;}
	.st24{fill:none;stroke:#939393;stroke-linecap:round;}
</style>
<g>
	<path class="st18" d="M23.5,10.2h-5.3c-0.7,0-1.3-0.3-1.8-0.7L15,8.1c-0.5-0.5-1.2-0.7-1.9-0.7H8.2c-1.2,0-2.2,1-2.1,2.2l0.1,2.1
		l0,0c-0.1,0.3-0.2,0.6-0.1,0.9l0.7,9.9c0.1,1.2,1.1,2.2,2.3,2.2h13.7c1.2,0,2.2-0.9,2.3-2.2l0.7-9.9C25.9,11.3,24.9,10.2,23.5,10.2
		z"/>
	<path class="st19" d="M22.8,24.6H9.2c-1.2,0-2.2-0.9-2.3-2.2l-0.7-9.9c-0.1-1.3,1-2.5,2.3-2.5h15c1.3,0,2.4,1.1,2.3,2.5l-0.7,9.9
		C25.1,23.7,24.1,24.6,22.8,24.6z"/>
</g>
</svg>
