<?xml version="1.0" encoding="utf-8"?>
<!-- Generator: Adobe Illustrator 25.4.1, SVG Export Plug-In . SVG Version: 6.00 Build 0)  -->
<svg version="1.1" id="Layer_1" xmlns="http://www.w3.org/2000/svg" xmlns:xlink="http://www.w3.org/1999/xlink" x="0px" y="0px"
	 viewBox="0 0 32 32" style="enable-background:new 0 0 32 32;" xml:space="preserve">
<style type="text/css">
	.st0{fill:#D1D1D1;}
	.st1{fill:none;stroke:#202630;stroke-linecap:round;}
	.st2{fill:#202630;}
	.st3{fill:none;stroke:#202630;stroke-linecap:round;stroke-linejoin:round;stroke-miterlimit:10;}
	.st4{fill:#1A9CD2;}
	.st5{fill:#202630;stroke:#202630;stroke-linecap:round;stroke-linejoin:round;stroke-miterlimit:10;}
	.st6{fill:none;stroke:#202630;stroke-width:2;stroke-linecap:round;stroke-linejoin:round;stroke-miterlimit:10;}
</style>
<g>
	<path class="st1" d="M9.1,7.6h13.8c0.8,0,1.5,0.7,1.5,1.5v13.8c0,0.8-0.7,1.5-1.5,1.5H9.1c-0.8,0-1.5-0.7-1.5-1.5V9.1
		C7.6,8.3,8.3,7.6,9.1,7.6z"/>
	<line class="st1" x1="14.3" y1="17.7" x2="21.1" y2="17.7"/>
	<line class="st1" x1="14.3" y1="21.1" x2="21.1" y2="21.1"/>
	<line class="st1" x1="14.3" y1="11.1" x2="21.1" y2="11.1"/>
	<line class="st1" x1="14.3" y1="14.4" x2="21.1" y2="14.4"/>
	<path class="st2" d="M11,10.4L11,10.4c0.3,0,0.6,0.2,0.6,0.6l0,0c0,0.3-0.2,0.6-0.6,0.6l0,0c-0.3,0-0.6-0.2-0.6-0.6l0,0
		C10.4,10.7,10.7,10.4,11,10.4z"/>
	<path class="st2" d="M11,13.8L11,13.8c0.3,0,0.6,0.2,0.6,0.6l0,0c0,0.3-0.2,0.6-0.6,0.6l0,0c-0.3,0-0.6-0.2-0.6-0.6l0,0
		C10.4,14,10.7,13.8,11,13.8z"/>
	<path class="st2" d="M11,17.1L11,17.1c0.3,0,0.6,0.2,0.6,0.6v0c0,0.3-0.2,0.6-0.6,0.6l0,0c-0.3,0-0.6-0.2-0.6-0.6v0
		C10.4,17.4,10.7,17.1,11,17.1z"/>
	<path class="st2" d="M11,20.4L11,20.4c0.3,0,0.6,0.2,0.6,0.6l0,0c0,0.3-0.2,0.6-0.6,0.6l0,0c-0.3,0-0.6-0.2-0.6-0.6l0,0
		C10.4,20.7,10.7,20.4,11,20.4z"/>
</g>
</svg>
