<?xml version="1.0" encoding="utf-8"?>
<!-- Generator: Adobe Illustrator 25.4.1, SVG Export Plug-In . SVG Version: 6.00 Build 0)  -->
<svg version="1.1" id="Layer_1" xmlns="http://www.w3.org/2000/svg" xmlns:xlink="http://www.w3.org/1999/xlink" x="0px" y="0px"
	 viewBox="0 0 32 32" style="enable-background:new 0 0 32 32;" xml:space="preserve">
<style type="text/css">
	.st0{fill:#00759C;stroke:#00759C;stroke-width:0.73;stroke-linecap:round;stroke-linejoin:round;}
	.st1{fill:#009CD5;stroke:#009CD5;stroke-width:0.75;stroke-linecap:round;stroke-linejoin:round;stroke-miterlimit:10;}
	.st2{opacity:0.2;fill:#009CD5;}
	.st3{fill:none;stroke:#16212D;stroke-linecap:round;}
	.st4{fill:#16212D;}
	.st5{fill:#FFFFFF;}
	.st6{fill:#009CD5;}
	.st7{fill:none;stroke:#16212D;stroke-linecap:round;stroke-linejoin:round;stroke-miterlimit:10;}
	.st8{fill:#009CD5;stroke:#009CD5;stroke-linecap:round;stroke-linejoin:round;stroke-miterlimit:10;}
	.st9{fill:none;stroke:#009CD5;stroke-linecap:round;stroke-linejoin:round;stroke-miterlimit:10;}
	.st10{fill:#16212D;stroke:#16212D;stroke-linecap:round;stroke-linejoin:round;stroke-miterlimit:10;}
	.st11{fill:none;stroke:#16212D;stroke-width:2;stroke-linecap:round;stroke-linejoin:round;stroke-miterlimit:10;}
	.st12{fill:none;stroke:#16212D;stroke-width:1.5;stroke-linecap:round;stroke-linejoin:round;stroke-miterlimit:10;}
	.st13{fill:none;stroke:#009CD5;stroke-width:0.75;stroke-linecap:round;}
	.st14{fill:#E9E9E9;}
	.st15{fill:none;stroke:#16212D;stroke-width:0.75;stroke-linecap:round;}
	.st16{fill:none;stroke:#009CD5;stroke-width:0.75;stroke-linecap:round;stroke-linejoin:round;}
	.st17{fill:#00759C;stroke:#00759C;stroke-width:0.75;stroke-linecap:round;stroke-linejoin:round;}
	.st18{fill:none;stroke:#16212D;stroke-width:0.75;stroke-linecap:round;stroke-linejoin:round;}
	.st19{fill:#949495;stroke:#16212D;stroke-width:0.73;stroke-linecap:round;stroke-linejoin:round;}
	.st20{fill:#D8D8D8;stroke:#16212D;stroke-width:0.75;}
	.st21{fill:#949495;stroke:#949495;stroke-width:0.73;stroke-linecap:round;stroke-linejoin:round;}
	.st22{fill:#D8D8D8;stroke:#D8D8D8;stroke-width:0.75;}
	.st23{opacity:0.4;fill:#009CD5;stroke:#009CD5;stroke-width:0.75;}
	.st24{fill:#009CD5;stroke:#009CD5;stroke-width:0.75;stroke-linecap:round;stroke-linejoin:round;}
	.st25{fill:none;stroke:#009CD5;stroke-linecap:round;}
	.st26{fill:#949495;stroke:#16212D;stroke-width:0.75;stroke-linecap:round;stroke-linejoin:round;}
	.st27{fill:#949495;stroke:#949495;stroke-width:0.75;stroke-linecap:round;stroke-linejoin:round;}
	.st28{fill:none;stroke:#949495;stroke-linecap:round;}
</style>
<g>
	<path class="st19" d="M23.5,10.2h-5.3c-0.7,0-1.3-0.3-1.8-0.7L15,8.1c-0.5-0.5-1.2-0.7-1.9-0.7H8.2c-1.2,0-2.2,1-2.1,2.2l0.1,2.1
		l0,0c-0.1,0.3-0.2,0.6-0.1,0.9l0.7,9.9c0.1,1.2,1.1,2.2,2.3,2.2h13.7c1.2,0,2.2-0.9,2.3-2.2l0.7-9.9C25.9,11.3,24.9,10.2,23.5,10.2
		z"/>
	<path class="st20" d="M22.8,24.6H9.2c-1.2,0-2.2-0.9-2.3-2.2l-0.7-9.9c-0.1-1.3,1-2.5,2.3-2.5h15c1.3,0,2.4,1.1,2.3,2.5l-0.7,9.9
		C25.1,23.7,24.1,24.6,22.8,24.6z"/>
</g>
<line class="st3" x1="13.8" y1="16.2" x2="16" y2="14"/>
<line class="st3" x1="18.2" y1="16.2" x2="16" y2="14"/>
<line class="st3" x1="16" y1="20.8" x2="16" y2="14"/>
</svg>
