<?xml version="1.0" encoding="utf-8"?>
<!-- Generator: Adobe Illustrator 25.4.1, SVG Export Plug-In . SVG Version: 6.00 Build 0)  -->
<svg version="1.1" id="Layer_1" xmlns="http://www.w3.org/2000/svg" xmlns:xlink="http://www.w3.org/1999/xlink" x="0px" y="0px"
	 viewBox="0 0 32 32" style="enable-background:new 0 0 32 32;" xml:space="preserve">
<style type="text/css">
	.st0{fill:#D1D1D1;}
	.st1{fill:none;stroke:#202630;stroke-linecap:round;}
	.st2{fill:#202630;}
	.st3{fill:none;stroke:#202630;stroke-linecap:round;stroke-linejoin:round;stroke-miterlimit:10;}
	.st4{fill:#1A9CD2;}
	.st5{fill:#202630;stroke:#202630;stroke-linecap:round;stroke-linejoin:round;stroke-miterlimit:10;}
	.st6{fill:none;stroke:#202630;stroke-width:2;stroke-linecap:round;stroke-linejoin:round;stroke-miterlimit:10;}
</style>
<path class="st2" d="M25.3,16c0-1.3-1-2.3-2.3-2.3h-1.2v-3.5c0-3.2-2.6-5.8-5.8-5.8s-5.8,2.6-5.8,5.8v3.5H9c-1.3,0-2.3,1-2.3,2.3
	v9.3c0,1.3,1,2.3,2.3,2.3h14c1.3,0,2.3-1,2.3-2.3V16z M12.5,10.2c0-1.9,1.6-3.5,3.5-3.5s3.5,1.6,3.5,3.5v3.5h-7V10.2z"/>
</svg>
