<?xml version="1.0" encoding="utf-8"?>
<!-- Generator: Adobe Illustrator 25.4.1, SVG Export Plug-In . SVG Version: 6.00 Build 0)  -->
<svg version="1.1" id="Layer_1" xmlns="http://www.w3.org/2000/svg" xmlns:xlink="http://www.w3.org/1999/xlink" x="0px" y="0px"
	 viewBox="0 0 32 32" style="enable-background:new 0 0 32 32;" xml:space="preserve">
<style type="text/css">
	.st0{opacity:0.2;}
	.st1{fill:#009CD5;}
	.st2{fill:#00759C;stroke:#00759C;stroke-width:0.73;stroke-linecap:round;stroke-linejoin:round;}
	.st3{fill:#009CD5;stroke:#009CD5;stroke-width:0.75;stroke-linecap:round;stroke-linejoin:round;stroke-miterlimit:10;}
	.st4{opacity:0.2;fill:#009CD5;}
	.st5{fill:none;stroke:#16212D;stroke-linecap:round;}
	.st6{fill:#16212D;}
	.st7{fill:#FFFFFF;}
	.st8{fill:none;stroke:#16212D;stroke-linecap:round;stroke-linejoin:round;stroke-miterlimit:10;}
	.st9{fill:#009CD5;stroke:#009CD5;stroke-linecap:round;stroke-linejoin:round;stroke-miterlimit:10;}
	.st10{fill:none;stroke:#009CD5;stroke-linecap:round;stroke-linejoin:round;stroke-miterlimit:10;}
	.st11{fill:#16212D;stroke:#16212D;stroke-linecap:round;stroke-linejoin:round;stroke-miterlimit:10;}
	.st12{fill:none;stroke:#16212D;stroke-width:2;stroke-linecap:round;stroke-linejoin:round;stroke-miterlimit:10;}
	.st13{fill:none;stroke:#16212D;stroke-width:1.5;stroke-linecap:round;stroke-linejoin:round;stroke-miterlimit:10;}
	.st14{fill:none;stroke:#009CD5;stroke-width:0.75;stroke-linecap:round;}
	.st15{fill:#E9E9E9;}
	.st16{fill:none;stroke:#16212D;stroke-width:0.75;stroke-linecap:round;}
	.st17{fill:none;stroke:#009CD5;stroke-width:0.75;stroke-linecap:round;stroke-linejoin:round;}
	.st18{fill:#00759C;stroke:#00759C;stroke-width:0.75;stroke-linecap:round;stroke-linejoin:round;}
	.st19{fill:none;stroke:#16212D;stroke-width:0.75;stroke-linecap:round;stroke-linejoin:round;}
	.st20{fill:none;stroke:#038CB2;stroke-width:0.73;stroke-linecap:round;stroke-linejoin:round;}
	.st21{fill:none;stroke:#038CB2;stroke-width:0.75;}
	.st22{fill:#949495;stroke:#949495;stroke-width:0.73;stroke-linecap:round;stroke-linejoin:round;}
	.st23{fill:#D8D8D8;stroke:#D8D8D8;stroke-width:0.75;}
	.st24{opacity:0.4;fill:#009CD5;stroke:#009CD5;stroke-width:0.75;}
	.st25{fill:#009CD5;stroke:#009CD5;stroke-width:0.75;stroke-linecap:round;stroke-linejoin:round;}
	.st26{fill:none;stroke:#009CD5;stroke-linecap:round;}
	.st27{fill:none;stroke:#038CB2;stroke-width:0.75;stroke-linecap:round;stroke-linejoin:round;}
	.st28{fill:#949495;stroke:#949495;stroke-width:0.75;stroke-linecap:round;stroke-linejoin:round;}
	.st29{fill:none;stroke:#949495;stroke-linecap:round;}
	.st30{fill:none;stroke:#038CB2;stroke-linecap:round;}
	.st31{fill:#949495;stroke:#16212D;stroke-width:0.73;stroke-linecap:round;stroke-linejoin:round;}
	.st32{fill:#D8D8D8;stroke:#16212D;stroke-width:0.75;}
	.st33{fill:#949495;stroke:#16212D;stroke-width:0.75;stroke-linecap:round;stroke-linejoin:round;}
	.st34{fill-rule:evenodd;clip-rule:evenodd;fill:#16212D;}
	.st35{fill:none;stroke:#3AAA35;stroke-width:1.2;stroke-linecap:round;stroke-linejoin:round;stroke-miterlimit:10;}
	.st36{fill:none;stroke:#E84516;stroke-width:1.2;stroke-linecap:round;stroke-linejoin:round;stroke-miterlimit:10;}
	.st37{fill:none;stroke:#8E99A0;stroke-width:1.2;stroke-linecap:round;stroke-linejoin:round;stroke-miterlimit:10;}
	.st38{fill:none;stroke:#333F49;stroke-width:1.2;stroke-linecap:round;stroke-linejoin:round;stroke-miterlimit:10;}
	.st39{fill:none;stroke:#7656D8;stroke-width:1.2;stroke-linecap:round;stroke-linejoin:round;stroke-miterlimit:10;}
	.st40{fill:none;stroke:#F7B90B;stroke-width:1.2;stroke-linecap:round;stroke-linejoin:round;stroke-miterlimit:10;}
	.st41{fill:none;stroke:#338ECD;stroke-width:1.2;stroke-linecap:round;stroke-linejoin:round;stroke-miterlimit:10;}
	.st42{fill:#333F49;}
</style>
<path class="st42" d="M19.9,21.9v-1H17V18h4.9c0.4,0,0.8-0.2,1-0.4c0.3-0.3,0.4-0.7,0.4-1V9.6c0-0.4-0.2-0.8-0.4-1
	c-0.3-0.3-0.7-0.4-1-0.4h-5.7l-0.8-0.8l-0.1-0.1h-5.1c-0.4,0-0.8,0.2-1,0.4c-0.3,0.3-0.4,0.7-0.4,1v7.9c0,0.4,0.2,0.8,0.4,1
	c0.3,0.3,0.7,0.4,1,0.4H15v2.9h-2.9v1H7.2c-0.5,0-1,0.4-1,1v0c0,0.5,0.4,1,1,1h4.9v1h7.9v-1h4.9c0.5,0,1-0.4,1-1v0c0-0.5-0.4-1-1-1
	H19.9z M10.6,9.1h3.7l0.8,0.8l0.1,0.1h6.1V16H10.6V9.1z"/>
</svg>
