<?xml version="1.0" encoding="utf-8"?>
<!-- Generator: Adobe Illustrator 25.4.1, SVG Export Plug-In . SVG Version: 6.00 Build 0)  -->
<svg version="1.1" id="Layer_1" xmlns="http://www.w3.org/2000/svg" xmlns:xlink="http://www.w3.org/1999/xlink" x="0px" y="0px"
	 viewBox="0 0 32 32" style="enable-background:new 0 0 32 32;" xml:space="preserve">
<style type="text/css">
	.st0{opacity:0.2;}
	.st1{fill:#009CD5;}
	.st2{fill:#00759C;stroke:#00759C;stroke-width:0.73;stroke-linecap:round;stroke-linejoin:round;}
	.st3{fill:#009CD5;stroke:#009CD5;stroke-width:0.75;stroke-linecap:round;stroke-linejoin:round;stroke-miterlimit:10;}
	.st4{opacity:0.2;fill:#009CD5;}
	.st5{fill:none;stroke:#16212D;stroke-linecap:round;}
	.st6{fill:#16212D;}
	.st7{fill:#FFFFFF;}
	.st8{fill:none;stroke:#16212D;stroke-linecap:round;stroke-linejoin:round;stroke-miterlimit:10;}
	.st9{fill:#009CD5;stroke:#009CD5;stroke-linecap:round;stroke-linejoin:round;stroke-miterlimit:10;}
	.st10{fill:none;stroke:#009CD5;stroke-linecap:round;stroke-linejoin:round;stroke-miterlimit:10;}
	.st11{fill:#16212D;stroke:#16212D;stroke-linecap:round;stroke-linejoin:round;stroke-miterlimit:10;}
	.st12{fill:none;stroke:#16212D;stroke-width:2;stroke-linecap:round;stroke-linejoin:round;stroke-miterlimit:10;}
	.st13{fill:none;stroke:#16212D;stroke-width:1.5;stroke-linecap:round;stroke-linejoin:round;stroke-miterlimit:10;}
	.st14{fill:none;stroke:#009CD5;stroke-width:0.75;stroke-linecap:round;}
	.st15{fill:#E9E9E9;}
	.st16{fill:none;stroke:#16212D;stroke-width:0.75;stroke-linecap:round;}
	.st17{fill:none;stroke:#009CD5;stroke-width:0.75;stroke-linecap:round;stroke-linejoin:round;}
	.st18{fill:#00759C;stroke:#00759C;stroke-width:0.75;stroke-linecap:round;stroke-linejoin:round;}
	.st19{fill:none;stroke:#16212D;stroke-width:0.75;stroke-linecap:round;stroke-linejoin:round;}
	.st20{fill:none;stroke:#038CB2;stroke-width:0.73;stroke-linecap:round;stroke-linejoin:round;}
	.st21{fill:none;stroke:#038CB2;stroke-width:0.75;}
	.st22{fill:#949495;stroke:#949495;stroke-width:0.73;stroke-linecap:round;stroke-linejoin:round;}
	.st23{fill:#D8D8D8;stroke:#D8D8D8;stroke-width:0.75;}
	.st24{opacity:0.4;fill:#009CD5;stroke:#009CD5;stroke-width:0.75;}
	.st25{fill:#009CD5;stroke:#009CD5;stroke-width:0.75;stroke-linecap:round;stroke-linejoin:round;}
	.st26{fill:none;stroke:#009CD5;stroke-linecap:round;}
	.st27{fill:none;stroke:#038CB2;stroke-width:0.75;stroke-linecap:round;stroke-linejoin:round;}
	.st28{fill:#949495;stroke:#949495;stroke-width:0.75;stroke-linecap:round;stroke-linejoin:round;}
	.st29{fill:none;stroke:#949495;stroke-linecap:round;}
	.st30{fill:none;stroke:#038CB2;stroke-linecap:round;}
	.st31{fill:#949495;stroke:#16212D;stroke-width:0.73;stroke-linecap:round;stroke-linejoin:round;}
	.st32{fill:#D8D8D8;stroke:#16212D;stroke-width:0.75;}
	.st33{fill:#949495;stroke:#16212D;stroke-width:0.75;stroke-linecap:round;stroke-linejoin:round;}
	.st34{fill-rule:evenodd;clip-rule:evenodd;fill:#16212D;}
	.st35{fill:none;stroke:#3AAA35;stroke-width:1.2;stroke-linecap:round;stroke-linejoin:round;stroke-miterlimit:10;}
	.st36{fill:none;stroke:#E84516;stroke-width:1.2;stroke-linecap:round;stroke-linejoin:round;stroke-miterlimit:10;}
	.st37{fill:none;stroke:#8E99A0;stroke-width:1.2;stroke-linecap:round;stroke-linejoin:round;stroke-miterlimit:10;}
	.st38{fill:none;stroke:#333F49;stroke-width:1.2;stroke-linecap:round;stroke-linejoin:round;stroke-miterlimit:10;}
	.st39{fill:none;stroke:#7656D8;stroke-width:1.2;stroke-linecap:round;stroke-linejoin:round;stroke-miterlimit:10;}
	.st40{fill:none;stroke:#F7B90B;stroke-width:1.2;stroke-linecap:round;stroke-linejoin:round;stroke-miterlimit:10;}
	.st41{fill:none;stroke:#338ECD;stroke-width:1.2;stroke-linecap:round;stroke-linejoin:round;stroke-miterlimit:10;}
	.st42{fill:#333F49;}
</style>
<path class="st42" d="M23.4,6.7H8.6c-1.1,0-2,0.9-2,2v14.6c0,1.1,0.9,2,2,2h14.7c1.1,0,2-0.9,2-2V8.7C25.4,7.6,24.5,6.7,23.4,6.7z
	 M11.3,22.7c-1.1,0-2-0.9-2-2c0-1.1,0.9-2,2-2s2,0.9,2,2C13.3,21.8,12.4,22.7,11.3,22.7z M17.9,22.7h-1.4c-0.3,0-0.5-0.2-0.5-0.4
	c-0.2-3.3-2.9-6-6.2-6.2c-0.3,0-0.4-0.2-0.4-0.5v-1.4c0-0.3,0.2-0.5,0.5-0.5c4.6,0.2,8.3,3.9,8.6,8.5C18.4,22.4,18.2,22.7,17.9,22.7
	z M22.2,22.7h-1.4c-0.3,0-0.5-0.2-0.5-0.5C20.1,16.5,15.5,12,9.8,11.7c-0.3,0-0.5-0.2-0.5-0.5V9.8c0-0.3,0.2-0.5,0.5-0.5
	c7,0.3,12.6,5.9,12.9,12.8C22.7,22.4,22.5,22.7,22.2,22.7L22.2,22.7z"/>
</svg>
