<?xml version="1.0" encoding="UTF-8" standalone="no"?>
<svg
   viewBox="0 0 32 32.000001"
   version="1.1"
   id="svg29"
   xmlns="http://www.w3.org/2000/svg">
  <defs
     id="defs6">
    <style
       id="style1">.cls-1{fill:#174359;}.cls-2{fill:url(#linear-gradient);}.cls-3{fill:#12936f;}.cls-4{fill:url(#linear-gradient-2);}.cls-5{fill:none;stroke:#e5e5e5;stroke-miterlimit:10;stroke-width:3px;}.cls-6{fill:#082439;}.cls-7{fill:#afc0de;}.cls-8{fill:url(#linear-gradient-3);}.cls-9{fill:#fff;}.cls-10{fill:#225d76;}</style>
    <linearGradient
       id="linear-gradient"
       x1="64.68"
       y1="126.57"
       x2="156.81"
       y2="223.27"
       gradientUnits="userSpaceOnUse">
      <stop
         offset="0"
         stop-color="#36b66c"
         id="stop1" />
      <stop
         offset="1"
         stop-color="#18a580"
         id="stop2" />
    </linearGradient>
    <linearGradient
       id="linear-gradient-2"
       x1="58.860001"
       y1="92.660004"
       x2="162.7"
       y2="92.660004"
       gradientUnits="userSpaceOnUse">
      <stop
         offset="0"
         stop-color="#36b66c"
         id="stop3" />
      <stop
         offset="1"
         stop-color="#1db590"
         id="stop4" />
    </linearGradient>
    <linearGradient
       id="linear-gradient-3"
       x1="73.82"
       y1="147.56"
       x2="139.03999"
       y2="195.91"
       gradientUnits="userSpaceOnUse">
      <stop
         offset="0"
         stop-color="#1f695b"
         id="stop5" />
      <stop
         offset="1"
         stop-color="#19917e"
         id="stop6" />
    </linearGradient>
  </defs>
  <title
     id="title6">Asset 4</title>
  <g
     id="Layer_2"
     transform="matrix(0.08837138,0,0,0.09353291,5.7398597,1.7119)">
    <g
       id="Layer_1-2">
      <path
         class="cls-1"
         d="M 162.2,112.74 H 59.36 a 10.8,10.8 0 0 0 -10.8,10.8 v 102.84 a 10.81,10.81 0 0 0 10.8,10.8 H 162.2 A 10.8,10.8 0 0 0 173,226.38 V 123.54 a 10.79,10.79 0 0 0 -10.8,-10.8 z m 6.07,109.19 a 10.52,10.52 0 0 1 -10.51,10.52 H 63.81 A 10.52,10.52 0 0 1 53.29,221.93 V 128 a 10.52,10.52 0 0 1 10.52,-10.51 h 93.95 A 10.52,10.52 0 0 1 168.27,128 Z"
         id="path6" />
      <rect
         class="cls-2"
         x="58.860001"
         y="123.04"
         width="103.84"
         height="103.84"
         rx="10.8"
         id="rect6"
         style="fill:url(#linear-gradient)" />
      <path
         class="cls-3"
         d="m 58.86,133.84 v 82.24 c 0,0 4,-57 5,-72.38 1,-15.38 9.91,-16.49 9.91,-16.49 L 151.9,123 H 69.66 a 10.8,10.8 0 0 0 -10.8,10.84 z"
         id="path7" />
      <rect
         class="cls-4"
         x="58.860001"
         y="72.589996"
         width="103.84"
         height="40.150002"
         rx="10.8"
         id="rect7"
         style="fill:url(#linear-gradient-2)" />
      <rect
         class="cls-1"
         x="83.989998"
         y="101.12"
         width="9.6599998"
         height="23.24"
         rx="4.8299999"
         id="rect8" />
      <line
         class="cls-5"
         x1="88.82"
         y1="101.12"
         x2="88.82"
         y2="91.93"
         id="line8" />
      <circle
         class="cls-5"
         cx="88.82"
         cy="89.120003"
         r="2.8"
         id="circle8" />
      <line
         class="cls-5"
         x1="88.82"
         y1="124.36"
         x2="88.82"
         y2="133.55"
         id="line9" />
      <circle
         class="cls-5"
         cx="88.82"
         cy="136.35001"
         r="2.8"
         id="circle9" />
      <line
         class="cls-5"
         x1="88.82"
         y1="101.12"
         x2="88.82"
         y2="91.93"
         id="line10" />
      <circle
         class="cls-5"
         cx="88.82"
         cy="89.120003"
         r="2.8"
         id="circle10" />
      <line
         class="cls-5"
         x1="88.82"
         y1="124.36"
         x2="88.82"
         y2="133.55"
         id="line11" />
      <circle
         class="cls-5"
         cx="88.82"
         cy="136.35001"
         r="2.8"
         id="circle11" />
      <path
         class="cls-6"
         d="M 93.65,119.53 V 106 a 4.83,4.83 0 0 0 -4.83,-4.83 v 23.24 a 4.83,4.83 0 0 0 4.83,-4.88 z"
         id="path11" />
      <rect
         class="cls-1"
         x="105.95"
         y="101.12"
         width="9.6599998"
         height="23.24"
         rx="4.8299999"
         id="rect11" />
      <line
         class="cls-5"
         x1="110.78"
         y1="101.12"
         x2="110.78"
         y2="91.93"
         id="line12" />
      <circle
         class="cls-5"
         cx="110.78"
         cy="89.120003"
         r="2.8"
         id="circle12" />
      <line
         class="cls-5"
         x1="110.78"
         y1="124.36"
         x2="110.78"
         y2="133.55"
         id="line13" />
      <circle
         class="cls-5"
         cx="110.78"
         cy="136.35001"
         r="2.8"
         id="circle13" />
      <path
         class="cls-6"
         d="m 110.78,101.12 h -0.15 v 23.22 h 0.15 a 4.83,4.83 0 0 0 4.83,-4.83 V 106 a 4.83,4.83 0 0 0 -4.83,-4.88 z"
         id="path13" />
      <rect
         class="cls-1"
         x="127.92"
         y="101.12"
         width="9.6599998"
         height="23.24"
         rx="4.8299999"
         id="rect13" />
      <path
         class="cls-6"
         d="m 132.75,101.12 c -0.1,0 -0.2,0 -0.3,0 v 23.18 c 0.1,0 0.2,0 0.3,0 a 4.83,4.83 0 0 0 4.83,-4.83 V 106 a 4.83,4.83 0 0 0 -4.83,-4.88 z"
         id="path14" />
      <line
         class="cls-5"
         x1="132.75"
         y1="101.12"
         x2="132.75"
         y2="91.93"
         id="line14" />
      <circle
         class="cls-5"
         cx="132.75"
         cy="89.120003"
         r="2.8"
         id="circle14" />
      <line
         class="cls-5"
         x1="132.75"
         y1="124.36"
         x2="132.75"
         y2="133.55"
         id="line15" />
      <circle
         class="cls-5"
         cx="132.75"
         cy="136.35001"
         r="2.8"
         id="circle15" />
      <path
         class="cls-1"
         d="M 195.88,263.23 V 191.86 H 173 v 7 h 15.87 v 57.37 h -54.51 v 27.11 a 12.48,12.48 0 1 0 7,0 v -20.11 z m -50.54,32.08 a 7.48,7.48 0 1 1 -7.48,-7.48 7.5,7.5 0 0 1 7.48,7.48 z m -58.07,-12 V 256.24 H 32.75 v -57.38 h 15.86 v -7 H 25.75 v 71.38 h 54.52 v 20.11 a 12.48,12.48 0 1 0 7,0 z m -3.5,19.45 a 7.48,7.48 0 1 1 7.48,-7.48 7.49,7.49 0 0 1 -7.48,7.52 z M 202.43,92.74 182.42,68 a 12.46,12.46 0 1 0 -9.42,4.34 12.6,12.6 0 0 0 3.5,-0.51 l 22.59,27.91 h 12.19 L 190,154.05 h -17 v 7 h 21.75 L 221.54,92.74 Z M 165.52,59.85 a 7.48,7.48 0 1 1 7.48,7.49 7.49,7.49 0 0 1 -7.48,-7.49 z M 48.52,47.37 A 12.47,12.47 0 0 0 39.13,68 l -20,24.72 H 0 l 26.78,68.31 h 21.76 v -7 h -17 L 10.26,99.74 h 12.2 L 45.05,71.83 a 12.48,12.48 0 1 0 3.5,-24.46 z m 0,20 A 7.49,7.49 0 1 1 56,59.85 7.49,7.49 0 0 1 48.55,67.34 Z"
         id="path15" />
      <path
         class="cls-7"
         d="m 43.4,146.27 h 5.17 v 21.58 H 43.4 a 1.93,1.93 0 0 1 -1.93,-1.93 V 148.2 a 1.93,1.93 0 0 1 1.93,-1.93 z"
         id="path16" />
      <path
         class="cls-7"
         d="m 175,146.41 h 5.17 V 168 H 175 a 1.93,1.93 0 0 1 -1.93,-1.93 v -17.73 a 1.93,1.93 0 0 1 1.93,-1.93 z"
         transform="rotate(180,176.575,157.195)"
         id="path17" />
      <path
         class="cls-7"
         d="m 43.4,184.5 h 5.17 v 21.58 H 43.4 a 1.93,1.93 0 0 1 -1.93,-1.93 v -17.72 a 1.93,1.93 0 0 1 1.93,-1.93 z"
         id="path18" />
      <path
         class="cls-7"
         d="m 175,184.63 h 5.17 v 21.58 H 175 a 1.93,1.93 0 0 1 -1.93,-1.93 v -17.71 a 1.93,1.93 0 0 1 1.93,-1.94 z"
         transform="rotate(180,176.575,195.425)"
         id="path19" />
      <rect
         class="cls-6"
         x="84.650002"
         y="148.82001"
         width="52.27"
         height="52.27"
         rx="10.8"
         id="rect19" />
      <rect
         class="cls-8"
         x="88.480003"
         y="152.66"
         width="44.610001"
         height="44.610001"
         rx="10.8"
         id="rect20"
         style="fill:url(#linear-gradient-3)" />
      <path
         class="cls-6"
         d="m 56.27,13.2 a 9.16,9.16 0 1 0 -3.39,3.68 L 80.4,44.41 v 28.18 h 5 V 42.34 Z M 44,9.11 A 4.12,4.12 0 1 1 48.11,13.23 4.12,4.12 0 0 1 44,9.11 Z"
         id="path20" />
      <path
         class="cls-6"
         d="m 181.92,7.39 v 0 A 9.13,9.13 0 0 0 171.24,0.17 9.11,9.11 0 0 0 164,10.84 a 8.8,8.8 0 0 0 1,2.67 l -28.84,28.83 v 30.25 h 5 V 44.41 L 168.52,17 a 9,9 0 0 0 4.48,1.23 8.65,8.65 0 0 0 1.75,-0.17 9.11,9.11 0 0 0 7.22,-10.67 z m -5.54,4 a 4.11,4.11 0 0 1 -5.72,1.1 4.06,4.06 0 0 1 -1.73,-2.62 4.12,4.12 0 1 1 7.45,1.52 z"
         id="path21" />
      <path
         class="cls-3"
         d="m 162.7,216.08 v -82.24 c 0,0 -4,57 -4.94,72.38 -0.94,15.38 -9.92,16.49 -9.92,16.49 l -78.18,4.17 h 82.24 a 10.8,10.8 0 0 0 10.8,-10.8 z"
         id="path22" />
      <path
         class="cls-9"
         d="m 64.34,82.14 v 20.18 c 0,0 1.91,-27.17 13.33,-26.72 0,0 -11.8,-2.21 -13.33,6.54 z"
         id="path23" />
      <path
         class="cls-9"
         d="m 64.34,216.51 v -20.18 c 0,0 1.91,27.17 13.33,26.72 0,0 -11.8,2.22 -13.33,-6.54 z"
         id="path24" />
      <polygon
         class="cls-6"
         points="173.01,198.86 188.88,198.86 188.88,256.23 142.24,256.23 141.36,263.23 195.88,263.23 195.88,191.86 173.01,191.86 "
         id="polygon24" />
      <path
         class="cls-6"
         d="m 150.34,295.31 a 12.5,12.5 0 0 0 -9,-12 V 263.23 L 136.26,288 a 7.07,7.07 0 0 1 1.6,-0.18 7.49,7.49 0 1 1 -4.35,13.56 l -1.06,5.16 a 12.45,12.45 0 0 0 17.89,-11.24 z"
         id="path25" />
      <polygon
         class="cls-6"
         points="202.43,92.74 182.42,68.02 199.09,99.74 211.28,99.74 189.99,154.05 173.01,154.05 173.01,161.05 194.76,161.05 221.55,92.74 "
         id="polygon25" />
      <path
         class="cls-6"
         d="m 162.2,112.74 h -14.14 l -1.46,4.73 h 11.16 A 10.52,10.52 0 0 1 168.27,128 v 94 a 10.52,10.52 0 0 1 -10.51,10.52 h -46.67 l -1.46,4.73 H 162.2 A 10.8,10.8 0 0 0 173,226.45 V 123.54 a 10.79,10.79 0 0 0 -10.8,-10.8 z"
         id="path26" />
      <path
         class="cls-1"
         d="M 85.4,42.34 56.27,13.2 a 9.16,9.16 0 1 0 -3.39,3.68 L 78.73,42.74 85.4,42.35 Z M 48.13,13.23 a 4.12,4.12 0 1 1 4.12,-4.12 4.12,4.12 0 0 1 -4.12,4.12 z"
         id="path27" />
      <polygon
         class="cls-1"
         points="144.72,40.84 153.65,24.85 136.16,42.34 136.16,56.2 141.16,47.23 141.16,44.41 "
         id="polygon27" />
      <path
         class="cls-10"
         d="m 58.32,15.25 -2,-2.05 a 9.16,9.16 0 1 0 -3.39,3.68 l 4.66,4.67 z m -10.19,-2 a 4.12,4.12 0 1 1 4.12,-4.12 4.12,4.12 0 0 1 -4.12,4.1 z"
         id="path28" />
      <polygon
         class="cls-10"
         points="10.26,99.74 22.46,99.74 29.37,91.2 32.73,75.92 19.12,92.74 0,92.74 18.59,140.14 21.29,127.86 "
         id="polygon28" />
      <path
         class="cls-10"
         d="m 36.1,60.64 1.49,-6.75 a 12.36,12.36 0 0 0 -1.52,6 c 0,0.23 0.02,0.49 0.03,0.75 z"
         id="path29" />
      <polygon
         class="cls-10"
         points="25.75,263.24 45.62,263.24 42.66,256.24 32.75,256.24 32.75,232.75 25.75,216.17 "
         id="polygon29" />
    </g>
  </g>
  <metadata
     id="metadata29">
  </metadata>
</svg>
