<svg xmlns="http://www.w3.org/2000/svg" xmlns:xlink="http://www.w3.org/1999/xlink" viewBox="0 0 221.55 307.8">
    <defs>
        <style>.cls-1{fill:#174359;}.cls-2{fill:url(#linear-gradient);}.cls-3{fill:#12936f;}.cls-4{fill:url(#linear-gradient-2);}.cls-5{fill:none;stroke:#e5e5e5;stroke-miterlimit:10;stroke-width:3px;}.cls-6{fill:#082439;}.cls-7{fill:#afc0de;}.cls-8{fill:url(#linear-gradient-3);}.cls-9{fill:#fff;}.cls-10{fill:#225d76;}</style>
        <linearGradient id="linear-gradient" x1="64.68" y1="126.57" x2="156.81" y2="223.27" gradientUnits="userSpaceOnUse">
            <stop offset="0" stop-color="#36b66c"/><stop offset="1" stop-color="#18a580"/>
        </linearGradient>
        <linearGradient id="linear-gradient-2" x1="58.86" y1="92.66" x2="162.7" y2="92.66" gradientUnits="userSpaceOnUse">
            <stop offset="0" stop-color="#36b66c"/><stop offset="1" stop-color="#1db590"/>
        </linearGradient><linearGradient id="linear-gradient-3" x1="73.82" y1="147.56" x2="139.04" y2="195.91" gradientUnits="userSpaceOnUse"><stop offset="0" stop-color="#1f695b"/><stop offset="1" stop-color="#19917e"/></linearGradient></defs><title>Asset 4</title><g id="Layer_2"><g id="Layer_1-2"><path class="cls-1" d="M162.2,112.74H59.36a10.8,10.8,0,0,0-10.8,10.8V226.38a10.81,10.81,0,0,0,10.8,10.8H162.2a10.8,10.8,0,0,0,10.8-10.8V123.54A10.79,10.79,0,0,0,162.2,112.74Zm6.07,109.19a10.52,10.52,0,0,1-10.51,10.52H63.81a10.52,10.52,0,0,1-10.52-10.52V128a10.52,10.52,0,0,1,10.52-10.51h93.95A10.52,10.52,0,0,1,168.27,128Z"/><rect class="cls-2" x="58.86" y="123.04" width="103.84" height="103.84" rx="10.8"/><path class="cls-3" d="M58.86,133.84v82.24s4-57,5-72.38,9.91-16.49,9.91-16.49L151.9,123H69.66A10.8,10.8,0,0,0,58.86,133.84Z"/><rect class="cls-4" x="58.86" y="72.59" width="103.84" height="40.15" rx="10.8"/><rect class="cls-1" x="83.99" y="101.12" width="9.66" height="23.24" rx="4.83"/><line class="cls-5" x1="88.82" y1="101.12" x2="88.82" y2="91.93"/><circle class="cls-5" cx="88.82" cy="89.12" r="2.8"/><line class="cls-5" x1="88.82" y1="124.36" x2="88.82" y2="133.55"/><circle class="cls-5" cx="88.82" cy="136.35" r="2.8"/><line class="cls-5" x1="88.82" y1="101.12" x2="88.82" y2="91.93"/><circle class="cls-5" cx="88.82" cy="89.12" r="2.8"/><line class="cls-5" x1="88.82" y1="124.36" x2="88.82" y2="133.55"/><circle class="cls-5" cx="88.82" cy="136.35" r="2.8"/><path class="cls-6" d="M93.65,119.53V106a4.83,4.83,0,0,0-4.83-4.83v23.24A4.83,4.83,0,0,0,93.65,119.53Z"/><rect class="cls-1" x="105.95" y="101.12" width="9.66" height="23.24" rx="4.83"/><line class="cls-5" x1="110.78" y1="101.12" x2="110.78" y2="91.93"/><circle class="cls-5" cx="110.78" cy="89.12" r="2.8"/><line class="cls-5" x1="110.78" y1="124.36" x2="110.78" y2="133.55"/><circle class="cls-5" cx="110.78" cy="136.35" r="2.8"/><path class="cls-6" d="M110.78,101.12h-.15v23.22h.15a4.83,4.83,0,0,0,4.83-4.83V106A4.83,4.83,0,0,0,110.78,101.12Z"/><rect class="cls-1" x="127.92" y="101.12" width="9.66" height="23.24" rx="4.83"/><path class="cls-6" d="M132.75,101.12c-.1,0-.2,0-.3,0v23.18c.1,0,.2,0,.3,0a4.83,4.83,0,0,0,4.83-4.83V106A4.83,4.83,0,0,0,132.75,101.12Z"/><line class="cls-5" x1="132.75" y1="101.12" x2="132.75" y2="91.93"/><circle class="cls-5" cx="132.75" cy="89.12" r="2.8"/><line class="cls-5" x1="132.75" y1="124.36" x2="132.75" y2="133.55"/><circle class="cls-5" cx="132.75" cy="136.35" r="2.8"/><path class="cls-1" d="M195.88,263.23V191.86H173v7h15.87v57.37H134.36v27.11a12.48,12.48,0,1,0,7,0V263.23Zm-50.54,32.08a7.48,7.48,0,1,1-7.48-7.48A7.5,7.5,0,0,1,145.34,295.31Zm-58.07-12V256.24H32.75V198.86H48.61v-7H25.75v71.38H80.27v20.11a12.48,12.48,0,1,0,7,0Zm-3.5,19.45a7.48,7.48,0,1,1,7.48-7.48A7.49,7.49,0,0,1,83.77,302.8ZM202.43,92.74,182.42,68A12.46,12.46,0,1,0,173,72.34a12.6,12.6,0,0,0,3.5-.51l22.59,27.91h12.19L190,154.05H173v7h21.75l26.79-68.31ZM165.52,59.85A7.48,7.48,0,1,1,173,67.34,7.49,7.49,0,0,1,165.52,59.85Zm-117-12.48A12.47,12.47,0,0,0,39.13,68l-20,24.72H0l26.78,68.31H48.54v-7h-17L10.26,99.74h12.2L45.05,71.83a12.48,12.48,0,1,0,3.5-24.46Zm0,20A7.49,7.49,0,1,1,56,59.85,7.49,7.49,0,0,1,48.55,67.34Z"/><path class="cls-7" d="M43.4,146.27h5.17a0,0,0,0,1,0,0v21.58a0,0,0,0,1,0,0H43.4a1.93,1.93,0,0,1-1.93-1.93V148.2A1.93,1.93,0,0,1,43.4,146.27Z"/><path class="cls-7" d="M175,146.41h5.17a0,0,0,0,1,0,0V168a0,0,0,0,1,0,0H175a1.93,1.93,0,0,1-1.93-1.93V148.34A1.93,1.93,0,0,1,175,146.41Z" transform="translate(353.15 314.39) rotate(180)"/><path class="cls-7" d="M43.4,184.5h5.17a0,0,0,0,1,0,0v21.58a0,0,0,0,1,0,0H43.4a1.93,1.93,0,0,1-1.93-1.93V186.43A1.93,1.93,0,0,1,43.4,184.5Z"/><path class="cls-7" d="M175,184.63h5.17a0,0,0,0,1,0,0v21.58a0,0,0,0,1,0,0H175a1.93,1.93,0,0,1-1.93-1.93V186.57A1.93,1.93,0,0,1,175,184.63Z" transform="translate(353.15 390.85) rotate(180)"/><rect class="cls-6" x="84.65" y="148.82" width="52.27" height="52.27" rx="10.8"/><rect class="cls-8" x="88.48" y="152.66" width="44.61" height="44.61" rx="10.8"/><path class="cls-6" d="M56.27,13.2a9.16,9.16,0,1,0-3.39,3.68L80.4,44.41V72.59h5V42.34ZM44,9.11a4.12,4.12,0,1,1,4.11,4.12A4.12,4.12,0,0,1,44,9.11Z"/><path class="cls-6" d="M181.92,7.39h0A9.13,9.13,0,0,0,171.24.17,9.11,9.11,0,0,0,164,10.84a8.8,8.8,0,0,0,1,2.67L136.16,42.34V72.59h5V44.41L168.52,17A9,9,0,0,0,173,18.23a8.65,8.65,0,0,0,1.75-.17,9.11,9.11,0,0,0,7.22-10.67Zm-5.54,4a4.11,4.11,0,0,1-5.72,1.1,4.06,4.06,0,0,1-1.73-2.62,4.12,4.12,0,1,1,7.45,1.52Z"/><path class="cls-3" d="M162.7,216.08V133.84s-4,57-4.94,72.38-9.92,16.49-9.92,16.49l-78.18,4.17H151.9A10.8,10.8,0,0,0,162.7,216.08Z"/><path class="cls-9" d="M64.34,82.14v20.18S66.25,75.15,77.67,75.6C77.67,75.6,65.87,73.39,64.34,82.14Z"/><path class="cls-9" d="M64.34,216.51V196.33s1.91,27.17,13.33,26.72C77.67,223.05,65.87,225.27,64.34,216.51Z"/><polygon class="cls-6" points="195.88 191.86 173.01 191.86 173.01 198.86 188.88 198.86 188.88 256.23 142.24 256.23 141.36 263.23 195.88 263.23 195.88 191.86"/><path class="cls-6" d="M150.34,295.31a12.5,12.5,0,0,0-9-12V263.23L136.26,288a7.07,7.07,0,0,1,1.6-.18,7.49,7.49,0,1,1-4.35,13.56l-1.06,5.16a12.45,12.45,0,0,0,17.89-11.24Z"/><polygon class="cls-6" points="221.55 92.74 202.43 92.74 182.42 68.02 199.09 99.74 211.28 99.74 189.99 154.05 173.01 154.05 173.01 161.05 194.76 161.05 221.55 92.74"/><path class="cls-6" d="M162.2,112.74H148.06l-1.46,4.73h11.16A10.52,10.52,0,0,1,168.27,128v94a10.52,10.52,0,0,1-10.51,10.52H111.09l-1.46,4.73H162.2a10.8,10.8,0,0,0,10.8-10.8V123.54A10.79,10.79,0,0,0,162.2,112.74Z"/><path class="cls-1" d="M85.4,42.34,56.27,13.2a9.16,9.16,0,1,0-3.39,3.68L78.73,42.74l6.67-.39ZM48.13,13.23a4.12,4.12,0,1,1,4.12-4.12A4.12,4.12,0,0,1,48.13,13.23Z"/><polygon class="cls-1" points="136.16 42.34 136.16 56.2 141.16 47.23 141.16 44.41 144.72 40.84 153.65 24.85 136.16 42.34"/><path class="cls-10" d="M58.32,15.25l-2-2.05a9.16,9.16,0,1,0-3.39,3.68l4.66,4.67Zm-10.19-2a4.12,4.12,0,1,1,4.12-4.12A4.12,4.12,0,0,1,48.13,13.23Z"/><polygon class="cls-10" points="18.59 140.14 21.29 127.86 10.26 99.74 22.46 99.74 29.37 91.2 32.73 75.92 19.12 92.74 0 92.74 18.59 140.14"/><path class="cls-10" d="M36.1,60.64l1.49-6.75a12.36,12.36,0,0,0-1.52,6C36.07,60.12,36.09,60.38,36.1,60.64Z"/><polygon class="cls-10" points="42.66 256.24 32.75 256.24 32.75 232.75 25.75 216.17 25.75 263.24 45.62 263.24 42.66 256.24"/></g></g></svg>
