<?xml version="1.0" encoding="UTF-8" standalone="no"?>
<svg
   viewBox="0 0 32 32"
   version="1.1"
   preserveAspectRatio="xMidYMid"
   id="svg16"
   xmlns="http://www.w3.org/2000/svg">
  <defs
     id="defs16" />
  <g
     id="g16"
     transform="matrix(0.10585338,0,0,0.11288345,2.2618541,1.2405916)">
    <path
       d="m 88.956519,166.90798 32.299591,-32.30166 -48.503274,0.002 H 72.63677 c -26.877636,0 -48.667009,21.78938 -48.667009,48.66494 0,26.87971 21.7873,48.66701 48.664936,48.66701 2.041523,0 4.049884,-0.14094 6.025084,-0.38551 -10.622138,-20.92509 -7.198183,-47.154 10.296738,-64.64685"
       fill="#87c040"
       id="path1" />
    <path
       d="m 128.33615,183.21322 v -45.6783 l -34.295513,34.29966 -0.08291,0.0808 c -19.005855,19.00585 -19.005855,49.81938 0,68.82523 19.005863,19.00586 49.819373,19.00586 68.825233,0 1.44254,-1.44254 2.73792,-2.9742 3.96283,-4.54109 -22.29716,-7.29353 -38.40758,-28.25178 -38.40965,-52.98634"
       fill="#87c040"
       id="path2" />
    <path
       d="m 167.71371,166.89762 -32.29959,-32.29959 v 48.61934 c 0,26.87971 21.78938,48.66701 48.66701,48.66701 26.87764,0 48.66701,-21.7873 48.66701,-48.66494 0,-2.04152 -0.14094,-4.04988 -0.38551,-6.02508 -20.92509,10.62421 -47.154,7.19818 -64.64892,-10.29674"
       fill="#87c040"
       id="path3" />
    <path
       d="m 241.54638,93.073245 c -1.44254,-1.442538 -2.97213,-2.737921 -4.53902,-3.962835 -7.29352,22.29509 -28.25385,38.40758 -52.98633,38.40758 H 138.3448 l 34.37634,34.37842 c 19.00586,19.00585 49.82146,19.00585 68.82524,0 19.00585,-19.00586 19.00585,-49.81938 0,-68.823165"
       fill="#87c040"
       id="path4" />
    <path
       d="m 184.02724,23.108072 c -2.04152,0 -4.04988,0.138865 -6.02508,0.383434 10.62214,20.927166 7.19818,47.154001 -10.29674,64.648922 L 135.4079,120.44002 h 48.61934 c 26.87557,0 48.66494,-21.789376 48.66494,-48.667011 0.002,-26.877637 -21.7873,-48.664937 -48.66494,-48.664937"
       fill="#ed9a2d"
       id="path5" />
    <path
       d="m 162.70421,14.305688 c -19.00586,-19.0037819 -49.81938,-19.0037819 -68.825237,0.0021 -1.440466,1.442538 -2.735848,2.972126 -3.960762,4.541093 22.295089,7.293523 38.407579,28.251778 38.407579,52.98426 v 45.678309 l 34.29551,-34.297595 0.0829,-0.08083 c 19.00585,-19.005854 19.00585,-49.819381 0,-68.827308"
       fill="#5698c6"
       id="path6" />
    <path
       d="m 88.995898,88.173589 1.384505,1.444611 30.834257,30.83425 h 0.0332 V 71.945035 71.828969 c 0,-26.877636 -21.789375,-48.667009 -48.667011,-48.667009 -26.877636,0 -48.667009,21.7873 -48.664936,48.664936 0,2.037378 0.138865,4.039522 0.381361,6.010576 20.939601,-10.61592 47.201672,-7.160875 64.698664,10.336117"
       fill="#5698c6"
       id="path7" />
    <path
       d="m 19.797592,165.51519 c 0.381361,-1.13165 0.791738,-2.24671 1.241495,-3.3452 0.05596,-0.13886 0.105703,-0.2798 0.163736,-0.41452 0.493282,-1.18139 1.036307,-2.33169 1.606275,-3.46748 0.124357,-0.25079 0.252859,-0.49743 0.383433,-0.74821 0.58655,-1.1275 1.204188,-2.23635 1.863279,-3.31618 0.07047,-0.11607 0.147155,-0.22592 0.217624,-0.33784 0.625929,-1.00936 1.287092,-1.98971 1.975199,-2.95347 0.140938,-0.19897 0.279803,-0.40002 0.424886,-0.59691 0.739923,-1.00729 1.510934,-1.98557 2.313035,-2.93897 0.163737,-0.19482 0.329546,-0.38343 0.497427,-0.57204 0.783448,-0.9078 1.591766,-1.79281 2.431174,-2.64672 0.07462,-0.0746 0.143011,-0.15338 0.217625,-0.22799 0.893296,-0.89744 1.823899,-1.7555 2.775228,-2.5887 0.207261,-0.18238 0.414522,-0.3627 0.623856,-0.54095 0.957547,-0.81661 1.937892,-1.60213 2.947254,-2.35448 0.132648,-0.0974 0.271513,-0.18861 0.40416,-0.28395 0.943038,-0.68604 1.908876,-1.34098 2.895439,-1.96898 0.194826,-0.12436 0.387579,-0.25286 0.584477,-0.37515 1.065323,-0.65909 2.155517,-1.2788 3.266437,-1.86742 0.234205,-0.12228 0.470483,-0.24042 0.706761,-0.36063 1.108847,-0.56583 2.232203,-1.10678 3.38043,-1.59799 0.05596,-0.0228 0.109849,-0.0497 0.165809,-0.0746 1.187607,-0.50365 2.402158,-0.9534 3.631217,-1.37622 0.265294,-0.0912 0.528516,-0.18239 0.795883,-0.26944 1.216623,-0.39587 2.449828,-0.76065 3.701686,-1.07776 0.19068,-0.0456 0.387578,-0.0871 0.578258,-0.13057 1.160663,-0.2798 2.333762,-0.52022 3.519296,-0.72541 0.221769,-0.0373 0.441466,-0.0829 0.663236,-0.11607 1.287092,-0.20726 2.590765,-0.36271 3.904801,-0.47877 0.283948,-0.0249 0.569969,-0.0435 0.853917,-0.0663 1.359633,-0.0974 2.725485,-0.16581 4.10999,-0.16581 l 45.678305,-0.002 -34.378423,-34.378419 c -19.005855,-19.003781 -49.821454,-19.005854 -68.825236,0 -19.0058542,19.005859 -19.0058542,49.819379 0,68.825239 1.440466,1.44046 2.949328,2.77108 4.51415,3.99392 0.05182,-0.15337 0.116066,-0.30053 0.167881,-0.4539"
       fill="#5698c6"
       id="path8" />
    <path
       d="M 84.054791,93.149931 111.27441,120.36955 H 74.688656 l -2.074685,0.0435 c -22.280582,0 -41.062594,-14.97255 -46.836892,-35.40436 18.535371,-10.39415 42.428446,-7.705972 58.19688,8.06039 l 0.08083,0.08083"
       fill="#446ba6"
       id="path9" />
    <path
       d="M 121.22916,71.818606 V 110.31323 L 95.358818,84.442887 93.862392,83.006567 C 78.106393,67.252641 75.411997,43.382366 85.777131,24.853212 106.23382,30.610929 121.22916,49.407449 121.22916,71.70254 v 0.116066"
       fill="#446ba6"
       id="path10" />
    <path
       d="M 162.85344,83.095689 135.63382,110.31738 V 73.731627 l -0.0435,-2.074685 c 0,-22.280582 14.97256,-41.064667 35.40437,-46.836892 10.39415,18.535372 7.70597,42.428446 -8.06039,58.194807 l -0.0808,0.08083"
       fill="#446ba6"
       id="path11" />
    <path
       d="m 183.99615,120.33846 h -38.49462 l 25.87034,-25.870347 1.43632,-1.496426 c 15.75393,-15.755999 39.62421,-18.450395 58.15336,-8.085261 -5.75772,20.456684 -24.55424,35.452034 -46.84933,35.452034 h -0.11607"
       fill="#fff101"
       id="path12" />
    <path
       d="m 172.62788,161.70365 -27.21962,-27.21961 h 36.58575 l 2.07469,-0.0435 c 22.28058,0.002 41.06259,14.97463 46.83689,35.40644 -18.53745,10.39208 -42.42845,7.70597 -58.19688,-8.06246 l -0.0808,-0.0808"
       fill="#45ab47"
       id="path13" />
    <path
       d="M 135.52604,182.99353 V 144.4989 l 25.87035,25.87035 1.4985,1.43632 c 15.75393,15.756 18.44832,39.62213 8.08319,58.15335 -20.45669,-5.75772 -35.45204,-24.55216 -35.45204,-46.8514 v -0.11399"
       fill="#45ab47"
       id="path14" />
    <path
       d="m 94.158776,171.9465 27.219614,-27.22169 v 36.58576 l 0.0435,2.07468 c 0,22.28058 -14.97255,41.06467 -35.404365,46.83897 -10.394151,-18.53952 -7.705973,-42.43052 8.060389,-58.19688 l 0.08083,-0.0808"
       fill="#45ab47"
       id="path15" />
    <path
       d="m 72.804651,134.68508 h 38.494629 l -25.870347,25.87035 -1.436321,1.49642 c -15.755998,15.756 -39.624201,18.4504 -58.155427,8.08526 5.759789,-20.45875 24.554237,-35.45203 46.8514,-35.45203 h 0.116066"
       fill="#45ab47"
       id="path16" />
  </g>
</svg>
