<?xml version="1.0" encoding="UTF-8" standalone="no"?>
<svg
   viewBox="0 0 32 31.999999"
   version="1.1"
   id="svg15"
   xmlns="http://www.w3.org/2000/svg">
  <defs
     id="defs15" />
  <g
     id="g3"
     transform="matrix(0.87728023,0,0,0.92987005,3.7574126,-0.63299408)">
    <g
       id="g2"
       transform="translate(-0.27028316,2.6127372)">
      <path
         d="m 26.181825,8.6861271 c -1.138,-1.924 -1.874,-3.078 -4.867,-4.717 -2.994,-1.64 -6.038,-1.556 -7.159,-1.539 -1.12,0.017 -1.772,0.101 -2.141,0.234 0,0 -0.242,-0.143 -0.502,0.117 -0.101,0.1 -0.101,0.401 -0.084,0.468 0.017,0.067 0.469,0.469 0.703,0.652 0.234,0.185 1.12,1.07 1.254,1.222 0,0 0.051,0.15 0.134,0.233 0.033,0.033 0.123,0.214 0.234,0.455 -1.081,0.204 -2.046,0.481 -2.566,0.615 -0.641,0.164 -1.7659996,0.523 -1.9609996,0.586 -0.12,0.039 -0.339,0.15 -0.633,0.272 -0.186,-0.341 -0.653,-1.202 -0.745,-1.485 -0.114,-0.354 -0.291,-0.843 -0.052,-1.666 0.092,-0.316 0.182,-0.611 0.263,-0.868 1.077,-0.57 2.3199996,-1.079 3.6709996,-1.337 2.458,-0.468 3.061,-0.418 3.562,-0.418 0.134,0 0.05,-0.134 0.05,-0.134 0,0 -2.079,-0.325 -4.265,0.184 a 15.44,15.44 0 0 0 -2.7779996,0.959 l 0.039,-0.115 c 0.073,-0.219 0.166,-0.563 0.166,-0.688 0,-0.125 -0.044,-0.232 -0.199,-0.246 -0.083,-0.008 -0.215,0.114 -0.232,0.18 -0.017,0.066 -0.009,0.281 0.03,0.391 0.034,0.093 0.026,0.312 -0.103,0.618 -0.264,0.126 -0.47,0.233 -0.602,0.307 -0.485,0.267 -3.111,1.956 -4.667,3.997 0,0 -0.167,0 -0.251,0.334 0,0 -0.803,1.021 -1.305,2.190999 -0.50199999,1.1699999 -0.90299999,3.8300009 -0.91999999,5.0339999 -0.017,1.204 0.117,2.811 0.318,3.747 0.2,0.937 0.93699999,2.91 2.18999999,4.549 1.027,1.343 2.091,2.492 3.831,3.562 1.739,1.071 4.2149996,1.94 8.0119996,1.891 3.796,-0.05 6.255,-1.422 7.325,-2.257999 1.07,-0.836999 3.425,-2.75 4.901,-6.858 0.385,-1.070001 0.803,-2.358 0.836,-4.381999 0.033,-2.024 -0.35,-4.164 -1.487,-6.0870009 z"
         id="path1" />
      <path
         d="m 13.319825,3.9361271 c -0.117,-0.151 0.066,-0.084 -1.037,-1.071 0,0 1.087,-0.1 1.505,-0.1 0.419,0 2.008,0.083 3.412,0.602 1.077,0.397 3.273,1.268 5.182,2.856 -0.321,-0.052 -0.907,-0.144 -1.499,-0.231 -0.351,-0.311 -0.972,-0.849 -1.069,-0.9 a 0.357,0.357 0 0 0 -0.305,-0.023 c -0.108,0.048 -0.062,0.25 0.047,0.383 0.055,0.066 0.216,0.239 0.371,0.403 -0.21,-0.028 -0.397,-0.052 -0.543,-0.067 -0.812,-0.087 -3.126,-0.269 -4.554,-0.138 a 4.06,4.06 0 0 0 -0.339,-0.426 c 0,0 0.05,-0.033 -0.084,-0.184 -0.134,-0.151 -0.268,-0.301 -0.519,-0.401 0,0 -0.033,-0.101 -0.066,-0.185 -0.034,-0.083 -0.385,-0.368 -0.502,-0.518 z m 12.315,15.5829999 -0.079,-0.692 c 0.101,0.005 0.2,-0.001 0.292,-0.021 a 47.66,47.66 0 0 1 -0.213,0.713 z m -0.582,1.518999 a 11.062,11.062 0 0 1 -1.067,1.812001 c -0.256,-0.094 -0.876,-0.282 -1.834,-0.32 -0.334,-0.014 -0.69,-0.012 -1.052,0.001 0.018,-0.457002 0.098,-0.713001 0.098,-0.981001 0,-0.302 -0.067,-1.205 -0.084,-1.84 a 12.901,12.901 0 0 0 -0.184,-1.954999 c 0.509,-0.017 1.092,0.003 1.534,0.129 0.875,0.25 2.208,0.719 2.322,0.771 0.044,0.02 0.17,0.065 0.332,0.105 -0.018,0.565 -0.062,1.79 -0.065,2.277999 z m -8.141,5.085001 c -0.083,-0.177 -0.291,-0.646001 -0.364,-0.969001 -0.062,-0.274999 -0.493,-0.963999 -0.742,-1.355 0.272,-0.054 0.546,-0.086 0.711,-0.124 0.229,-0.052 1.625,-0.457999 1.625,-0.457999 0,0 1.125,-0.239 1.531,-0.25 0.147,-0.004 0.402,-0.021 0.709,-0.038 a 112.594,112.594 0 0 1 -0.084,2.966999 c -0.859,0.461 -1.89,0.870001 -3.14,1.134001 -0.062,-0.263001 -0.185,-0.777001 -0.246,-0.907 z m -5.687,0.154 c 0.403,0.352 0.929,0.728999 1.206,0.923 a 15.873,15.873 0 0 1 -1.652,-0.299 c 0.048,-0.117 0.166,-0.327999 0.446,-0.624 z M 5.7758254,4.6881271 c 0.537,-0.381 1.182,-0.81 1.911,-1.22 -0.157,0.513 -0.307,1.12 -0.327,1.248 -0.031,0.196 -0.133,0.719 0.125,1.344 0.194,0.472 0.519,0.988 0.763,1.357 a 4.787,4.787 0 0 1 -0.286,0.096 c -0.617,0.188 -1.852,0.633 -2.484,1 -0.53,0.307 -1.456,0.892001 -2.18,1.5729999 -0.127,-1.2979999 -0.131,-2.3809999 -0.127,-2.7629999 0.284,-0.371 1.407,-1.782 2.605,-2.635 z m -0.251,19.7369989 c -0.4,-0.318999 -2.826,-2.024 -3.847,-5.888 -0.676,-2.562 -0.583,-5.311 -0.234,-7.492999 0.131,-0.817 0.629,-1.9370009 0.995,-2.4869999 a 30.952,30.952 0 0 0 -0.106,2.4939989 c -0.129,0.153 -0.414,0.493 -0.528,0.665 -0.148,0.227 -0.227,0.398 -0.266,0.469 -0.039,0.071 -0.305,0.172 -0.203,0.281 0.102,0.109 0.25,0.133 0.32,0.016 0.067,-0.111 0.213,-0.245 0.713,-0.48 0.045,0.649 0.116,0.729 0.24,0.985 0.157,0.323 0.646,1.521 0.771,2.094 0.056,0.254 0.172,0.659 0.333,1.142 -0.383,0.313 -0.618,0.575 -0.687,0.65 -0.104,0.114 -0.281,0.354 -0.354,0.406 -0.073,0.052 -0.323,0.438 -0.364,0.489 -0.042,0.052 -0.073,0.281 -0.062,0.344 0.009,0.062 0.125,0.167 0.197,0.125 0.073,-0.042 0.678,-0.614 0.729,-0.698 0.038,-0.061 0.445,-0.513 0.717,-0.807 0.174,0.485 0.381,1.017 0.606,1.536 0.552,1.271 1.635,3.031 1.864,3.386 0.06,0.092 0.154,0.235 0.263,0.398 l -1.325,0.894 c -0.219,0.146 -0.136,0.312 -0.021,0.322 0.104,0.01 1.166,-0.165 1.767,-0.589 l 0.306,0.454 c 0.188,0.375 0.761,0.719 0.761,0.719 0.438,0.385 0.979,0.76 1.011,0.822 0.142,0.283 0.219,0.292 0.333,0.365 0.114,0.072 0.396,0.302 0.469,0.406 0.073,0.104 0.3859996,0.219 0.3859996,0.219 a 0.633,0.633 0 0 0 0.197,0.14 c -0.338,0.279 -0.5859996,0.562 -0.6859996,0.837 -1.398,-0.427 -2.909,-1.114 -4.295,-2.216 z m 8.2159996,2.889 a 4.747,4.747 0 0 0 -0.61,-0.504 3.034,3.034 0 0 1 -0.479,-0.427 c -0.062,-0.073 -0.178,-0.084 -0.178,-0.084 0,0 -0.156,-0.125 -0.229,-0.197 -0.073,-0.073 -0.261,-0.155999 -0.417,-0.271 l -0.037,-0.028 c 0.186,-0.152 0.895,-0.725 1.433,-1.003 0.57,-0.294 1.695,-0.736 2.157,-0.891 0.318,0.464 0.646,0.928 0.708,1.058 0.072,0.156 0.291,0.583 0.344,0.906 0.043,0.27 0.211,0.81 0.355,1.229 a 14.85,14.85 0 0 1 -1.931,0.218 c -0.112,0.004 -0.516,0.021 -1.116,-0.006 z m 9.297,-3.407 c -0.518,0.461 -1.157,1.016001 -1.981,1.543 0.013,-0.711 0.035,-1.972 0.04,-2.549 a 9.204,9.204 0 0 1 1.087,0.034 c 0.806,0.084 1.257,0.144 1.544,0.245 a 6.68,6.68 0 0 1 -0.69,0.727 z m 3.529,-7.928999 c -0.057,0.422001 -0.333,1.472999 -0.601,2.416001 a 4.96,4.96 0 0 1 -0.465,-0.018 l -0.04,-0.309 c -0.078,-0.57 -0.258,-1.141 -0.281,-2.039 -0.023,-0.898 -0.133,-1.522999 -0.375,-2.491999 -0.017,-0.066 -0.034,-0.134 -0.053,-0.201 0.313,0.067 0.698,0.128 0.847,0.141 0.24,0.021 0.293,-0.031 0.318,-0.078 0.061,-0.112 -0.013,-0.191 -0.339,-0.321 -0.232,-0.092 -0.699,-0.236 -1,-0.337 -0.223,-0.707 -0.472,-1.354 -0.562,-1.61 -0.125,-0.352 -1.156,-2.2270009 -1.445,-2.7110009 -0.289,-0.484 -0.609,-0.961 -0.773,-1.289 a 3.543,3.543 0 0 0 -0.348,-0.541 c 0.239,0.037 0.95,0.138 1.461,0.101 0.389,0.363 0.759,0.761 1.097,1.193 0.343,0.438 0.887,1.304 0.971,1.589 0.083,0.284 1.054,1.9230009 1.354,3.3610009 0.3,1.438 0.334,2.393 0.234,3.144998 z"
         fill="#ffffff"
         id="path2" />
      <path
         d="m 16.911825,26.123126 c -0.083,-0.177 -0.291,-0.646 -0.364,-0.969 -0.062,-0.275 -0.493,-0.964 -0.742,-1.355 0.272,-0.054 0.546,-0.086 0.711,-0.124 0.229,-0.052 1.625,-0.457999 1.625,-0.457999 0,0 1.125,-0.239001 1.531,-0.25 0.147,-0.004 0.402,-0.021 0.709,-0.038 a 112.594,112.594 0 0 1 -0.084,2.966999 c -0.859,0.461 -1.89,0.870001 -3.14,1.134 -0.062,-0.263 -0.185,-0.777 -0.246,-0.907 z m -3.171,1.191 a 4.747,4.747 0 0 0 -0.61,-0.504 3.034,3.034 0 0 1 -0.479,-0.427 c -0.062,-0.073 -0.178,-0.084 -0.178,-0.084 0,0 -0.156,-0.125 -0.229,-0.197 -0.073,-0.073 -0.261,-0.156 -0.417,-0.271 l -0.037,-0.028 c 0.186,-0.152 0.895,-0.725 1.433,-1.003 0.57,-0.294 1.695,-0.736 2.157,-0.891 0.318,0.464 0.646,0.928 0.708,1.058 0.072,0.156 0.291,0.583 0.344,0.906 0.043,0.27 0.211,0.81 0.355,1.229 a 14.85,14.85 0 0 1 -1.931,0.218 c -0.112,0.004 -0.516,0.021 -1.116,-0.006 z"
         fill="#ffffff"
         id="path3" />
      <path
         d="m 10.651825,24.852126 c -0.084,-0.073 -0.156,-0.062 -0.219,-0.103999 -0.063,-0.042 -0.5729996,-0.489001 -0.6459996,-0.552 -0.072,-0.062 -0.197,-0.094 -0.197,-0.094 a 1.97,1.97 0 0 1 -0.365,-0.396 c -0.083,-0.136 -0.489,-0.541 -0.489,-0.541 -0.062,-0.167 -0.239,-0.323 -0.344,-0.479 -0.06,-0.09 -0.199,-0.286 -0.338,-0.501999 0.2,-0.149001 0.859,-0.642 1.088,-0.800001 0.271,-0.187999 1.1979996,-0.823 1.8639996,-1.103999 0.338,-0.143001 1.035,-0.438 1.846,-0.74 0.086,0.178001 0.225,0.460001 0.301,0.584 0.051,0.084 0.156,0.177 0.5,0.864 0.315,0.631 1.042,1.876001 1.441,2.495001 -0.662,0.231999 -2.559,0.975 -3.899,1.828 a 88.237,88.237 0 0 1 -0.543,-0.459003 z M 6.1718254,18.612127 c -0.24,-0.479 -0.86,-1.641 -1.315,-2.577999 0.336,-0.188001 0.708,-0.384 0.951,-0.495001 0.5,-0.228999 1.906,-0.842999 2.427,-0.989999 a 19.39,19.39 0 0 0 1.292,-0.417 c 0.145,-0.051 0.415,-0.159 0.7109996,-0.271 0.302,0.839 1.211,3.351999 2.125,4.825 -0.847,0.364 -1.937,0.966999 -2.5449996,1.311 a 45.98,45.98 0 0 0 -2.205,1.387 c -0.377,-0.73 -1.225,-2.339 -1.441,-2.772001 z m 2.32,-10.3629999 c 0.077,0.358 0.247,1.109 0.478,1.8970009 0.255,0.875 0.746,2.274 1.025,3.048 -0.675,0.212 -3.16,1.06 -5.351,2.383 -0.408,-0.934 -0.716,-2.053001 -0.773,-2.235 a 11.277,11.277 0 0 1 -0.188,-0.844 l -0.229,-1.315 c 0.213,-0.223001 1.082,-1.130001 1.164,-1.178 0.094,-0.054 0.148,-0.031 0.328,-0.2650009 0,0 0.891,-0.492 1.547,-0.727 0.604,-0.216 1.422,-0.511 1.999,-0.764 z m 9.2609996,5.2710009 c 0.552,0.855 1.27,2.31 1.738,3.592 -0.688,0.02 -1.466,0.085 -2.537,0.260998 -1.534,0.251001 -3.292,0.806001 -4.229,1.167001 -0.267,-0.547 -0.73,-1.483 -1.01,-2.073 -0.348,-0.732 -0.801,-1.75 -1.106,-2.74 0.248,-0.087 0.485,-0.163 0.658,-0.197 0.469,-0.094 2.125,-0.438 2.448,-0.479 0.282,-0.036 2.494,-0.449 3.38,-0.593 0.232,0.387 0.459,0.755 0.658,1.062001 z m 0.607,9.258998 c -0.749,0.109001 -2.177,0.411001 -2.834,0.575 -0.252,-0.407 -0.638,-1.041 -0.843,-1.377 -0.261,-0.428 -0.688,-1.001 -0.979,-1.521 a 33.815,33.815 0 0 1 -0.551,-1.028 c 0.709,-0.257 1.478,-0.507 2.155,-0.658999 1.455,-0.327001 3.837,-0.807 4.432,-0.909 0.025,0.083 0.048,0.164001 0.069,0.243 0.385,1.437999 0.519,1.757 0.569,2.459 0.021,0.292 0.021,1.08 0.009,2.004999 -0.792,0.052 -1.539,0.141 -2.027,0.212 z m 6.583,-4.511 c -0.375,-0.146 -2.062,-0.780999 -2.375,-0.905999 -0.288,-0.115 -0.896,-0.213 -1.774,-0.243 a 8.664,8.664 0 0 0 -0.147,-0.521001 c -0.378,-1.178999 -1.095,-2.858999 -1.915,-4.306999 0.901,-0.072 1.948,-0.141 2.254,-0.116 0.511,0.042 1.125,0.136 1.614,0.261 0.439,0.112 1.337,0.574999 1.646,0.737 0.013,0.085 0.025,0.172 0.036,0.263 0.133,1.125 0.422,2.483999 0.57,3.179999 0.083,0.39 0.229,1.241 0.266,1.705 a 1.397,1.397 0 0 1 -0.175,-0.053 z m -2.468,-6.293998 c -0.887,-0.164 -2.331,-0.310001 -4.049,-0.208 -0.863,-1.477002 -1.918,-3.3700009 -2.313,-4.0510009 -0.253,-0.435 -0.523,-0.856 -0.731,-1.182 0.311,-0.043 1.495,-0.2 2.002,-0.2 0.532,0 2.436,0.025 3.004,0.042 0.092,0.134 0.203,0.301 0.262,0.364 0.094,0.102 0.625,0.75 0.688,0.836 0.063,0.086 0.938,1.258 1.148,1.601999 0.21,0.344002 1.123,1.8339999 1.32,2.3749999 0.021,0.06 0.182,0.407 0.32,0.996001 -0.32,-0.157 -0.957,-0.446 -1.651,-0.573999 z m -11.873,-4.5080009 c 0.186,-0.05 2.87,-0.594 3.567,-0.707 l 0.12,0.287 c 0.234,0.569 0.92,2.041001 1.305,2.776001 0.225,0.4299999 0.684,1.2469999 1.166,2.0689999 -0.421,0.041 -0.892,0.093 -1.409,0.162 -1.184,0.158 -3.241,0.537 -3.418,0.589 -0.141,0.042 -1.05,0.3 -1.518,0.43 -0.274,-0.917 -0.5749996,-1.782 -0.7009996,-2.253 -0.125,-0.460001 -0.573,-1.9640009 -0.788,-2.7600009 a 23,23 0 0 1 1.6759996,-0.593 z M 6.3598254,21.654126 c -0.229,-0.354 -1.312,-2.114 -1.864,-3.386 a 24.675,24.675 0 0 1 -0.606,-1.535999 c -0.271,0.294 -0.679,0.745999 -0.717,0.806999 -0.052,0.083 -0.656,0.656 -0.729,0.698001 a 0.08,0.08 0 0 1 -0.061,0.007 c 0.189,0.812001 0.789,2.788001 2.885,4.724001 a 519.087,519.087 0 0 0 1.355,-0.915 58.046,58.046 0 0 1 -0.263,-0.399002 z m 18.4269996,-3 a 36.235,36.235 0 0 0 -2.322,-0.771 c -0.442,-0.126 -1.025,-0.146 -1.534,-0.129 0.145,0.808 0.172,1.519 0.184,1.955 0.017,0.635 0.084,1.538 0.084,1.84 0,0.269 -0.08,0.524 -0.098,0.981 0.361,-0.013 0.718,-0.015 1.052,-10e-4 0.287,0.012 0.543,0.036 0.77,0.068 a 14.208,14.208 0 0 0 2.188,-3.532 l 0.01,-0.306 a 2.393,2.393 0 0 1 -0.334,-0.105 z m -8.19,7.86 a 5.68,5.68 0 0 1 -0.164,-0.642 c -0.053,-0.323 -0.271,-0.75 -0.344,-0.905999 -0.062,-0.13 -0.39,-0.594001 -0.708,-1.058 -0.462,0.154 -1.587,0.597 -2.157,0.890999 -0.538,0.278 -1.247,0.851 -1.433,1.003 a 0.73,0.73 0 0 0 0.037,0.028 c 0.156,0.115 0.344,0.198 0.417,0.271 0.072,0.072 0.229,0.197 0.229,0.197 0,0 0.115,0.011 0.178,0.084 0.035,0.041 0.123,0.131 0.227,0.225 0.587,0.05 1.225,0.072 1.935,0.075 a 8.94,8.94 0 0 0 1.783,-0.168 z m 4.499,-3.613 c -0.003,0.34 -0.012,0.915 -0.021,1.477 0.607,-0.478999 1.113,-0.969999 1.51,-1.399 a 43.49,43.49 0 0 0 -0.401,-0.043 9.007,9.007 0 0 0 -1.088,-0.035 z"
         fill="#cccccc"
         id="path7" />
      <path
         d="m 7.8178254,4.3931271 c 0,0 0.562,1.604 0.542,1.875 l 0.604,-0.01 c 0,0 0,-0.312 0.041,-0.365 0.042,-0.052 0.5,-0.427 0.5,-0.51 0,-0.083 0.021,-0.552 -0.146,-0.885 -0.166,-0.334 -0.367,-0.571 -1.03,-0.271 -0.324,0.146 -0.511,0.166 -0.511,0.166 z"
         fill="#8c8c8c"
         id="path8" />
      <path
         d="m 13.519825,5.3571271 c -0.083,-0.083 -0.134,-0.233 -0.134,-0.233 -0.134,-0.151 -1.02,-1.037 -1.254,-1.222 a 8.546,8.546 0 0 1 -0.552,-0.48 c -0.529,0.073 -1.8319996,0.282 -2.8659996,0.68 0.366,-0.06 0.517,0.139 0.646,0.396 0.167,0.333 0.145,0.801 0.145,0.885 0,0.084 -0.458,0.458 -0.5,0.51 -0.041,0.053 -0.041,0.365 -0.041,0.365 l -0.604,0.01 c 0.018,-0.229 -0.385,-1.42 -0.507,-1.774 -0.05,0.025 -0.101,0.05 -0.15,0.076 -0.079,0.568 0.053,0.943 0.146,1.229 0.092,0.283 0.559,1.144 0.745,1.485 0.294,-0.122 0.513,-0.232 0.633,-0.271 0.195,-0.062 1.3199996,-0.422 1.9609996,-0.586 0.521,-0.134 1.485,-0.411 2.566,-0.615 -0.111,-0.241 -0.201,-0.422 -0.234,-0.455 z"
         fill="#cccccc"
         id="path9" />
      <path
         d="m 11.588825,4.7271271 c 0.135,-0.042 0.844,-0.125 0.927,-0.073 0.056,0.035 0.341,0.084 0.523,0.112 -0.318,-0.319 -0.754,-0.743 -0.907,-0.864 a 8.03,8.03 0 0 1 -0.401,-0.341 c -1.079,0.024 -1.9229996,0.593 -1.9229996,0.593 0.083,0.031 0.7599996,0.427 0.7599996,0.427 0.573,0.365 0.886,0.187 1.021,0.146 z m -4.8339996,0.083 -0.458,-0.167 c 0,0 -0.156,0.49 -0.156,0.688 0,0.198 0.125,0.688 0.114,0.927 -0.01,0.24 -0.094,0.74 -0.281,1.104 l 0.062,0.031 c 0,0 0.396,-0.219 0.542,-0.229 0.146,-0.01 0.573,-0.01 0.614,-0.01 0.042,0 0.24,-0.219 0.24,-0.261 0,-0.042 -0.062,-0.573 -0.178,-0.698 -0.113,-0.125 -0.457,-0.385 -0.477,-0.447 -0.022,-0.063 -0.063,-0.542 -0.022,-0.938 z"
         fill="#8c8c8c"
         id="path10" />
      <path
         d="m 7.4848254,6.0601271 a 2.324,2.324 0 0 1 -0.132,-1.303 c -0.205,0.114 -0.411,0.235 -0.614,0.362 -0.005,0.303 0.022,0.582 0.038,0.629 0.02,0.062 0.364,0.322 0.478,0.447 0.115,0.125 0.178,0.656 0.178,0.698 0,0.042 -0.198,0.261 -0.24,0.261 -0.041,0 -0.469,0 -0.614,0.01 -0.145,0.01 -0.542,0.229 -0.542,0.229 l -0.063,-0.031 c 0.188,-0.364 0.272,-0.864 0.281,-1.104 0.009,-0.185 -0.064,-0.52 -0.098,-0.753 -0.63,0.445 -1.202,0.946 -1.611,1.479 -0.416,0.54 -0.898,1.276 -1.324,2.147001 0.019,0.298998 0.043,0.619999 0.076,0.9549989 0.724,-0.6819999 1.649,-1.2669999 2.179,-1.5729999 0.633,-0.367 1.867,-0.812 2.484,-1 0.1,-0.03 0.195,-0.062 0.286,-0.096 -0.243,-0.369 -0.568,-0.885 -0.762,-1.357 z m -4.924,6.8280009 c -0.095,-0.19 -0.153,-0.328 -0.191,-0.887001 -0.046,0.021 -0.087,0.042 -0.127,0.062 a 9.23,9.23 0 0 0 -0.068,0.442 c -0.017,0.135 -0.032,0.271 -0.046,0.407 z m 0.819,2.192999 c -0.084,-0.388 -0.336,-1.061999 -0.538,-1.558 0.006,0.198001 0.02,0.634001 0.028,0.714001 0.01,0.103999 0.344,0.667 0.344,0.667 l -0.021,0.083 c -0.052,-0.041 -0.666,-0.125 -0.916,-0.135 a 0.894,0.894 0 0 1 -0.223,-0.041 c 0.014,1.352998 0.155,2.520998 0.236,2.989999 a 0.102,0.102 0 0 1 0.018,-0.033 c 0.041,-0.052 0.291,-0.437999 0.364,-0.489 0.073,-0.052 0.25,-0.292 0.354,-0.406 0.068,-0.075 0.304,-0.337 0.687,-0.649999 a 12.543,12.543 0 0 1 -0.333,-1.142001 z m 5.792,9.689999 a 1.195,1.195 0 0 1 -0.052,-0.097 c -0.031,-0.062 -0.573,-0.438 -1.011,-0.822 0,0 -0.573,-0.344 -0.761,-0.719 l -0.306,-0.454 c -0.431,0.304 -1.099,0.479 -1.48,0.552 0.145,0.125 0.295,0.249 0.452,0.373 0.585,0.458 1.12,0.852 1.632,1.189 0.34,-0.007 0.934,-0.018 1.526,-0.022 z m 9.8959996,0.696001 c 0,0 -0.104,-1.841999 1.304,-1.983999 l 0.01,-0.555 c -0.307,0.017 -0.562,0.034 -0.709,0.038 -0.406,0.011 -1.531,0.25 -1.531,0.25 0,0 -1.396,0.406 -1.625,0.457999 -0.165,0.038 -0.438,0.07 -0.711,0.124 0.249,0.391999 0.68,1.079999 0.742,1.355 0.037,0.162 0.107,0.361999 0.18,0.542999 l 0.991,-0.027 0.017,0.545001 a 10.31,10.31 0 0 0 1.993,-0.912 2.065,2.065 0 0 0 -0.661,0.165 z m 6.125,-9.17 c 0.047,0.747 0.198,1.26 0.269,1.771 l 0.007,0.049 c 0.031,-0.095 0.061,-0.189 0.089,-0.283 0.121,-0.41 0.186,-0.891 0.209,-1.396 a 0.681,0.681 0 0 1 -0.574,-0.141 z m 0.491,-1.896999 a 13.982,13.982 0 0 0 -0.137,-0.929 9.734,9.734 0 0 1 -0.795,-0.136 c 0.019,0.067 0.036,0.135 0.053,0.201 0.131,0.524 0.223,0.947 0.283,1.368 0.103,-0.141 0.368,-0.475 0.596,-0.504 z m -2.834,-5.9110009 c 0,0 0.298,0.044 0.673,0.15 a 7.82,7.82 0 0 0 -0.497,-0.753 c -0.301,-0.392 -0.753,-0.829 -1.272,-1.255 -0.129,-0.016 -0.235,-0.032 -0.304,-0.042 0.138,0.18 0.264,0.373 0.348,0.541 0.164,0.328 0.484,0.805 0.773,1.289 0.088,0.146 0.243,0.422 0.422,0.743001 z m 2.512,4.1580009 a 10.251,10.251 0 0 0 -0.334,-0.929 c -0.119,0.148998 -0.393,0.221 -0.728,0.195 0.089,0.25 0.186,0.532999 0.278,0.827 0.256,0.086 0.632,0.202999 0.881,0.292999 a 6.749,6.749 0 0 0 -0.097,-0.385999 z m -5.807,-7.1960009 c -0.09,-0.108 -0.137,-0.264 -0.092,-0.343 a 8.232,8.232 0 0 0 -0.635,-0.298 0.531,0.531 0 0 1 -0.067,0.263 c -0.07,0.106 -0.266,0.159 -0.266,0.159 l 0.159,0.23 -2.69,-0.018 c 0.054,-0.159 0.867,-1.098 0.974,-1.186 0.06,-0.049 0.311,-0.093 0.543,-0.101 -0.624,-0.282 -1.375,-0.511 -2.934,-0.644 0,0 -0.719,-0.111 -1.704,-0.135 0.477,0.453 0.385,0.438 0.477,0.557 0.117,0.15 0.468,0.435 0.502,0.518 0.033,0.084 0.066,0.185 0.066,0.185 0.251,0.101 0.385,0.251 0.519,0.401 0.134,0.15 0.084,0.184 0.084,0.184 0.123,0.133 0.236,0.278 0.339,0.426 1.428,-0.131 3.741,0.051 4.554,0.138 0.146,0.016 0.333,0.039 0.543,0.067 a 12.471,12.471 0 0 1 -0.372,-0.403 z"
         fill="#cccccc"
         id="path11" />
      <path
         d="m 3.7138254,11.154127 c -0.016,0.093 -0.021,0.385 0.062,0.562 0.083,0.177 0.188,0.396001 0.219,0.552 0.031,0.155999 0.156,0.521 0.208,0.698 0.052,0.177 0.49,0.824 0.876,0.99 0.386,0.167 0.927,0.146001 1.438,-0.167 0.511,-0.313 0.636,-0.448 1.146,-1.406 0,0 0.667,0.188 0.928,0.115 0.26,-0.073 0.385,-0.521 0.312,-0.625 -0.073,-0.103999 -0.979,-1.052 -1.094,-1.25 0,0 0.385,-0.364999 0.447,-0.438 0.062,-0.073 0.399,-0.7049999 0.146,-1.0210009 -0.125,-0.155999 -0.615,-0.134999 -1.053,-0.114999 -0.437,0.021 -0.927,0.042 -1.635,0.511 -0.709,0.4689999 -1.385,1.0419999 -1.573,1.1669999 -0.188,0.125 -0.386,0.166001 -0.427,0.427 z m -0.521,3.833001 0.021,-0.083 c 0,0 -0.334,-0.562 -0.344,-0.667 -0.009,-0.08 -0.022,-0.516 -0.028,-0.714001 a 11.834,11.834 0 0 0 -0.232,-0.535999 l -0.049,-0.099 -0.462,0.026 c 0,0 -0.062,0.26 -0.104,0.323001 -0.042,0.062 -0.5,0.646001 -0.542,0.718999 -0.042,0.073 -0.104,0.302 -0.052,0.396001 0.052,0.094 0.156,0.228999 0.208,0.271001 0.052,0.042 0.417,0.218999 0.667,0.228999 0.25,0.01 0.865,0.094 0.917,0.134999 z m 2.178,5.728999 c 0,0 -0.428,-0.688 -0.729,-1.885999 0,0 -0.396,-0.635001 -0.469,-0.719001 0,0 -0.146,0.25 -0.198,0.312001 -0.052,0.062 -0.489,0.583999 -0.5,0.833999 -0.01,0.25 0.031,0.437999 0.073,0.562 0.042,0.124 0.511,0.458 0.573,0.489 0.062,0.031 0.916,0.346001 1.25,0.408 z m 5.8529996,-1.781 c 0,0 -1.01,0.594001 -1.197,0.707999 -0.1879996,0.115 -1.7189996,0.979 -1.7189996,0.979 0,0 -0.365,-0.823 -0.74,-0.989 -0.375,-0.167 -0.875,-0.156 -1.114,-0.678 -0.239,-0.521 -0.583,-1.156 -0.448,-1.719 0.136,-0.562 0.396,-0.646 0.396,-0.938 0,-0.292 -0.136,-0.677 0.333,-0.979 0.469,-0.301999 1.406,-0.375 2.417,-0.073 1.0099996,0.302 1.8539996,0.708 1.8639996,1.135001 0.01,0.427 -0.062,0.646 -0.146,0.812 -0.084,0.167 -0.365,0.978999 -0.354,1.094 0.011,0.115 0.156,0.312 0.261,0.375 0.103,0.065 0.406,0.179 0.447,0.273 z m 0.678,1.313 c 0,0 -1.9899996,0.801999 -2.4279996,1.228999 -0.438,0.427 -0.447,0.624 -0.094,1.104 0.354,0.479 0.8439996,0.709 0.9589996,0.834 0.114,0.125 0.875,0.385 0.927,0.416 0.052,0.031 0.75,0.031 0.75,0.031 0,0 -0.198,-0.5 -0.167,-1.396 0.031,-0.896 0.053,-2.218 0.053,-2.217999 z m -1.381,4.536 c 0.04,0.013 0.084,0.027 0.131,0.068 l 0.115,0.098 0.104,-0.14 a 3.398,3.398 0 0 0 -0.35,-0.026 z m -0.277,0.854999 c -0.096,-0.04 -0.2699996,-0.119 -0.3209996,-0.193 -0.073,-0.104 -0.354,-0.334 -0.469,-0.406 -0.1,-0.063 -0.171,-0.079 -0.281,-0.269 -0.904,0.006 -1.812,0.028 -1.812,0.028 0.417,0.323 1.364,0.906 1.812,1.053 0.448,0.146001 0.8749996,-0.011 0.9689996,-0.094 a 1.33,1.33 0 0 0 0.102,-0.119 z"
         fill="#8c8c8c"
         id="path13" />
      <path
         d="m 10.307825,25.665126 -0.064,-0.025 c -0.048,0.06 -0.085,0.104 -0.103,0.119 -0.054,0.048 -0.2189996,0.119 -0.4349996,0.145 0.163,0.065 0.3269996,0.127 0.4929996,0.183 0.091,-0.094 0.192,-0.187999 0.306,-0.280999 a 0.7,0.7 0 0 1 -0.197,-0.141001 z"
         fill="#cccccc"
         id="path14" />
      <path
         d="m 16.432825,25.873126 a 1.571,1.571 0 0 0 -0.038,-0.166 l -1.476,0.043 c -0.05,-0.140999 -0.402,-0.282 -0.442,-0.342 -0.041,-0.061 -0.453,-0.312 -0.514,-0.321999 a 2.2,2.2 0 0 0 -0.675,0.02 c -0.213,0.052 -1.043,0.648 -1.296,0.832001 0.106,0.063 0.204,0.116 0.253,0.164999 0.072,0.072 0.229,0.197 0.229,0.197 0,0 0.115,0.011 0.178,0.084 0.035,0.041 0.123,0.131 0.227,0.225001 0.587,0.05 1.225,0.072 1.935,0.075 a 9.092,9.092 0 0 0 1.784,-0.169 5.832,5.832 0 0 1 -0.165,-0.642 z m 1.285,-0.203 -0.991,0.027 c 0.071,0.178 0.144,0.338 0.185,0.425999 0.027,0.057 0.065,0.186 0.105,0.335001 l 0.722,-0.094 z m 2.654,-2.187 c -1.408,0.143 -1.304,1.984 -1.304,1.984 0.416,-0.199 1.022,-0.189 1.254,-0.178 0.019,-0.547 0.037,-1.181 0.05,-1.806 z m -0.177,-1.276 c 0,0 0.054,-0.954999 0.071,-1.097 0.017,-0.142 0.124,-0.886 -0.407,-1.629 0,0 -0.018,-0.69 -0.054,-0.814 -0.035,-0.124 -0.159,-0.425 -0.371,-0.389 -0.213,0.035 -0.514,0.212 -0.602,0.212 -0.089,0 -0.69,-0.018 -0.85,-0.088 -0.16,-0.071 -0.566,0.141 -0.407,0.531 0.159,0.39 0.495,1.062 0.566,1.274 0.07,0.213 0.07,0.584 0.442,1.08 0.371,0.495 0.885,1.026 1.257,0.991 0.195,-0.019 0.355,-0.071 0.355,-0.071 z m 1.239,0.124 c 0,0 0.478,-1.414 0.478,-2.336 0,-0.407 -0.124,-0.937999 -0.283,-1.097999 -0.159,-0.16 -0.442,-0.442 -0.549,-0.673 0,0 1.559,-0.229 2.727,0.85 l -0.213,0.39 c 0,0 0.089,0.549 0.036,0.743 -0.054,0.195 -0.248,0.514 -0.302,0.638 -0.053,0.124 -0.318,0.867 -0.689,1.079 -0.373,0.212 -0.603,0.301 -1.205,0.406999 z m -2.637,-5.593 c 0,0 -0.602,-1.840999 -0.69,-2.070999 -0.088,-0.23 -1.114,-2 -1.114,-2 0,0 -1.311,0.372 -2.195,1.274 -0.884,0.902 -0.761,1.788 -0.495,2.123999 0.265,0.336001 1.539,1.026 3.451,1.115001 0.564,0.027 1.043,-0.442 1.043,-0.442001 z m -6.072,-1.009 c -0.265,-0.479 -0.938,-0.584999 -1.15,-0.461 -0.131,0.076 -0.147,0.374 -0.141,0.592 0.095,0.212 0.188,0.41 0.273,0.592001 0.296,0.201999 0.551,0.3 0.646,0.268999 0.108,-0.037 0.638,-0.514 0.372,-0.992 z m 10.408,1.274 c 0.159,0 0.531,-0.496 0.531,-0.496 h 0.814 c 0,0 -0.407,-0.707999 -0.425,-0.814 -0.019,-0.105 -0.054,-0.743 -0.054,-0.901999 0,-0.159 -0.177,-0.814 -0.354,-1.204001 -0.178,-0.388999 -0.938,-0.725999 -1.381,-0.813 -0.442,-0.089 -1.982,-0.178 -2.195,-0.159 a 0.85,0.85 0 0 0 -0.478,0.177 c -0.106,0.088 -0.124,0.495 -0.106,0.637 0.018,0.142 0.566,0.991 0.584,1.062 0.013,0.048 0.113,0.631 0.178,1.002 0.066,0.169 0.128,0.334 0.187,0.493 0.169,0.205 0.331,0.304 0.415,0.346 0.106,0.053 1.505,0.619 1.61,0.654 0.108,0.035 0.515,0.017 0.674,0.017 z m 2.797,-0.637 c 0.053,-0.07 0.142,-0.425 0.142,-0.602 0,-0.177 0.159,-0.813999 0.159,-0.973999 0,-0.16 -0.177,-0.336 -0.478,-0.39 -0.242,-0.042 -0.552,0.349 -0.665,0.503999 0.052,0.356 0.081,0.712 0.092,1.124 0.002,0.093 0.007,0.183 0.013,0.269 0.308,0.253 0.689,0.133 0.737,0.069 z m -3.398,-4.601999 0.513,-0.354 c 0,0 -0.442,-1.115 -0.726,-1.5049999 -0.283,-0.389 -0.513,-1.292 -1.062,-1.894 -0.549,-0.602 -1.239,-1.664 -4.69,-1.274 0,0 -0.071,0.637 0.177,0.956 0.248,0.318 0.566,0.602 0.566,0.708 0,0.094 -0.042,1.069 0.247,1.8559999 0.151,0.267001 0.306,0.536001 0.459,0.801001 0.178,0.005 0.669,0.009 1.011,-0.091 0.425,-0.123999 1.894,-0.372 3.505,0.796999 z m 2.549,-0.141 c 0.07,-0.23 -0.248,-0.849999 -0.248,-0.849999 0,0 0.442,-0.354 0.142,-1.1870009 -0.3,-0.833 -2.124,-1.098 -2.124,-1.098 l 0.143,0.674001 c 0.409,0.737999 0.937,1.7229989 1.023,1.9679999 0.053,0.148999 0.16,0.432999 0.284,0.782999 0.401,0.031 0.713,-0.077 0.78,-0.29 z m -12.056,-8.0659999 c 0.27,0.273 0.218,0.279 0.295,0.379 0.117,0.15 0.468,0.435 0.502,0.518 0.033,0.084 0.066,0.185 0.066,0.185 0.251,0.101 0.385,0.251 0.519,0.401 0.134,0.15 0.084,0.184 0.084,0.184 0.123,0.133 0.236,0.278 0.339,0.426 0.098,-0.009 0.2,-0.016 0.306,-0.022 0.186,-0.099 0.598,-0.322 0.652,-0.376 0.071,-0.071 0.159,0.088 0.124,-0.85 0,-0.002 -1.354,-0.768 -2.887,-0.845 z m 2.815,7.0560009 c -0.123,-0.425001 -0.813,-1.2920009 -1.168,-1.8580009 -0.304,-0.485 -0.581,-1.648 -0.653,-1.969 -0.063,0.011 -0.135,0.023 -0.212,0.038 -0.405,0.845 -1.268,1.398 -1.595,2.002 -0.337,0.619001 -0.354,1.4859999 -0.354,1.4859999 0.407,0.62 1.452,0.442 1.877,0.266001 0.425,-0.176 0.566,-0.159001 0.708,-0.035 0.142,0.124 0.123,0.548999 0.123,0.673 0,0.123999 0.283,0.353999 0.283,0.353999 0,0 0.248,0.071 0.531,0.106 0.376,0.047 0.562,0.195 0.646,0.295 l 0.116,-0.014 c -0.051,-0.256 -0.2,-0.995 -0.302,-1.343999 z m 0.124,-5.1680009 2.69,0.018 -0.159,-0.23 c 0,0 0.195,-0.053 0.266,-0.159 0.071,-0.106 0.159,-0.495 -0.159,-0.584 -0.318,-0.088 -0.584,-0.142 -0.708,-0.266 -0.124,-0.124 -0.85,-0.053 -0.956,0.036 -0.106,0.089 -0.92,1.026 -0.974,1.185 z"
         fill="#8c8c8c"
         id="path15" />
    </g>
    <g
       id="g1"
       transform="matrix(1.2404013,0,0,1.7484801,-3.1055563,-37.821815)">
      <path
         d="M 0.41706972,28.631842 H 26.91707 v 5.958 H 0.41706972 Z"
         id="path4" />
      <path
         fill="#ffffff"
         d="m 7.0440697,33.589842 0.68,-3.854 H 10.86807 l -0.159,0.899 H 8.8290697 l -0.097,0.551 H 10.32207 l -0.158,0.899 H 8.5730697 l -0.106,0.606 H 10.42107 l -0.158,0.899 z m 6.3260003,-2.736 c 0.002,-0.134 -0.054,-0.214 -0.137,-0.262 a 0.612,0.612 0 0 0 -0.313,-0.07 c -0.279,0 -0.416,0.081 -0.44,0.22 -0.103,0.578 2.179,0.22 1.931,1.622 -0.157,0.895 -0.979,1.328 -2.039,1.328 -1.018,0 -1.577,-0.595 -1.481,-1.29 h 1.211 c 0.002,0.139 0.06,0.24 0.155,0.305 a 0.61,0.61 0 0 0 0.342,0.097 c 0.315,0 0.543,-0.102 0.575,-0.284 0.103,-0.583 -2.186,-0.182 -1.926,-1.654 0.145,-0.818 0.924,-1.231 1.888,-1.231 1.071,0 1.463,0.547 1.435,1.221 h -1.201 z m 3.214,1.393 c 0.59,0 0.646,0.166 0.557,0.669 -0.061,0.343 -0.071,0.589 -0.055,0.675 h 1.28 l 0.021,-0.118 c -0.15,0 -0.104,-0.171 -0.016,-0.675 0.137,-0.776 -0.092,-0.872 -0.473,-1.022 0.472,-0.123 0.735,-0.498 0.814,-0.942 0.132,-0.749 -0.229,-1.097 -1.516,-1.097 h -1.821 l -0.68,3.854 h 1.265 l 0.236,-1.344 z m 2.362,1.343 0.679,-3.854 h 1.264 l -0.68,3.854 z"
         id="path5" />
      <path
         d="m 16.48307,30.634842 h 0.59 c 0.294,0 0.486,0.128 0.438,0.401 -0.047,0.268 -0.272,0.364 -0.664,0.364 h -0.498 z"
         id="path12" />
    </g>
  </g>
</svg>
