<?xml version="1.0" encoding="utf-8"?>
<svg version="1.1" id="Layer_1" xmlns="http://www.w3.org/2000/svg" x="0px" y="0px"
	 viewBox="0 0 32 32" style="enable-background:new 0 0 32 32;" xml:space="preserve">
<style type="text/css">
	.st42{fill:#888;}
</style>
<path class="st42" d="M23.4,6.7H8.6c-1.1,0-2,0.9-2,2v14.6c0,1.1,0.9,2,2,2h14.7c1.1,0,2-0.9,2-2V8.7C25.4,7.6,24.5,6.7,23.4,6.7z
	 M11.3,22.7c-1.1,0-2-0.9-2-2c0-1.1,0.9-2,2-2s2,0.9,2,2C13.3,21.8,12.4,22.7,11.3,22.7z M17.9,22.7h-1.4c-0.3,0-0.5-0.2-0.5-0.4
	c-0.2-3.3-2.9-6-6.2-6.2c-0.3,0-0.4-0.2-0.4-0.5v-1.4c0-0.3,0.2-0.5,0.5-0.5c4.6,0.2,8.3,3.9,8.6,8.5C18.4,22.4,18.2,22.7,17.9,22.7
	z M22.2,22.7h-1.4c-0.3,0-0.5-0.2-0.5-0.5C20.1,16.5,15.5,12,9.8,11.7c-0.3,0-0.5-0.2-0.5-0.5V9.8c0-0.3,0.2-0.5,0.5-0.5
	c7,0.3,12.6,5.9,12.9,12.8C22.7,22.4,22.5,22.7,22.2,22.7L22.2,22.7z"/>
</svg>
