<?xml version="1.0" encoding="utf-8"?>
<svg version="1.1" id="Layer_1" xmlns="http://www.w3.org/2000/svg" x="0px" y="0px"
	 viewBox="0 0 32 32" style="enable-background:new 0 0 32 32;" xml:space="preserve">
<style type="text/css">
	.st42{fill:#888;}
</style>
<path class="st42" d="M23.9,9.6v12.8c0,0.4-0.1,0.8-0.4,1.2c-0.3,0.3-0.6,0.6-1.1,0.7l-5.7,1.6c-0.1,0-0.2,0-0.3,0.1h-0.2
	c-0.2,0-0.4,0-0.6-0.1s-0.4-0.1-0.6-0.2l-3.8-2.1c-0.1-0.1-0.2-0.2-0.3-0.3s-0.1-0.3-0.1-0.4c0-0.2,0.1-0.4,0.3-0.6
	c0.2-0.2,0.4-0.2,0.6-0.2h4.9V10.1L13,11.4c-0.3,0.1-0.5,0.3-0.7,0.6c-0.2,0.3-0.3,0.5-0.3,0.9v6.7c0,0.3-0.1,0.5-0.2,0.8
	c-0.1,0.2-0.3,0.4-0.6,0.5l-1.7,0.9C9.4,21.9,9.2,22,9.1,22c-0.3,0-0.5-0.1-0.7-0.3c-0.2-0.2-0.3-0.4-0.3-0.7v-9.5
	c0-0.3,0.1-0.7,0.3-1c0.2-0.3,0.4-0.6,0.7-0.8l6.2-3.5c0.1-0.1,0.3-0.1,0.4-0.2S16,6,16.1,6c0.1,0,0.2,0,0.3,0c0.1,0,0.2,0,0.3,0.1
	l5.7,1.6c0.2,0.1,0.4,0.2,0.6,0.3s0.3,0.3,0.5,0.4c0.1,0.2,0.2,0.4,0.3,0.6C23.9,9.2,23.9,9.4,23.9,9.6L23.9,9.6z M22.6,22.4V9.6
	c0-0.2,0-0.3-0.1-0.4C22.4,9.1,22.3,9,22.1,9l-2.8-0.8c-0.2-0.1-0.4-0.1-0.7-0.2c-0.2-0.1-0.4-0.1-0.6-0.2v16.4l4.1-1.2
	c0.1,0,0.3-0.1,0.4-0.2C22.6,22.7,22.6,22.5,22.6,22.4z"/>
</svg>
