<?xml version="1.0" encoding="UTF-8" standalone="no"?>
<svg
   viewBox="0 0 32 32"
   class="icon"
   version="1.1"
   id="svg14"
   xmlns="http://www.w3.org/2000/svg">
  <defs
     id="defs14" />
  <g
     id="g28"
     transform="matrix(0.02392515,0,0,0.02612221,2.3467986,2.5814579)">
    <path
       d="m 567.94654,498.23021 m -449.21073,0 a 449.21075,449.21075 0 1 0 898.42149,0 449.21075,449.21075 0 1 0 -898.42149,0 z"
       fill="#4766ac"
       id="path15" />
    <path
       d="m 974.66729,689.04358 c -71.80047,152.63623 -227.00272,258.39736 -406.72075,258.39736 -247.92847,0 -449.21073,-201.28226 -449.21073,-449.21073 a 446.96998,446.96998 0 0 1 79.36602,-254.89167 447.06635,447.06635 0 0 0 -42.47792,190.81337 c 0,247.92847 201.28225,449.21073 449.21072,449.21073 153.29883,0 288.75596,-76.95662 369.83266,-194.31906 z"
       fill="#3f5a98"
       id="path16" />
    <path
       d="m 974.66729,689.04358 c -81.0767,117.36244 -216.53383,194.31906 -369.83266,194.31906 -247.92847,0 -449.21072,-201.28226 -449.21072,-449.21073 a 447.06635,447.06635 0 0 1 42.47792,-190.81337 452.52367,452.52367 0 0 1 36.37008,-45.94748 c -1.26495,4.81882 -2.4576,9.66174 -3.56593,14.5408 a 447.86146,447.86146 0 0 0 -26.4433,152.10616 c 0,247.91643 201.28226,449.21073 449.21073,449.21073 130.37327,0 247.85619,-55.66946 329.94485,-144.50447 a 442.84988,442.84988 0 0 1 -8.95097,20.2993 z"
       fill="#32539d"
       id="path17" />
    <path
       d="m 983.61826,668.74428 c -82.08866,88.83501 -199.57158,144.50447 -329.94485,144.50447 -247.92847,0 -449.21073,-201.2943 -449.21073,-449.21073 0,-53.38051 9.32443,-104.59256 26.4433,-152.10616 a 449.82513,449.82513 0 0 0 -11.15558,99.82193 c 0,247.92847 201.29431,449.21073 449.21073,449.21073 132.26466,0 251.25346,-57.28377 333.48667,-148.37158 a 446.47605,446.47605 0 0 1 -18.82954,56.15134 z"
       fill="#3a5aa3"
       id="path18" />
    <path
       d="M 299.29713,835.76471 C 232.86965,795.59981 208.19727,775.50532 170.82729,707.27078 A 436.94682,436.94682 0 0 1 117.08536,496.68819 c 0,-90.56979 27.4673,-174.77873 74.52311,-244.736 15.02268,-22.33525 51.80235,-45.91134 70.54758,-65.07821 -16.07078,21.87746 -50.00734,48.03162 -62.11464,72.76423 -50.16395,102.48433 -64.9216,226.93045 -32.63548,351.15972 a 530.93798,530.93798 0 0 0 31.56329,88.61816 c 31.62353,68.71643 46.4896,90.46137 100.32791,136.34862 z M 615.92998,452.36706 c 0,0 14.17938,-19.17892 47.09195,-1.59021 0,0 11.97478,-0.99991 22.56414,-13.23972 0,0 23.76885,0.46983 45.88725,37.41816 0,0 28.37082,3.59003 -6.87887,-35.03284 -35.2497,-38.62287 -63.95784,-24.50372 -61.83756,-40.74316 2.12029,-16.23943 26.87699,-12.01091 34.94852,-32.34635 8.07153,-20.32339 -18.28743,-41.79125 -27.69619,-54.97073 -9.4208,-13.17948 0,-25.03379 30.11765,-21.26306 30.11765,3.75868 37.81572,-8.49317 27.66005,-23.26287 -10.15567,-14.78174 20.56433,-14.62513 38.64696,-4.52969 18.07059,10.08339 77.4385,12.22776 86.84725,-0.75897 9.4208,-12.98673 33.88838,-58.5487 50.83859,-15.25157 16.93816,43.29713 62.90974,26.4192 72.6799,149.93769 9.75812,123.51849 23.96158,136.85459 6.31266,178.92292 -17.64894,42.05628 -46.17637,-19.2753 -59.70522,-30.7441 -13.54089,-11.4688 -17.95012,2.06005 -17.35981,29.41892 0.5903,27.34683 -3.81892,84.41374 -18.52838,68.53572 -14.70946,-15.89007 -43.87539,-119.32612 -69.74042,-96.58127 -25.86504,22.74485 -37.92414,86.28103 -73.22203,73.63162 -35.29788,-12.64941 -12.80602,-42.69477 -42.45383,-53.0432 -29.64781,-10.36047 -59.98231,-10.98692 -63.31934,-34.34616 -3.32499,-23.3713 -24.96151,-6.68612 -20.58843,-36.51464 4.36104,-29.81647 -7.9872,-38.21327 -2.26484,-43.64649 z"
       fill="#6c8cc7"
       id="path19" />
    <path
       d="m 932.77967,655.38409 c 0,0 -1.16856,12.14344 1.45769,10.95078 2.61422,-1.18061 2.80697,-1.48179 4.33695,-0.14456 1.52997,1.33722 1.54202,-3.61412 3.87915,-3.57798 2.33713,0.0241 -0.0843,2.98767 1.8432,3.08405 1.92753,0.0964 4.6863,-20.67276 8.54136,-31.39464 0,0 4.69836,-2.77082 0.72283,-11.08329 -3.97553,-8.31247 8.79435,-20.85346 2.52988,-23.02193 -6.26447,-2.16847 -3.37318,11.33628 -8.67388,16.1551 -5.30071,4.81883 -1.20471,10.11953 -1.56612,14.69742 -0.36141,4.57788 0.77101,5.87896 -6.30061,6.91501 -7.07163,1.03604 -9.48104,13.56499 -6.77045,17.42004 z M 375.68753,282.04574 c 0,0 -15.33591,-24.08207 14.57694,-38.20122 29.91285,-14.10711 8.43294,-23.62428 9.97496,-29.45506 1.52998,-5.81873 23.62429,-15.49252 37.58683,-8.43294 13.95049,7.05957 17.48028,6.90296 30.52725,6.13195 13.03491,-0.75896 42.51407,22.41958 16.57675,24.70852 -25.93732,2.30099 -18.41995,21.62447 -32.22588,27.61186 -13.80593,5.97534 -22.51596,5.67416 -41.33346,6.20423 -18.80546,0.54212 -6.68612,9.28828 -18.34767,15.42024 -11.66156,6.144 -12.11934,1.68659 -17.33572,-3.98758 z m 38.08075,107.19473 c 0,0 -31.11755,-15.73346 -35.96047,15.09497 -4.84292,30.82842 -4.46946,56.47661 13.32405,52.18785 17.7935,-4.3008 32.64753,-0.49392 50.32056,-26.38305 17.67304,-25.90118 22.94965,-32.03313 45.8993,-9.57742 22.94965,22.45572 32.41863,51.66984 53.39256,22.31116 20.97393,-29.37073 16.68518,-6.22833 37.05675,-24.88923 20.37158,-18.64884 39.79144,8.93892 72.00528,11.23991 32.21383,2.30099 7.36075,-2.91539 0.6144,-26.68424 0,0 11.80611,-7.28847 5.51755,-25.23858 -6.28857,-17.95012 11.42061,-6.27652 12.20367,-7.25233 0.78306,-0.98786 30.53929,-3.45751 16.88998,-21.69676 -13.64932,-18.25129 -22.38344,-3.69844 -33.98476,-34.43049 -11.60131,-30.74409 10.57732,-66.99369 -28.672,-63.70485 0,0 -35.18946,34.76781 -68.82484,19.17892 -33.64744,-15.57685 -71.41497,-7.68602 -85.79916,15.70936 -14.38418,23.39539 -11.50494,18.40791 -13.99868,41.8033 -2.49374,23.39539 -22.35934,36.37007 -46.75463,32.38249 -24.38325,-3.98757 6.02352,28.45516 6.77044,29.94899 z"
       fill="#6c8cc7"
       id="path20" />
    <path
       d="m 375.15746,488.78532 c 0,0 41.32141,-10.07134 58.35595,-30.20198 17.03454,-20.13063 20.7089,-13.93845 26.78061,-36.81581 0,0 14.46852,-14.23962 40.58655,38.02052 0,0 28.76837,36.18936 50.10371,-10.55323 0,0 7.90287,-14.14324 27.08179,19.17892 0,0 10.79417,10.30024 19.6608,-11.264 0,0 13.66137,6.95115 1.4336,37.39407 -12.22776,30.44292 9.17986,25.52772 22.29911,28.9009 13.1072,3.36112 -2.99972,25.09402 17.97421,44.18861 20.97393,19.10663 43.27303,6.27652 54.09129,9.89063 10.81826,3.62617 -65.22277,57.3681 -62.96997,92.95511 2.24075,35.57496 19.10663,46.62212 -26.96132,62.72903 -46.06796,16.10692 -13.85412,20.96189 -15.44433,29.91285 -1.60226,8.96301 -16.45628,29.94899 -40.02033,28.84066 -23.56405,-1.09628 -22.57619,17.31162 -36.44235,-10.17977 -13.86617,-27.49138 -42.87549,-44.45364 -16.42015,-82.81148 26.45535,-38.35783 -22.46776,-34.33412 -15.19134,-64.24696 7.28847,-29.91285 -26.91313,-4.07191 -46.56188,-16.34786 -19.64875,-12.26391 -71.83661,-7.05958 -68.84894,-71.4752 2.99972,-64.41563 -26.35896,-17.64894 10.49299,-58.11501 M 217.89515,233.99002 c 0,0 66.81299,-81.49835 83.59454,-83.30541 0,0 -11.68564,20.08245 -11.68564,23.3713 0,3.30089 -11.42062,7.62578 -2.49374,19.21506 0,0 4.16828,2.95152 5.22842,8.73411 1.06014,5.79464 3.02381,7.85468 16.86588,-4.32489 0,0 8.73412,0.84329 9.22805,10.55322 0.49393,9.72198 2.15642,7.07163 4.80677,9.72198 2.6624,2.65035 -9.61355,14.28781 -36.41825,15.86598 0,0 -17.05864,1.74682 -26.96132,17.45618 -9.89064,15.70937 -9.26419,17.2032 -8.24019,16.88998 1.024,-0.31323 45.32104,-38.64697 58.51257,-27.56367 0,0 4.55378,2.6624 -9.97497,11.93863 0,0 -5.96329,5.33685 9.97497,13.66137 15.9503,8.32452 -10.13158,17.74532 -9.75812,23.27492 0.37346,5.5296 10.93873,12.62531 2.07209,15.9503 -8.85459,3.33704 -32.9728,-1.62635 -35.79181,0.87944 -2.81901,2.51783 -1.10833,2.8672 -3.77073,5.03567 -2.6624,2.15642 -7.44508,2.50579 -4.57788,11.28809 2.8672,8.77026 4.39717,21.86541 -30.23812,13.02287 0,0 9.66174,-12.4687 4.56584,-13.79388 -5.10796,-1.33722 -7.93902,-0.55416 -15.55276,16.72132 0,0 -24.07002,31.45487 -42.71887,41.7551 0,0 -6.99934,14.75765 -7.44508,22.16659 0,0 -4.96339,3.7105 -5.65007,-5.15614 -0.69873,-8.85459 -4.14419,-12.25186 -6.97525,-8.03539 -2.83106,4.20443 -3.90325,17.31163 -1.95162,22.9617 1.95162,5.66212 8.22814,14.19143 -6.89092,41.68282 0,0 -10.01111,19.73308 7.66193,33.87633 17.67304,14.14325 60.01845,85.77506 46.11614,97.76188 -13.9023,11.98683 12.98673,6.52951 19.34758,11.79407 6.36084,5.26457 3.4575,8.72207 13.98663,11.31219 10.51709,2.59012 7.6017,25.52772 34.11727,39.36979 26.50353,13.84207 -4.6863,34.39435 1.83116,47.27266 6.51746,12.8783 9.07143,37.97233 -7.99925,46.98353 -17.05864,9.0112 -0.12047,30.68386 7.99925,38.73129 8.11971,8.05948 47.23651,57.92226 41.28527,58.29572 -5.9392,0.3855 -85.00405,-31.69581 -125.00029,-129.85525 C 144.9984,611.328 131.61412,575.09045 129.40951,534.69666 c -2.20462,-40.40584 1.12037,-151.40744 28.49129,-194.45158 27.35887,-43.05619 12.10729,-44.46569 59.99435,-106.25506 z M 656.7936,768.26503 c 0,0 -15.61299,23.33516 -0.34937,24.96151 15.25158,1.61431 14.17939,2.8672 17.58871,-9.16781 3.40932,-12.02297 7.18005,-17.2273 16.51652,-24.58805 9.33647,-7.36075 7.18005,-20.46795 6.28856,-29.2623 -0.90353,-8.8064 -5.14409,-16.87793 -8.22814,-6.10786 -3.08405,10.77007 1.2288,14.5408 -10.08339,16.69722 -11.31218,2.15643 -10.95077,-1.25289 -13.64931,6.99934 -2.6865,8.26428 -10.22796,8.08358 -8.61365,13.64932 1.6143,5.56574 0.53007,6.81863 0.53007,6.81863 z"
       fill="#6c8cc7"
       id="path21" />
    <path
       d="m 528.384,29.057506 c -19.46805,0 -35.27379,218.762544 -35.27379,488.207064 0,269.45656 15.80574,488.20703 35.27379,488.20703 -4.86701,-122.04873 -8.81845,-298.79113 -8.81845,-488.20704 0,-189.4159 3.95144,-366.14625 8.81845,-488.207054 z"
       fill="#dee5f6"
       id="path22" />
    <path
       d="m 18.697035,487.17101 c 0,28.94908 237.796895,52.4529 530.697035,52.4529 292.90014,0 530.69703,-23.50382 530.69703,-52.4529 -132.67425,7.24028 -324.80075,13.11925 -530.69703,13.11925 -205.89628,0 -398.02277,-5.87897 -530.697035,-13.11925 z"
       fill="#dee5f6"
       id="path23" />
    <path
       d="m 484.42428,10.252047 c -139.25195,0 -252.3136,224.087343 -252.3136,500.097503 0,276.02222 113.06165,500.10955 252.3136,500.10955 C 364.26692,987.60584 266.70983,771.38522 266.70983,510.34955 c 0,-261.02362 97.55709,-477.244232 217.71445,-500.097503 z"
       fill="#dee5f6"
       id="path24" />
    <path
       d="m 30.3104,527.7696 c 0,139.264 235.96574,252.32565 526.61308,252.32565 290.64734,0 526.62512,-113.06165 526.62512,-252.32565 -24.07,120.15736 -251.75942,217.71445 -526.62512,217.71445 -274.86569,0 -502.543056,-97.55709 -526.61308,-217.71445 z"
       fill="#dee5f6"
       id="path25" />
    <path
       d="M 477.3888,0 C 213.90758,0 0,223.13562 0,497.96518 0,772.80678 213.90758,995.93035 477.3888,995.93035 236.15849,981.90758 40.321506,763.60282 40.321506,497.96518 40.321506,232.32753 236.15849,14.022776 477.3888,0 Z m 166.02052,5.12 c 263.46917,0 477.37678,223.13562 477.37678,497.96518 0,274.8416 -213.90761,497.96522 -477.37678,497.96522 C 884.62758,987.03962 1080.4646,768.73487 1080.4646,503.08518 1080.4646,237.44753 884.62758,19.142776 643.40932,5.12 Z"
       fill="#dee5f6"
       id="path26" />
    <path
       d="m 595.43793,19.6608 c 139.264,0 252.32565,224.08734 252.32565,500.09751 0,276.02221 -113.06165,500.10959 -252.32565,500.10959 120.15736,-22.85331 217.71445,-239.07392 217.71445,-500.10959 0,-261.02363 -97.55709,-477.244239 -217.71445,-500.09751 z"
       fill="#dee5f6"
       id="path27" />
    <path
       d="m 28.178071,440.46456 c 0,-139.264 238.748609,-252.32564 532.829369,-252.32564 294.08075,0 532.82936,113.06164 532.82936,252.32564 -24.3592,-120.16941 -254.72301,-217.72649 -532.82937,-217.72649 -278.10635,0 -508.470206,97.55708 -532.829359,217.72649 z"
       fill="#dee5f6"
       id="path28" />
  </g>
</svg>
