<?xml version="1.0" encoding="UTF-8" standalone="no"?>
<svg
   viewBox="0 0 32 32"
   class="icon"
   version="1.1"
   id="svg6"
   xmlns="http://www.w3.org/2000/svg">
  <defs
     id="defs6" />
  <g
     id="g6"
     transform="matrix(0.03011419,0,0,0.03106683,0.69342609,0.10493405)">
    <path
       d="m 117,608.4 v 178.5 c 1.5,93.7 155.7,169.5 395,169.5 239.3,0 393.4,-75.8 395,-169.5 V 608.4 Z"
       fill="#1b9bdb"
       id="path1" />
    <path
       d="m 907,607.7 c 0,99.4 -154.8,180 -395,180 -240.2,0 -395,-80.6 -395,-180 0,-99.4 154.8,-180 395,-180 240.2,0 395,80.5 395,180 z"
       fill="#ffffff"
       id="path2" />
    <path
       d="m 117,428.4 v 158.5 c 1.5,93.7 155.7,179.5 395,179.5 239.3,0 393.4,-85.8 395,-179.5 V 428.4 Z"
       fill="#1b9bdb"
       id="path3" />
    <path
       d="m 907,427.7 c 0,99.4 -154.8,180 -395,180 -240.2,0 -395,-80.6 -395,-180 0,-99.4 154.8,-180 395,-180 240.2,0 395,80.5 395,180 z"
       fill="#ffffff"
       id="path4" />
    <path
       d="m 117,248.4 v 158.5 c 1.5,93.7 155.7,179.5 395,179.5 239.3,0 393.4,-85.8 395,-179.5 V 248.4 Z"
       fill="#1b9bdb"
       id="path5" />
    <path
       d="m 907,247.7 c 0,99.4 -154.8,180 -395,180 -240.2,0 -395,-80.6 -395,-180 0,-99.4 154.8,-180 395,-180 240.2,0 395,80.5 395,180 z"
       fill="#3ed6ff"
       id="path6" />
  </g>
</svg>
