<?xml version="1.0" encoding="UTF-8" standalone="no"?>
<svg
   version="1.1"
   id="Layer_1"
   viewBox="0 0 32 32"
   xmlns="http://www.w3.org/2000/svg">
  <defs
     id="defs31" />
  <style
     type="text/css"
     id="style1">
	.st0{fill:none;stroke:#000;stroke-width:4;stroke-linecap:round;stroke-linejoin:round;stroke-miterlimit:10;}
	.st1{fill:none;stroke:#000;stroke-width:8;stroke-linecap:round;stroke-linejoin:round;stroke-miterlimit:10;}
</style>
  <g
     id="g1"
     transform="matrix(1.7977715,0,0,1.8299539,1.6691166,1.2813792)">
    <g
       id="g29"
       transform="matrix(0.04959084,0,0,0.04912186,0.07973258,0.3452487)">
      <path
         class="st0"
         d="m 289.9,229.4 c -25.7,45.9 -74.7,76.9 -131,76.9"
         id="path1" />
      <path
         class="st0"
         d="m 158.9,6.2 c 57.3,0 107.1,32.2 132.4,79.4"
         id="path2" />
      <path
         class="st0"
         d="m 308.8,155 c 0,0.4 0,0.8 0,1.3 0,26.5 -6.9,51.5 -19,73.1"
         id="path3" />
      <path
         class="st0"
         d="m 291.2,85.7 c 11,20.7 17.4,44.3 17.6,69.3"
         id="path4" />
      <path
         class="st0"
         d="M 26.5,85.7 C 51.7,38.4 101.5,6.2 158.9,6.2"
         id="path5" />
      <path
         class="st0"
         d="M 8.9,155 C 9.1,130 15.5,106.4 26.5,85.7"
         id="path6" />
      <path
         class="st0"
         d="m 158.9,306.2 c -56.3,0 -105.3,-31 -131,-76.9"
         id="path7" />
      <path
         class="st0"
         d="m 8.9,155 c 0,0.4 0,0.8 0,1.3 0,26.5 6.9,51.5 19,73.1"
         id="path8" />
      <path
         class="st0"
         d="m 158.9,6.2 c 31.1,0 58.1,32.2 71.8,79.4"
         id="path9" />
      <path
         class="st0"
         d="m 158.9,306.2 c 30.5,0 57.1,-31 71,-76.9"
         id="path10" />
      <path
         class="st0"
         d="m 236.5,200.9 c -1.7,10 -3.9,19.5 -6.6,28.5"
         id="path11" />
      <path
         class="st0"
         d="m 236.4,110.6 c -1.5,-8.7 -3.4,-17 -5.7,-24.9"
         id="path12" />
      <path
         class="st0"
         d="m 87.8,229.4 c 13.9,45.9 40.5,76.9 71,76.9"
         id="path13" />
      <path
         class="st0"
         d="m 158.9,6.2 c -31.1,0 -58.1,32.2 -71.8,79.4"
         id="path14" />
      <path
         class="st0"
         d="m 87.8,229.4 c -2.7,-9 -4.9,-18.5 -6.6,-28.5"
         id="path15" />
      <path
         class="st0"
         d="m 87.1,85.7 c -2.3,7.9 -4.2,16.2 -5.7,24.9"
         id="path16" />
      <line
         class="st0"
         x1="158.89999"
         y1="229.39999"
         x2="158.89999"
         y2="201"
         id="line16" />
      <line
         class="st0"
         x1="158.89999"
         y1="110.5"
         x2="158.89999"
         y2="85.699997"
         id="line17" />
      <line
         class="st0"
         x1="158.89999"
         y1="6.1999998"
         x2="158.89999"
         y2="85.699997"
         id="line18" />
      <line
         class="st0"
         x1="158.89999"
         y1="306.20001"
         x2="158.89999"
         y2="229.39999"
         id="line19" />
      <line
         class="st0"
         x1="230.7"
         y1="85.699997"
         x2="291.20001"
         y2="85.699997"
         id="line20" />
      <line
         class="st0"
         x1="230.7"
         y1="85.699997"
         x2="158.89999"
         y2="85.699997"
         id="line21" />
      <line
         class="st0"
         x1="26.5"
         y1="85.699997"
         x2="87.099998"
         y2="85.699997"
         id="line22" />
      <line
         class="st0"
         x1="158.89999"
         y1="85.699997"
         x2="87.099998"
         y2="85.699997"
         id="line23" />
      <line
         class="st0"
         x1="158.89999"
         y1="229.39999"
         x2="229.89999"
         y2="229.39999"
         id="line24" />
      <line
         class="st0"
         x1="87.800003"
         y1="229.39999"
         x2="27.9"
         y2="229.39999"
         id="line25" />
      <line
         class="st0"
         x1="87.800003"
         y1="229.39999"
         x2="158.89999"
         y2="229.39999"
         id="line26" />
      <line
         class="st0"
         x1="289.89999"
         y1="229.39999"
         x2="229.89999"
         y2="229.39999"
         id="line27" />
      <line
         class="st0"
         x1="39.700001"
         y1="155"
         x2="8.8999996"
         y2="155"
         id="line28" />
      <line
         class="st0"
         x1="308.79999"
         y1="155"
         x2="278"
         y2="155"
         id="line29" />
    </g>
    <polyline
       class="st1"
       points="72.5,136.3 83.6,175.2 97.3,136.3 109.9,175.2 119.5,136.3  "
       id="polyline29"
       transform="matrix(0.04959084,0,0,0.04912186,0.07973258,0.3452487)" />
    <polyline
       class="st1"
       points="133.7,136.3 144.8,175.2 158.5,136.3 171.1,175.2 180.8,136.3  "
       id="polyline30"
       transform="matrix(0.04959084,0,0,0.04912186,0.07973258,0.3452487)" />
    <polyline
       class="st1"
       points="194.9,136.3 206.1,175.2 219.7,136.3 232.4,175.2 242,136.3  "
       id="polyline31"
       transform="matrix(0.04959084,0,0,0.04912186,0.07973258,0.3452487)" />
  </g>
</svg>
