<?xml version="1.0" encoding="UTF-8" standalone="no"?>
<svg
   fill="#888888"
   version="1.1"
   id="Layer_1"
   viewBox="-143 145 32 32"
   xml:space="preserve"
   xmlns="http://www.w3.org/2000/svg">
    <defs
   id="defs3" />
<g
   id="g3"
   transform="matrix(0.05698029,0,0,0.05718026,-133.58595,137.97473)">
	<path
   d="m 113,145 c -141.4,0 -256,114.6 -256,256 0,141.4 114.6,256 256,256 C 254.4,657 369,542.4 369,401 369,259.6 254.4,145 113,145 Z m 159.8,415.7 c -20.8,20.8 -44.9,37.1 -71.8,48.4 -27.8,11.8 -57.4,17.7 -88,17.7 -30.5,0 -60.1,-6 -88,-17.7 C -1.9,597.7 -26.1,581.4 -46.8,560.7 -67.6,539.9 -83.9,515.8 -95.2,488.9 -107,461.1 -113,431.5 -113,401 c 0,-30.5 6,-60.1 17.7,-88 11.4,-26.9 27.7,-51.1 48.4,-71.8 C -26,220.4 -1.9,204.1 25,192.7 52.9,181 82.5,175 113,175 c 30.5,0 60.1,6 88,17.7 26.9,11.4 51.1,27.7 71.8,48.4 20.8,20.8 37.1,44.9 48.4,71.8 11.8,27.8 17.7,57.4 17.7,88 0,30.5 -6,60.1 -17.7,88 -11.4,26.9 -27.7,51.1 -48.4,71.8 z"
   id="path1" />
	<polygon
   points="238.9,451.6 241,447.9 236.8,447.9 75,447.9 73.6,447.9 72.9,449.1 38.2,509.8 36.1,513.4 40.4,513.4 202.1,513.4 203.5,513.4 204.2,512.2 "
   id="polygon1" />
	<polygon
   points="236.8,433.5 241,433.5 238.9,429.8 158,289.8 157.3,288.5 155.9,288.5 86.1,288.8 81.8,288.9 83.9,292.5 164.8,432.6 165.5,433.8 166.9,433.8 "
   id="polygon2" />
	<polygon
   points="23,506.3 25.1,502.7 106,362.6 106.7,361.4 106,360.1 70.8,299.8 68.7,296.2 66.6,299.8 -14.3,439.9 -15,441.1 -14.3,442.3 20.9,502.7 "
   id="polygon3" />
</g>
</svg>
