<?xml version="1.0" encoding="utf-8"?>
<svg version="1.1" id="Layer_1" xmlns="http://www.w3.org/2000/svg" x="0px" y="0px"
	 viewBox="0 0 32 32" style="enable-background:new 0 0 32 32;" xml:space="preserve">
<style type="text/css">
	.st42{fill:#888;}
</style>
<g>
	<path class="st42" d="M16.1,5.7c-4,0-7.8,2.4-9.6,6.2l4.9,0v0.5c-1.5-0.2-1.4,0.6-1.2,1.4l3.2,8l2.4-5.5l-1.1-2.6
		c-0.4-0.7-0.4-1.5-2-1.4l0-0.5l7.2,0v0.6c-0.8,0-1.9-0.2-1.3,1.5l2.9,7.6l1.6-4.4c0.5-1.9,0-3.7-0.6-5.4c-0.3-1.2-0.2-2.2,1.4-2.6
		C21.5,6.8,18.8,5.7,16.1,5.7L16.1,5.7z M25.8,12.8l-4.6,12.1c1.3-1.1,2.6-1.5,4.2-4.6C26.5,17.7,26.4,15.4,25.8,12.8L25.8,12.8z
		 M6,13c-0.5,3.6-0.4,4.6,0.7,7.5c1.5,2.8,2.6,3.4,4.2,4.5L6,13L6,13z M16.3,17.5l-3.4,8.3c2.4,0.7,4.6,0.6,6.6-0.2L16.3,17.5
		L16.3,17.5z"/>
</g>
</svg>
