<?xml version="1.0" encoding="UTF-8" standalone="no"?>
<svg
   version="1.1"
   viewBox="0 0 32 32"
   xml:space="preserve"
   id="svg2"
   xmlns="http://www.w3.org/2000/svg">
    <defs
   id="defs2" />
<g
   style="opacity:1;fill:none;fill-rule:nonzero;stroke:none;stroke-width:0;stroke-linecap:butt;stroke-linejoin:miter;stroke-miterlimit:10;stroke-dasharray:none"
   transform="matrix(0.28049987,0,0,0.29707589,3.4951715,2.8984349)"
   id="g2">
	<path
   d="M 72.216,90 H 17.784 C 7.962,90 0,82.038 0,72.216 V 17.784 C 0,7.962 7.962,0 17.784,0 H 72.216 C 82.038,0 90,7.962 90,17.784 V 72.216 C 90,82.038 82.038,90 72.216,90 Z"
   style="opacity:1;fill:#032d42;fill-rule:evenodd;stroke:none;stroke-width:1;stroke-linecap:butt;stroke-linejoin:miter;stroke-miterlimit:10;stroke-dasharray:none"
   stroke-linecap="round"
   id="path1" />
    <path
   d="M 45.191,14.751 C 27.294,14.714 12.755,29.192 12.718,47.089 c -0.019,8.936 3.653,17.483 10.148,23.62 2.287,2.178 5.821,2.361 8.322,0.432 8.198,-6.101 19.429,-6.101 27.627,0 2.525,1.934 6.086,1.726 8.369,-0.488 12.982,-12.32 13.52,-32.831 1.2,-45.813 C 62.34,18.471 53.97,14.827 45.191,14.742 m -0.19,48.579 c -8.676,0.235 -15.899,-6.608 -16.134,-15.284 -0.008,-0.282 -0.008,-0.564 0,-0.845 0,-8.91 7.223,-16.134 16.134,-16.134 8.911,0 16.134,7.223 16.134,16.134 0.232,8.676 -6.613,15.897 -15.289,16.13 -0.282,0.007 -0.564,0.007 -0.845,-0.001"
   style="opacity:1;fill:#62d84e;fill-rule:evenodd;stroke:none;stroke-width:1;stroke-linecap:butt;stroke-linejoin:miter;stroke-miterlimit:10;stroke-dasharray:none"
   stroke-linecap="round"
   id="path2" />
</g>
</svg>
