<?xml version="1.0" encoding="UTF-8" standalone="no"?>
<svg
   viewBox="0 0 32 32.000001"
   version="1.1"
   id="svg26"
   xmlns="http://www.w3.org/2000/svg">
  <defs
     id="defs4">
    <style
       id="style2">.cls-1{fill:none;stroke-miterlimit:10;}.cls-1,.cls-2{stroke:#000;}.cls-2,.cls-6{fill:#fff;}.cls-2{stroke-linecap:round;stroke-linejoin:round;stroke-width:2px;}.cls-3{fill:#eaecef;}.cls-3,.cls-4,.cls-5,.cls-6{fill-rule:evenodd;}.cls-5{fill:#fafdff;}</style>
  </defs>
  <title
     id="title6">icon-workflowgen-for-imanage</title>
  <metadata
     id="metadata30">
  </metadata>
  <g
     id="g498"
     transform="matrix(0.47637879,0,0,0.51570499,-49.189664,-19.24975)">
    <path
       class="cls-3"
       d="m 161.04465,69.94982 -1.72,1.95 a 28.12,28.12 0 0 1 -2.89,2.51 40.08,40.08 0 0 1 -13.29,6.32 c -7.28,2.08 -17.95,2.7 -24.23,-1 -2.89,-1.7 -5.37,-4 -6,-8.4 -0.77,-5.33 2.2,-12.12 5.16,-16.13 a 34.12,34.12 0 0 1 3.33,-3.82 24.61,24.61 0 0 1 4.13,-3 19.42,19.42 0 0 1 5.06,-2.06 v -0.09 a 66.59,66.59 0 0 0 -7.48,-1.19 h -3.1 a 21.91,21.91 0 0 0 -4.87,0.74 7.55,7.55 0 0 0 -5,3.67 15,15 0 0 0 -1.85,6.75 v 3.44 a 50.7,50.7 0 0 0 2.3,11.82 35.6,35.6 0 0 0 3.4,7.42 l 0.92,1.28 a 21.49,21.49 0 0 0 5.72,5.19 25.54,25.54 0 0 0 11.59,3.49 h 3.84 a 38.19,38.19 0 0 0 7.94,-1.38 35.82,35.82 0 0 0 11.87,-5.54 16.19,16.19 0 0 0 3.25,-3.28 10.23,10.23 0 0 0 2.11,-6.69 c 0,-0.84 -0.19,-1.28 -0.19,-2 z"
       id="path14"
       style="fill:#eaecef;fill-rule:evenodd" />
    <path
       class="cls-4"
       d="m 162.82465,61.55982 c -1.31,-2.92 -4.44,-6 -7.09,-7.86 -1.23,-0.85 -2,-1.45 -3.34,-2.25 l -2.32,-1.34 a 54.72,54.72 0 0 0 -6.48,-3 22.21,22.21 0 0 0 -6.06,-1.46 21.63,21.63 0 0 0 -5.32,0.23 14.16,14.16 0 0 1 -1.65,0.3 v 0.09 a 19.42,19.42 0 0 0 -5.06,2.06 24.61,24.61 0 0 0 -4.13,3 34.12,34.12 0 0 0 -3.33,3.82 c -3,4 -5.93,10.8 -5.16,16.13 0.63,4.36 3.11,6.7 6,8.4 6.28,3.69 16.95,3.07 24.23,1 a 40.08,40.08 0 0 0 13.29,-6.32 28.12,28.12 0 0 0 2.89,-2.51 l 1.72,-1.95 v -0.16 c 0.29,-0.13 0.51,-0.58 0.79,-1 a 9.75,9.75 0 0 0 0.68,-1.16 6.11,6.11 0 0 0 0.92,-2.83 6.76,6.76 0 0 0 -0.58,-3.19 z"
       id="path16"
       style="fill-rule:evenodd" />
    <path
       class="cls-5"
       d="m 128.41465,73.16982 h 3.12 v -6.42 a 3.4,3.4 0 0 1 0.64,-2.61 2.77,2.77 0 0 1 4.32,0 3.48,3.48 0 0 1 0.65,2.54 v 6.51 h 3.12 v -6.44 c 0,-1.85 0.56,-3.62 2.77,-3.65 a 2.89,2.89 0 0 1 2.19,1 3.64,3.64 0 0 1 0.65,2.57 v 6.5 h 3.13 c 0,-1.82 0.2,-7.63 -0.31,-9.15 a 5.9,5.9 0 0 0 -9.09,-2.9 6,6 0 0 0 -0.87,0.75 c -1.22,-0.89 -2,-1.89 -4.41,-1.89 a 5.83,5.83 0 0 0 -4.36,1.95 c -1.22,1.36 -1.55,2.49 -1.55,4.82 z"
       id="path18"
       style="fill:#fafdff;fill-rule:evenodd" />
    <path
       class="cls-6"
       d="m 127.03465,55.44982 a 2.33,2.33 0 1 1 -2.33,2.33 2.33,2.33 0 0 1 2.33,-2.33 z"
       id="path20"
       style="fill:#ffffff;fill-rule:evenodd" />
  </g>
</svg>
