<?xml version="1.0" encoding="UTF-8" standalone="no"?>
<svg
   version="1.1"
   id="_x36_"
   viewBox="0 0 32 32"
   xml:space="preserve"
   xmlns="http://www.w3.org/2000/svg"><defs
   id="defs11" />
<g
   id="g11"
   transform="matrix(0.05827506,0,0,0.06153407,1.1934745,1.4918377)">
	<g
   id="g10">
		<polygon
   style="fill:#e8f5f7"
   points="76.3,415.778 76.3,174.216 171.876,140.421 254.952,111.063 256,110.659 256,384.001 89.124,413.52 "
   id="polygon1" />
		<polygon
   style="fill:#c3e4e6"
   points="435.7,174.216 435.7,415.778 256,384.001 256,110.659 257.048,111.063 "
   id="polygon2" />
		<polygon
   style="fill:#3fbee1"
   points="255.274,239.305 256,239.626 256,481.19 102.513,426.909 76.3,417.633 76.3,176.071 99.529,184.298 120.58,191.718 161.15,206.075 249.79,237.449 254.387,238.982 "
   id="polygon3" />
		<polygon
   style="fill:#3fbee1"
   points="256.011,481.172 435.689,417.608 435.689,176.051 256.011,239.614 "
   id="polygon4" />
		<polygon
   style="fill:#3fbee1"
   points="437.878,175.425 435.7,174.7 256,112.675 257.048,111.063 330.122,0 484.416,53.233 512,62.75 504.822,73.638 "
   id="polygon5" />
		<polygon
   style="fill:#3fbee1"
   points="76.3,174.7 74.122,175.425 0,62.75 181.878,0 233.659,78.639 254.952,111.063 256,112.675 169.941,142.357 "
   id="polygon6" />
		<polygon
   style="opacity:0.1;fill:#0c1531"
   points="81.381,203.251 104.368,207.93 249.79,237.449 255.758,238.66 256.081,238.66 256.403,238.74 257.774,238.982 277.777,243.095 268.502,257.21 256.081,276.244 256,276.325 189.137,378.676 76.3,339.801 76.3,314.475 20.809,295.36 28.229,284.068 76.3,210.914 "
   id="polygon7" />
		<polygon
   style="opacity:0.1;fill:#0c1531"
   points="256.076,238.685 234.341,243.09 256.076,276.324 322.977,378.655 435.75,339.766 435.75,314.508 491.296,295.352 435.75,210.88 430.737,203.256 262.258,237.436 256.348,238.621 "
   id="polygon8" />
		<polygon
   style="fill:#3fbee1"
   points="74.122,175.506 76.3,176.233 99.529,184.298 120.741,191.556 256,238.175 255.758,238.66 255.677,238.74 255.274,239.305 243.498,257.21 181.878,350.931 76.3,314.475 20.809,295.36 17.906,294.392 0,288.181 "
   id="polygon9" />
		<polygon
   style="fill:#48bfde"
   points="437.878,175.496 256.011,238.201 330.132,350.892 511.998,288.188 "
   id="polygon10" />
	</g>
	<polygon
   style="opacity:0.07;fill:#040000"
   points="256,481.19 256,384.001 256.011,384.003 256.011,481.171 435.689,417.608 435.689,415.776 435.7,415.778 435.7,339.784 435.751,339.766 435.751,314.508 491.297,295.353 491.282,295.33 511.998,288.187 437.877,175.496 435.7,176.246 435.7,174.7 437.878,175.425 504.822,73.638 512,62.75 484.416,53.233 453.892,42.702 78.266,418.328 102.513,426.909 "
   id="polygon11" />
</g>
</svg>
