<?xml version="1.0" encoding="UTF-8" standalone="no"?>
<svg
   fill="#888888"
   viewBox="0 0 32 32"
   version="1.1"
   id="svg1"
   xmlns="http://www.w3.org/2000/svg">
  <defs
     id="defs1" />
  <path
     d="m 28.965597,21.040725 c 0.335154,0.499081 0.268023,1.140833 -0.134262,1.497422 -0.46925,0.356589 -1.139557,0.285343 -1.474879,-0.142671 l -2.346412,-3.208762 -2.279449,3.137516 c -0.335322,0.499081 -1.005629,0.499081 -1.475046,0.142671 C 20.7863,22.110312 20.719336,21.46856 21.05449,20.9693 l 2.681734,-3.707843 -2.681902,-3.708021 c -0.334986,-0.499261 -0.200891,-1.212259 0.201395,-1.568848 0.469249,-0.356409 1.139556,-0.213918 1.474878,0.213917 l 2.279281,3.208941 2.346412,-3.06609 c 0.335154,-0.499081 0.938666,-0.570506 1.474879,-0.213917 0.469416,0.356589 0.469416,1.069587 0.134262,1.568668 l -2.61477,3.636776 2.61477,3.708022 z M 16.763783,20.61289 c -1.743069,0 -3.150983,-1.426176 -3.150983,-3.280187 0,-1.782765 1.407914,-3.280187 3.150983,-3.280187 1.743068,0 3.150983,1.497422 3.150983,3.280187 -0.06713,1.853832 -1.474879,3.280187 -3.150983,3.280187 z m -9.251891,0 c -1.7430683,0 -3.1509832,-1.426176 -3.1509832,-3.280187 0,-1.782765 1.4079149,-3.280187 3.1509832,-3.280187 1.7430686,0 3.150983,1.497422 3.150983,3.280187 0,1.853832 -1.4079144,3.280187 -3.150983,3.280187 z m 9.251891,-8.699548 c -1.944295,0 -3.687196,1.140833 -4.558898,2.852352 -0.871534,-1.711519 -2.6147708,-2.852352 -4.6258612,-2.852352 -1.2066884,0 -2.2794489,0.427835 -3.1509832,1.069587 V 8.4192376 c 0,-0.5705065 -0.4694168,-1.0695873 -1.0056294,-1.0695873 -0.603512,0 -1.0727608,0.4990808 -1.0727608,1.0695873 v 8.9847114 c 0.067131,2.995024 2.3464125,5.348115 5.1624096,5.348115 2.0110909,0 3.754327,-1.212258 4.625861,-2.923598 0.871535,1.71134 2.614603,2.923598 4.55873,2.923598 2.882961,0 5.229373,-2.424517 5.229373,-5.490607 0.06713,-2.923598 -2.279449,-5.348115 -5.162409,-5.348115 z"
     id="path1"
     style="stroke-width:0.173548" />
</svg>
