<?xml version="1.0" encoding="UTF-8" standalone="no"?>
<svg
   viewBox="0 0 32 32"
   fill="none"
   version="1.1"
   id="svg20"
   xmlns="http://www.w3.org/2000/svg">
  <mask
     id="mask0_87_7742"
     style="mask-type:alpha"
     maskUnits="userSpaceOnUse"
     x="8"
     y="14"
     width="24"
     height="16">
    <path
       d="M8 14H30C31.1046 14 32 14.8954 32 16V28C32 29.1046 31.1046 30 30 30H10C8.89543 30 8 29.1046 8 28V14Z"
       fill="url(#paint1_linear_87_7742)"
       id="path6" />
  </mask>
  <g
     id="g20"
     transform="matrix(0.8927739,0,0,0.98268398,1.6783217,0.22111219)">
    <rect
       x="10"
       y="2"
       width="20"
       height="28"
       rx="2"
       fill="url(#paint0_linear_87_7742)"
       id="rect2"
       style="fill:url(#paint0_linear_87_7742)" />
    <rect
       x="10"
       y="5"
       width="10"
       height="10"
       fill="#32a9e7"
       id="rect3" />
    <rect
       x="10"
       y="15"
       width="10"
       height="10"
       fill="#167eb4"
       id="rect4" />
    <rect
       x="20"
       y="15"
       width="10"
       height="10"
       fill="#32a9e7"
       id="rect5" />
    <rect
       x="20"
       y="5"
       width="10"
       height="10"
       fill="#58d9fd"
       id="rect6" />
    <g
       mask="url(#mask0_87_7742)"
       id="g9">
      <path
         d="m 32,14 v 4 h -2 v -4 z"
         fill="#135298"
         id="path7" />
      <path
         d="M 32,30 V 16 L 7,30 Z"
         fill="url(#paint2_linear_87_7742)"
         id="path8"
         style="fill:url(#paint2_linear_87_7742)" />
      <path
         d="M 8,30 V 16 l 25,14 z"
         fill="url(#paint3_linear_87_7742)"
         id="path9"
         style="fill:url(#paint3_linear_87_7742)" />
    </g>
    <path
       d="M 8,12 C 8,10.3431 9.34315,9 11,9 h 6 c 1.6569,0 3,1.3431 3,3 v 12 c 0,1.6569 -1.3431,3 -3,3 H 8 Z"
       fill="#000000"
       fill-opacity="0.3"
       id="path10" />
    <rect
       y="7"
       width="18"
       height="18"
       rx="2"
       fill="url(#paint4_linear_87_7742)"
       id="rect10"
       style="fill:url(#paint4_linear_87_7742)"
       x="0" />
    <path
       d="M 14,16.0693 V 15.903 C 14,13.0222 11.9272,11 9.01582,11 6.08861,11 4,13.036 4,15.9307 V 16.097 C 4,18.9778 6.07278,21 9,21 c 2.9114,0 5,-2.036 5,-4.9307 z m -2.3576,0.0277 c 0,1.9113 -1.0759,3.0609 -2.62658,3.0609 -1.55063,0 -2.6424,-1.1773 -2.6424,-3.0886 V 15.903 c 0,-1.9113 1.07595,-3.0609 2.62658,-3.0609 1.5348,0 2.6424,1.1773 2.6424,3.0886 z"
       fill="#ffffff"
       id="path11" />
  </g>
  <defs
     id="defs20">
    <linearGradient
       id="paint0_linear_87_7742"
       x1="10"
       y1="16"
       x2="30"
       y2="16"
       gradientUnits="userSpaceOnUse">
      <stop
         stop-color="#064484"
         id="stop11" />
      <stop
         offset="1"
         stop-color="#0F65B5"
         id="stop12" />
    </linearGradient>
    <linearGradient
       id="paint1_linear_87_7742"
       x1="8"
       y1="26.7692"
       x2="32"
       y2="26.7692"
       gradientUnits="userSpaceOnUse">
      <stop
         stop-color="#1B366F"
         id="stop13" />
      <stop
         offset="1"
         stop-color="#2657B0"
         id="stop14" />
    </linearGradient>
    <linearGradient
       id="paint2_linear_87_7742"
       x1="32"
       y1="23"
       x2="8"
       y2="23"
       gradientUnits="userSpaceOnUse">
      <stop
         stop-color="#44DCFD"
         id="stop15" />
      <stop
         offset="0.453125"
         stop-color="#259ED0"
         id="stop16" />
    </linearGradient>
    <linearGradient
       id="paint3_linear_87_7742"
       x1="8"
       y1="23"
       x2="32"
       y2="23"
       gradientUnits="userSpaceOnUse">
      <stop
         stop-color="#259ED0"
         id="stop17" />
      <stop
         offset="1"
         stop-color="#44DCFD"
         id="stop18" />
    </linearGradient>
    <linearGradient
       id="paint4_linear_87_7742"
       x1="0"
       y1="16"
       x2="18"
       y2="16"
       gradientUnits="userSpaceOnUse">
      <stop
         stop-color="#064484"
         id="stop19" />
      <stop
         offset="1"
         stop-color="#0F65B5"
         id="stop20" />
    </linearGradient>
  </defs>
</svg>
