<?xml version="1.0" encoding="UTF-8" standalone="no"?>
<svg
   viewBox="0 -1 32 32"
   version="1.1"
   id="svg6"
   xmlns="http://www.w3.org/2000/svg">
  <defs
     id="defs1">
    <style
       id="style1">
        .cls-1{fill:#231f20;}
        .cls-2{fill:#fff9ae;}
        .cls-3{fill:#00aeef;}
        .cls-4{fill:#00a94f;}
        .cls-5{fill:#f15d22;}
        .cls-6{fill:#e31b23;}
    </style>
  </defs>
  <title
     id="title1">Discourse_logo</title>
  <g
     id="Layer_2"
     transform="matrix(0.26854207,0,0,0.27999625,2.3473193,0.24708625)">
    <g
       id="Layer_3">
      <path
         class="cls-1"
         d="M 51.87,0 C 23.71,0 0,22.83 0,51 c 0,0.91 0,52.81 0,52.81 l 51.86,-0.05 c 28.16,0 51,-23.71 51,-51.87 C 102.86,23.73 80,0 51.87,0 Z"
         id="path1" />
      <path
         class="cls-2"
         d="M 52.37,19.74 A 31.62,31.62 0 0 0 24.58,66.41 l -5.72,18.4 20.54,-4.64 a 31.61,31.61 0 1 0 13,-60.43 z"
         id="path2" />
      <path
         class="cls-3"
         d="m 77.45,32.12 a 31.6,31.6 0 0 1 -38.05,48 l -20.54,4.7 20.91,-2.47 A 31.6,31.6 0 0 0 77.45,32.12 Z"
         id="path3" />
      <path
         class="cls-4"
         d="M 71.63,26.29 A 31.6,31.6 0 0 1 38.8,78 L 18.86,84.82 39.4,80.17 A 31.6,31.6 0 0 0 71.63,26.29 Z"
         id="path4" />
      <path
         class="cls-5"
         d="m 26.47,67.11 a 31.61,31.61 0 0 1 51,-35 31.61,31.61 0 0 0 -52.89,34.3 l -5.72,18.4 z"
         id="path5" />
      <path
         class="cls-6"
         d="m 24.58,66.41 a 31.61,31.61 0 0 1 47.05,-40.12 31.61,31.61 0 0 0 -49,39.63 l -3.76,18.9 z"
         id="path6" />
    </g>
  </g>
  <metadata
     id="metadata6">
  </metadata>
</svg>
