<?xml version="1.0" encoding="UTF-8" standalone="no"?>
<svg
   viewBox="0 0 32 32"
   version="1.1"
   preserveAspectRatio="xMidYMid"
   id="svg6"
   xmlns="http://www.w3.org/2000/svg">
  <defs
     id="defs4">
    <linearGradient
       x1="191.29538"
       y1="61.656292"
       x2="139.14647"
       y2="115.75265"
       id="linearGradient-1"
       gradientTransform="scale(1.00294,0.99706862)"
       gradientUnits="userSpaceOnUse">
      <stop
         stop-color="#0052CC"
         offset="18%"
         id="stop1" />
      <stop
         stop-color="#2684FF"
         offset="100%"
         id="stop2" />
    </linearGradient>
    <linearGradient
       x1="134.11237"
       y1="123.45523"
       x2="73.809662"
       y2="182.43703"
       id="linearGradient-2"
       gradientTransform="scale(1.00294,0.99706859)"
       gradientUnits="userSpaceOnUse">
      <stop
         stop-color="#0052CC"
         offset="18%"
         id="stop3" />
      <stop
         stop-color="#2684FF"
         offset="100%"
         id="stop4" />
    </linearGradient>
  </defs>
  <g
     id="g6"
     transform="matrix(0.10953827,0,0,0.11304402,2.0885749,1.4918417)">
    <path
       d="M 244.65778,0 H 121.70667 c 0,14.720105 5.84753,28.837312 16.25622,39.245998 10.40869,10.408685 24.52589,16.256224 39.246,16.256224 h 22.64889 v 21.866667 c 0.0196,30.625271 24.8414,55.447051 55.46666,55.466671 V 10.666667 C 255.32444,4.7756293 250.54881,0 244.65778,0 Z"
       fill="#2684ff"
       id="path4" />
    <path
       d="M 183.82222,61.262222 H 60.871111 c 0.01961,30.625267 24.8414,55.447058 55.466669,55.466668 h 22.64889 v 21.93778 c 0.0392,30.62525 24.87694,55.43113 55.50222,55.43111 V 71.928889 c 0,-5.891037 -4.77563,-10.666667 -10.66667,-10.666667 z"
       fill="url(#linearGradient-1)"
       id="path5"
       style="fill:url(#linearGradient-1)" />
    <path
       d="M 122.95111,122.48889 H 0 c 0,30.65303 24.849191,55.50222 55.502222,55.50222 h 22.72 v 21.86667 c 0.01954,30.59754 24.798068,55.40787 55.395558,55.46666 V 133.15556 c 0,-5.89104 -4.77563,-10.66667 -10.66667,-10.66667 z"
       fill="url(#linearGradient-2)"
       id="path6"
       style="fill:url(#linearGradient-2)" />
  </g>
</svg>
