<?xml version="1.0" encoding="UTF-8" standalone="no"?>
<svg
   viewBox="0 0 32 32"
   fill="none"
   version="1.1"
   id="svg11"
   xmlns="http://www.w3.org/2000/svg">
  <mask
     id="mask0_87_7767"
     style="mask-type:alpha"
     maskUnits="userSpaceOnUse"
     x="10"
     y="6"
     width="13"
     height="24">
    <path
       d="M23 23.5C23 27.0899 20.0899 30 16.5 30C12.9101 30 10 27.0899 10 23.5C10 19.9102 10 6 10 6H23C23 6 23 21.1988 23 23.5Z"
       fill="#C4C4C4"
       id="path2" />
  </mask>
  <g
     id="g11"
     transform="matrix(0.82517483,0,0,0.85880786,2.9463869,1.4385614)">
    <circle
       cx="15.5"
       cy="11.5"
       r="9.5"
       fill="url(#paint0_linear_87_7767)"
       id="circle1"
       style="fill:url(#paint0_linear_87_7767)" />
    <circle
       cx="24"
       cy="17"
       r="8"
       fill="url(#paint1_linear_87_7767)"
       id="circle2"
       style="fill:url(#paint1_linear_87_7767)" />
    <g
       mask="url(#mask0_87_7767)"
       id="g3">
      <circle
         cx="16.5"
         cy="23.5"
         r="6.5"
         fill="url(#paint2_linear_87_7767)"
         id="circle3"
         style="fill:url(#paint2_linear_87_7767)" />
      <path
         d="M 7,12 C 7,10.3431 8.34315,9 10,9 h 7 c 1.6569,0 3,1.3431 3,3 v 12 c 0,1.6569 -1.3431,3 -3,3 H 7 Z"
         fill="#000000"
         fill-opacity="0.3"
         id="path3" />
    </g>
    <rect
       y="7"
       width="18"
       height="18"
       rx="2"
       fill="url(#paint3_linear_87_7767)"
       id="rect3"
       style="fill:url(#paint3_linear_87_7767)"
       x="0" />
    <path
       d="M 13,18.1229 C 13,16.5726 11.9602,15.8883 9.79665,15.0922 8.10273,14.4637 7.70021,14.2821 7.70021,13.6816 c 0,-0.5168 0.50314,-0.866 1.35849,-0.866 0.87212,0 1.6939,0.2933 2.6164,0.7961 l 0.9392,-1.662 C 11.6247,11.3352 10.4507,11 9.02516,11 c -2.1803,0 -3.74004,1.1173 -3.74004,2.8212 0,1.7458 1.24109,2.3045 3.32075,3.0447 1.66033,0.5866 1.97903,0.8799 1.97903,1.3967 0,0.6145 -0.587,0.9218 -1.50943,0.9218 -1.09015,0 -2.04612,-0.3771 -3.00209,-0.9917 L 5,19.7849 C 6.174,20.595 7.63312,21 9.12579,21 11.3732,21 13,19.9385 13,18.1229 Z"
       fill="#ffffff"
       id="path4" />
  </g>
  <defs
     id="defs11">
    <linearGradient
       id="paint0_linear_87_7767"
       x1="6"
       y1="11.5"
       x2="26.5833"
       y2="11.5"
       gradientUnits="userSpaceOnUse">
      <stop
         stop-color="#103A3B"
         id="stop4" />
      <stop
         offset="1"
         stop-color="#116B6E"
         id="stop5" />
    </linearGradient>
    <linearGradient
       id="paint1_linear_87_7767"
       x1="18"
       y1="13"
       x2="32"
       y2="21"
       gradientUnits="userSpaceOnUse">
      <stop
         stop-color="#1D9097"
         id="stop6" />
      <stop
         offset="1"
         stop-color="#29BBC2"
         id="stop7" />
    </linearGradient>
    <linearGradient
       id="paint2_linear_87_7767"
       x1="12"
       y1="21.5"
       x2="23"
       y2="26.5"
       gradientUnits="userSpaceOnUse">
      <stop
         stop-color="#28A6B5"
         id="stop8" />
      <stop
         offset="1"
         stop-color="#31D6EC"
         id="stop9" />
    </linearGradient>
    <linearGradient
       id="paint3_linear_87_7767"
       x1="0"
       y1="16"
       x2="19.5"
       y2="16"
       gradientUnits="userSpaceOnUse">
      <stop
         stop-color="#105557"
         id="stop10" />
      <stop
         offset="1"
         stop-color="#116B6E"
         id="stop11" />
    </linearGradient>
  </defs>
</svg>
