<?xml version="1.0" encoding="UTF-8" standalone="no"?>
<svg
   version="1.1"
   id="Capa_1"
   viewBox="0 0 32 32"
   xml:space="preserve"
   xmlns="http://www.w3.org/2000/svg"><defs
   id="defs10" />
<g
   id="g10"
   transform="matrix(0.44598038,0,0,0.502331,3.6011276,1.2400932)">
	<path
   style="fill:#e9e9e0"
   d="M 36.985,0 H 7.963 C 7.155,0 6.5,0.655 6.5,1.926 V 55 c 0,0.345 0.655,1 1.463,1 H 48.037 C 48.845,56 49.5,55.345 49.5,55 V 12.978 c 0,-0.696 -0.093,-0.92 -0.257,-1.085 L 37.607,0.257 C 37.442,0.093 37.218,0 36.985,0 Z"
   id="path1" />
	<polygon
   style="fill:#d9d7ca"
   points="49.349,12 37.5,0.151 37.5,12 "
   id="polygon1" />
	<path
   style="fill:#f29c1f"
   d="M 48.037,56 H 7.963 C 7.155,56 6.5,55.345 6.5,54.537 V 39 h 43 V 54.537 C 49.5,55.345 48.845,56 48.037,56 Z"
   id="path2" />
	<g
   id="g5">
		<path
   style="fill:#ffffff"
   d="M 19.379,48.105 21.936,53 h -1.9 l -1.6,-3.801 H 18.299 L 16.576,53 h -1.9 l 2.557,-4.895 -2.721,-5.182 h 1.873 l 1.777,4.102 h 0.137 l 1.928,-4.102 H 22.1 Z"
   id="path3" />
		<path
   style="fill:#ffffff"
   d="m 31.998,42.924 h 1.668 V 53 h -1.668 v -6.932 l -2.256,5.605 h -1.449 l -2.27,-5.605 V 53 H 24.355 V 42.924 h 1.668 l 2.994,6.891 z"
   id="path4" />
		<path
   style="fill:#ffffff"
   d="m 37.863,42.924 v 8.832 h 4.635 V 53 H 36.195 V 42.924 Z"
   id="path5" />
	</g>
	<path
   style="fill:#f29c1f"
   d="m 15.5,24 c -0.256,0 -0.512,-0.098 -0.707,-0.293 -0.391,-0.391 -0.391,-1.023 0,-1.414 l 6,-6 c 0.391,-0.391 1.023,-0.391 1.414,0 0.391,0.391 0.391,1.023 0,1.414 l -6,6 C 16.012,23.902 15.756,24 15.5,24 Z"
   id="path6" />
	<path
   style="fill:#f29c1f"
   d="m 21.5,30 c -0.256,0 -0.512,-0.098 -0.707,-0.293 l -6,-6 c -0.391,-0.391 -0.391,-1.023 0,-1.414 0.391,-0.391 1.023,-0.391 1.414,0 l 6,6 c 0.391,0.391 0.391,1.023 0,1.414 C 22.012,29.902 21.756,30 21.5,30 Z"
   id="path7" />
	<path
   style="fill:#f29c1f"
   d="m 33.5,30 c -0.256,0 -0.512,-0.098 -0.707,-0.293 -0.391,-0.391 -0.391,-1.023 0,-1.414 l 6,-6 c 0.391,-0.391 1.023,-0.391 1.414,0 0.391,0.391 0.391,1.023 0,1.414 l -6,6 C 34.012,29.902 33.756,30 33.5,30 Z"
   id="path8" />
	<path
   style="fill:#f29c1f"
   d="m 39.5,24 c -0.256,0 -0.512,-0.098 -0.707,-0.293 l -6,-6 c -0.391,-0.391 -0.391,-1.023 0,-1.414 0.391,-0.391 1.023,-0.391 1.414,0 l 6,6 c 0.391,0.391 0.391,1.023 0,1.414 C 40.012,23.902 39.756,24 39.5,24 Z"
   id="path9" />
	<path
   style="fill:#f29c1f"
   d="m 24.5,32 c -0.11,0 -0.223,-0.019 -0.333,-0.058 -0.521,-0.184 -0.794,-0.755 -0.61,-1.276 l 6,-17 c 0.185,-0.521 0.753,-0.795 1.276,-0.61 0.521,0.184 0.794,0.755 0.61,1.276 l -6,17 C 25.298,31.744 24.912,32 24.5,32 Z"
   id="path10" />
</g>
</svg>
