<?xml version="1.0" encoding="utf-8"?>
<svg version="1.1" id="Layer_1" xmlns="http://www.w3.org/2000/svg" x="0px" y="0px"
	 viewBox="0 0 32 32" style="enable-background:new 0 0 32 32;" xml:space="preserve">
<style type="text/css">
	.st42{fill:#888;}
</style>
<path class="st42" d="M19.9,21.9v-1H17V18h4.9c0.4,0,0.8-0.2,1-0.4c0.3-0.3,0.4-0.7,0.4-1V9.6c0-0.4-0.2-0.8-0.4-1
	c-0.3-0.3-0.7-0.4-1-0.4h-5.7l-0.8-0.8l-0.1-0.1h-5.1c-0.4,0-0.8,0.2-1,0.4c-0.3,0.3-0.4,0.7-0.4,1v7.9c0,0.4,0.2,0.8,0.4,1
	c0.3,0.3,0.7,0.4,1,0.4H15v2.9h-2.9v1H7.2c-0.5,0-1,0.4-1,1v0c0,0.5,0.4,1,1,1h4.9v1h7.9v-1h4.9c0.5,0,1-0.4,1-1v0c0-0.5-0.4-1-1-1
	H19.9z M10.6,9.1h3.7l0.8,0.8l0.1,0.1h6.1V16H10.6V9.1z"/>
</svg>
