<?xml version="1.0" encoding="utf-8"?>
<!-- Generator: Adobe Illustrator 26.2.1, SVG Export Plug-In . SVG Version: 6.00 Build 0)  -->
<svg version="1.1" id="WCC-Logo-Black" xmlns="http://www.w3.org/2000/svg" xmlns:xlink="http://www.w3.org/1999/xlink" x="0px"
	 y="0px" viewBox="0 0 283.46 113.32" style="enable-background:new 0 0 283.46 113.32;" xml:space="preserve">
<g>
	<path d="M36.62,77.59c-0.3,1.03-0.66,2.73-0.66,2.73H35.9c0,0-0.3-1.7-0.6-2.73l-1.18-3.83h-3.17v0.64l0.97,0.21v6.79l-0.97,0.22
		v0.64h2.83v-0.64l-0.84-0.22v-4.06c0-1.11-0.07-2.84-0.07-2.84h0.06c0,0,0.39,1.65,0.71,2.68l1.54,4.77h1.05l1.49-4.79
		c0.31-1.03,0.83-2.67,0.83-2.67h0.06c0,0-0.07,1.73-0.07,2.83v4.08l-0.83,0.22v0.64h3.48v-0.64l-1.04-0.22v-6.79l1.04-0.21v-0.64
		h-3.36L36.62,77.59z"/>
	<path d="M44.88,75.75c-1.71,0-2.99,1.22-2.99,3.26c0,2.06,0.99,3.38,3.17,3.38c1.1,0,1.77-0.32,2.2-0.58v-0.67
		c-0.46,0.15-0.97,0.32-1.83,0.32c-1.19,0-1.91-0.67-1.95-2.32h4.08C47.57,76.88,46.76,75.75,44.88,75.75z M43.46,78.43
		c0.08-1.34,0.58-1.89,1.36-1.89c0.74,0,1.15,0.47,1.15,1.89H43.46z"/>
	<polygon points="58.76,74.61 59.72,74.39 59.72,73.76 56.16,73.76 56.16,74.4 57.1,74.61 57.1,77.52 53.87,77.52 53.87,74.62 
		54.81,74.4 54.81,73.76 51.23,73.76 51.23,74.4 52.21,74.62 52.21,81.4 51.23,81.62 51.23,82.26 54.81,82.26 54.81,81.62 
		53.87,81.4 53.87,78.3 57.1,78.29 57.1,81.4 56.16,81.62 56.16,82.26 59.74,82.25 59.74,81.62 58.76,81.39 	"/>
	<path d="M63.43,75.75c-1.71,0-2.98,1.21-2.98,3.26c0,2.05,0.99,3.38,3.17,3.38c1.09,0,1.78-0.33,2.19-0.59v-0.67
		c-0.45,0.15-0.96,0.33-1.82,0.33c-1.19,0-1.91-0.67-1.95-2.32h4.08C66.11,76.88,65.31,75.75,63.43,75.75z M62.01,78.42
		c0.08-1.33,0.57-1.89,1.36-1.89c0.74,0,1.16,0.47,1.16,1.89H62.01z"/>
	<polygon points="70.79,78.62 72.28,76.63 73.1,76.44 73.1,75.87 70.48,75.87 70.48,76.44 71.29,76.62 69.86,78.69 69.2,78.75 
		69.2,72.92 69.04,72.84 66.85,73.13 66.85,73.72 67.69,73.92 67.69,81.51 66.86,81.7 66.86,82.25 69.99,82.25 69.99,81.7 
		69.2,81.52 69.2,79.35 69.68,79.46 71.52,82.25 73.33,82.25 73.33,81.7 72.75,81.5 	"/>
	<path d="M76.63,75.75c-1.71,0-2.98,1.21-2.98,3.26c0,2.05,0.99,3.38,3.17,3.38c1.09,0,1.77-0.33,2.19-0.59v-0.67
		c-0.46,0.15-0.97,0.33-1.83,0.33c-1.18,0-1.91-0.67-1.96-2.32h4.09C79.31,76.88,78.5,75.75,76.63,75.75z M75.2,78.42
		c0.09-1.33,0.58-1.89,1.37-1.89c0.73,0,1.15,0.47,1.15,1.89H75.2z"/>
	<polygon points="87.73,77.22 89.92,74.61 90.7,74.39 90.7,73.76 87.8,73.76 87.8,74.39 88.76,74.61 85.66,78.46 85.66,74.59 
		86.6,74.39 86.6,73.76 83.02,73.76 83.02,74.39 83.99,74.61 83.99,81.39 83.02,81.62 83.02,82.25 86.6,82.25 86.6,81.62 
		85.66,81.4 85.66,79.27 86.6,78.47 88.82,82.25 90.95,82.25 90.95,81.61 90.21,81.39 	"/>
	<path d="M93.77,73.96c0-0.48-0.37-0.84-0.87-0.84c-0.5,0-0.87,0.36-0.87,0.84c0,0.48,0.37,0.85,0.87,0.85
		C93.4,74.82,93.77,74.44,93.77,73.96z"/>
	<polygon points="93.73,75.84 93.58,75.76 91.31,76.05 91.31,76.65 92.22,76.86 92.22,81.5 91.4,81.69 91.4,82.25 94.54,82.25 
		94.54,81.69 93.73,81.5 	"/>
	<path d="M101.47,73.76h-3.39v0.64l0.97,0.21v6.79l-0.97,0.21v0.64h3.8v-0.64l-1.16-0.21v-2.73c0.28,0.06,0.56,0.11,1.14,0.11
		c1.83,0,2.87-0.8,2.87-2.55C104.72,74.67,103.85,73.76,101.47,73.76z M101.62,78.02c-0.43,0-0.64-0.03-0.9-0.07v-3.31h0.86
		c0.99,0,1.49,0.46,1.49,1.64C103.07,77.49,102.62,78.02,101.62,78.02z"/>
	<rect x="106.49" y="73.7" width="3.58" height="0.88"/>
	<path d="M108.26,75.75c-1.71,0-3.08,1.28-3.08,3.36c0,2,1.2,3.31,3.12,3.31c1.7,0,3.08-1.3,3.08-3.37
		C111.38,76.99,110.19,75.75,108.26,75.75z M108.31,81.58c-0.81,0-1.54-0.6-1.54-2.58c0-1.92,0.68-2.46,1.48-2.46
		c0.79,0,1.52,0.6,1.52,2.58C109.78,81.03,109.08,81.58,108.31,81.58z"/>
	<path d="M118.32,77.4c0-1.16-0.64-1.65-1.71-1.65c-0.8,0-1.49,0.37-2.1,0.76h-0.07v-0.67l-0.15-0.08l-2.14,0.29v0.6l0.84,0.2v4.64
		l-0.82,0.19v0.56h3.08v-0.56l-0.74-0.17v-4.43c0.38-0.12,0.77-0.23,1.2-0.23c0.72,0,1.09,0.25,1.09,1.02v3.64l-0.75,0.17v0.56h3.08
		v-0.56l-0.8-0.19V77.4z"/>
	<path d="M122.81,75.74c-1.71,0-2.99,1.22-2.99,3.27c0,2.05,0.99,3.38,3.18,3.38c1.09,0,1.77-0.33,2.19-0.59v-0.68
		c-0.45,0.14-0.96,0.32-1.82,0.32c-1.19,0-1.91-0.66-1.95-2.32l4.08,0C125.49,76.87,124.69,75.74,122.81,75.74z M121.39,78.42
		c0.08-1.33,0.58-1.89,1.36-1.89c0.74,0,1.15,0.48,1.15,1.89H121.39z"/>
	<polygon points="130.17,78.62 131.66,76.63 132.48,76.44 132.48,75.86 129.85,75.86 129.85,76.44 130.67,76.62 129.23,78.67 
		128.57,78.75 128.57,72.91 128.41,72.84 126.23,73.12 126.23,73.72 127.06,73.92 127.06,81.5 126.24,81.69 126.24,82.24 
		129.36,82.24 129.36,81.69 128.57,81.52 128.57,79.34 129.06,79.46 130.9,82.24 132.7,82.24 132.7,81.69 132.13,81.49 	"/>
	<path d="M136,75.74c-1.71,0-2.98,1.22-2.98,3.26c0,2.06,0.99,3.38,3.17,3.38c1.09,0,1.77-0.32,2.19-0.58v-0.68
		c-0.45,0.15-0.96,0.32-1.82,0.32c-1.19,0-1.91-0.66-1.96-2.32h4.09C138.69,76.87,137.88,75.74,136,75.74z M134.58,78.41
		c0.08-1.33,0.58-1.88,1.37-1.88c0.73,0,1.15,0.47,1.15,1.88H134.58z"/>
	<polygon points="50.03,46.81 44.73,46.81 44.73,48.81 46.05,49.16 44.54,56.05 44.44,56.05 42.05,46.81 39.08,46.81 36.69,56.34 
		36.58,56.34 35.02,49.16 36.23,48.81 36.23,46.81 29.7,46.81 29.7,48.81 30.73,49.16 33.72,61.11 37.74,61.11 39.86,52.61 
		39.95,52.61 42,61.11 46.03,61.11 48.96,49.16 50.03,48.81 	"/>
	<path d="M55.04,49.87c-3.34,0-5.57,2.1-5.57,5.71c0,3.72,2.02,5.8,5.87,5.8c2.1,0,3.4-0.56,4.18-1.09v-1.99
		c-0.78,0.25-1.71,0.51-3.15,0.51c-1.75,0-2.78-0.68-2.99-2.62h6.66C60.05,51.56,58.44,49.87,55.04,49.87z M53.39,54.43
		c0.14-1.84,0.76-2.36,1.61-2.36c0.8,0,1.38,0.52,1.38,2.23L53.39,54.43z"/>
	<polygon points="61.03,48.04 62.35,48.38 62.35,58.94 61.14,59.23 61.14,61.11 67.3,61.11 67.3,59.23 66.13,58.94 66.13,45.82 
		65.8,45.66 61.03,46.13 	"/>
	<polygon points="68.27,59.23 68.27,61.11 74.44,61.11 74.44,59.23 73.26,58.94 73.26,45.82 72.93,45.66 68.17,46.13 68.17,48.04 
		69.49,48.38 69.49,58.94 	"/>
	<polygon points="80.37,50.04 80.02,49.89 75.3,50.36 75.3,52.28 76.58,52.61 76.58,58.94 75.4,59.23 75.4,61.11 81.48,61.11 
		81.48,59.24 80.37,58.94 	"/>
	<path d="M76.29,47.35c0,1.16,0.95,1.85,2.08,1.85c1.16,0,2.08-0.7,2.08-1.85c0-1.14-0.93-1.84-2.08-1.84
		C77.24,45.51,76.29,46.22,76.29,47.35z"/>
	<path d="M93.87,52.59c0-1.96-1.17-2.72-2.86-2.72c-1.52,0-2.58,0.54-3.63,1.34h-0.13v-1.17l-0.32-0.15l-4.54,0.48v1.92l1.24,0.33
		v6.33l-1.18,0.3v1.87h5.84v-1.87l-0.86-0.23V53c0.42-0.14,0.84-0.26,1.38-0.26c0.87,0,1.28,0.29,1.28,1.17v5.09l-0.86,0.23v1.87
		h5.75v-1.87l-1.09-0.3V52.59z"/>
	<path d="M119.88,49.87c-3.18,0-5.69,2.02-5.69,5.82c0,3.47,2.02,5.69,5.71,5.69c3.16,0,5.69-2.07,5.69-5.84
		C125.59,51.93,123.55,49.87,119.88,49.87z M119.92,59.11c-1.05,0-1.76-0.72-1.76-3.56c0-2.78,0.68-3.43,1.69-3.43
		c1.03,0,1.73,0.72,1.73,3.57C121.59,58.39,120.93,59.11,119.92,59.11z"/>
	<path d="M113.81,60.73v-1.96c-0.28,0.08-0.66,0.15-1.01,0.15c-0.91,0-1.34-0.28-1.34-1.26v-5.32h2.23v-2.25h-2.23v-2.57h-2.96
		l-0.48,2.56l-1.19,0.44v1.83h0.87v5.95c0,2.32,1.23,3.04,3.46,3.05C112.35,61.34,113.32,61.05,113.81,60.73z"/>
	<path d="M106.68,61.11c0-2.19-1.51-3.01-3.4-3.01h-3.57c-0.58,0-0.76-0.29-0.76-0.56c0-0.19,0.08-0.43,0.24-0.62
		c0.48,0.1,0.97,0.14,1.53,0.14c2.93,0,4.85-1.31,4.85-3.71c0-0.58-0.19-1.03-0.48-1.46l1.09,0.05v-2.17l-3.14,0.45
		c-0.63-0.22-1.42-0.35-2.33-0.35c-2.86,0-4.84,1.32-4.84,3.71c0,1.28,0.68,2.22,1.69,2.78c-0.88,0.58-1.58,1.45-1.58,2.34
		c0,0.89,0.47,1.49,1.44,1.77v0.11c-1.24,0.32-2.31,1.01-2.31,2.23c0,1.46,1.71,2.52,5.22,2.52
		C104.82,65.32,106.68,63.4,106.68,61.11z M100.72,51.73c0.74,0,1.32,0.33,1.32,1.77c0,1.3-0.58,1.73-1.32,1.73
		c-0.72,0-1.28-0.43-1.28-1.79C99.44,52.14,99.98,51.73,100.72,51.73z M98.6,62.18c0-0.52,0.29-0.83,0.72-1.01h2.6
		c0.94,0,1.3,0.18,1.3,0.78c0,0.68-0.68,1.26-2.6,1.26C99.13,63.21,98.6,62.78,98.6,62.18z"/>
	<path d="M138.04,52.6c0-1.96-1.18-2.72-2.87-2.72c-1.53,0-2.58,0.53-3.62,1.34h-0.13v-1.17l-0.33-0.15l-4.54,0.47v1.92l1.24,0.33
		v6.33l-1.18,0.29v1.88h5.84v-1.88l-0.87-0.23v-6c0.43-0.14,0.85-0.26,1.38-0.26c0.87,0,1.28,0.28,1.28,1.17v5.09l-0.87,0.23v1.88
		h5.75v-1.88l-1.09-0.29V52.6z"/>
	<path d="M154.09,59.14c-0.51,0.29-1.21,0.51-2.1,0.51c-2.96,0-4.15-1.84-4.15-5.94c0-3.42,1.24-5.45,3.98-5.45
		c0.89,0,1.67,0.25,2.15,0.46l0.79,2.2h1.52l-0.12-3.78c-0.89-0.31-2.38-0.58-4.14-0.58c-3.65,0-7.2,1.89-7.2,7.55
		c0,5.2,2.85,7.25,6.84,7.25c2.15,0,3.57-0.32,4.6-0.77l0.15-3.82h-1.55L154.09,59.14z"/>
	<path d="M158.61,47.44c0,0.8,0.68,1.4,1.5,1.4c0.85,0,1.53-0.6,1.53-1.4c0-0.83-0.68-1.43-1.53-1.43
		C159.29,46.01,158.61,46.61,158.61,47.44z"/>
	<polygon points="161.52,50.33 161.25,50.18 157.39,50.67 157.39,51.89 158.9,52.22 158.9,59.65 157.51,59.98 157.51,61.11 
		162.9,61.11 162.9,59.98 161.52,59.65 	"/>
	<path d="M167.29,58.1v-6.13h1.8v-1.61h-1.8v-2.52h-1.99l-0.37,2.52l-1.61,0.52v1.09h1.38v6.6c0,2.06,1.03,2.74,2.99,2.74
		c1.01,0,1.88-0.31,2.35-0.61v-1.22c-0.37,0.08-0.78,0.14-1.19,0.14C167.68,59.63,167.29,59.2,167.29,58.1z"/>
	<path d="M193.46,59.14c-0.51,0.29-1.21,0.51-2.1,0.51c-2.95,0-4.14-1.84-4.14-5.94c0-3.43,1.23-5.45,3.98-5.45
		c0.89,0,1.67,0.25,2.15,0.46l0.78,2.2h1.53l-0.12-3.78c-0.89-0.31-2.37-0.58-4.14-0.58c-3.65,0-7.2,1.9-7.2,7.55
		c0,5.2,2.85,7.24,6.85,7.24c2.14,0,3.57-0.31,4.6-0.76l0.15-3.82h-1.55L193.46,59.14z"/>
	<path d="M202.16,50.16c-2.93,0-5.28,2.16-5.28,5.65c0,3.38,2.02,5.57,5.32,5.57c2.91,0,5.28-2.19,5.28-5.69
		C207.48,52.27,205.42,50.16,202.16,50.16z M202.22,59.82c-1.38,0-2.62-0.99-2.62-4.15c0-3.07,1.17-3.96,2.54-3.96
		c1.36,0,2.6,0.97,2.6,4.15C204.74,58.91,203.56,59.82,202.22,59.82z"/>
	<path d="M218.37,50.35l-0.27-0.15l-3.69,0.37v1.19l1.36,0.34v6.82c-0.54,0.23-1.12,0.5-2.17,0.5c-1.41,0-1.75-0.6-1.75-1.88v-7.2
		l-0.27-0.15l-3.74,0.37v1.19l1.43,0.33v6.15c0,1.92,0.89,3.09,3.07,3.09c1.49,0,2.62-0.53,3.43-1.32h0.12v1.18l0.27,0.13l3.61-0.48
		V59.7l-1.4-0.33V50.35z"/>
	<path d="M231.06,52.95c0-2.04-1.07-2.79-2.93-2.79c-1.36,0-2.54,0.5-3.57,1.18h-0.12v-1.01l-0.27-0.15l-3.65,0.49v1.22l1.42,0.33
		v7.43l-1.4,0.33v1.13h5.28v-1.13l-1.26-0.31v-7.14c0.65-0.21,1.3-0.39,2.04-0.39c1.24,0,1.86,0.37,1.86,1.61v5.92l-1.28,0.31v1.13
		h5.27v-1.13l-1.38-0.33V52.95z"/>
	<path d="M235.62,55.57c0-2.68,1.09-3.86,2.83-3.86c0.72,0,0.97,0.08,1.25,0.17l0.36,1.68h1.59v-2.98
		c-0.75-0.24-1.86-0.41-2.99-0.41c-3.26,0-5.76,1.65-5.76,5.67c0,3.38,1.84,5.53,5.37,5.53c1.73,0,2.87-0.5,3.53-0.97v-1.36
		c-0.51,0.26-1.46,0.51-2.74,0.51C237.06,59.55,235.62,58.58,235.62,55.57z"/>
	<path d="M245.2,48.84c0.85,0,1.53-0.59,1.53-1.4c0-0.82-0.68-1.43-1.53-1.43c-0.82,0-1.5,0.6-1.5,1.43
		C243.7,48.25,244.38,48.84,245.2,48.84z"/>
	<polygon points="246.61,50.33 246.34,50.19 242.48,50.68 242.48,51.9 243.99,52.23 243.99,59.66 242.61,59.99 242.61,61.12 
		247.99,61.13 247.99,59.99 246.61,59.66 	"/>
	<path d="M176.36,51.54l1.21,0.29l-2.08,6.13h-0.08l-2.36-6.15l1.26-0.27v-1.18h-4.87v1.24l0.83,0.22l3.77,9.04l-0.49,1.21
		c-0.45,1.04-1.06,1.4-2.12,1.4c-0.38,0-0.64-0.06-1.09-0.16v1.57c0.37,0.19,1.13,0.37,1.75,0.37c1.85,0,2.72-0.91,3.4-2.72
		l4.05-10.71l1.05-0.29v-1.18h-4.23V51.54z"/>
	<polygon points="252.52,59.66 252.52,45.86 252.25,45.71 248.37,46.18 248.37,47.4 249.92,47.73 249.92,59.66 248.57,59.97 
		248.57,61.13 253.92,61.13 253.92,59.99 	"/>
	<path d="M131.37,32.36l1.06-0.29v-1.18h-4.26v1.18l1.23,0.29l-2.1,6.13h-0.09l-2.36-6.15l1.26-0.27v-1.18h-5.14v1.18l1.07,0.29
		l3.8,9.03l-0.5,1.22c-0.45,1.02-1.05,1.4-2.14,1.4c-0.37,0-0.65-0.07-1.1-0.17v1.57c0.37,0.18,1.14,0.37,1.77,0.37
		c1.87,0,2.74-0.91,3.42-2.72L131.37,32.36z"/>
	<path d="M34.6,40.36l-1.59-0.38l0.96-2.83h4.48l0.91,2.83l-1.54,0.38v1.27l5.97,0v-1.3l-1.33-0.36l-4.4-12.64h-2.55l-4.51,12.64
		l-1.32,0.35v1.3h4.9V40.36z M36.22,30.47h0.1l1.7,5.28h-3.58L36.22,30.47z"/>
	<path d="M45.31,41.04c0.93,0.43,2.43,0.85,4.26,0.85c3.4,0,5.71-1.9,5.71-6.04c0-4.09-2.09-5.18-4.09-5.18
		c-1.47,0-2.38,0.53-3.15,1.11h-0.12v-5.42l-0.27-0.13l-3.76,0.47v1.24l1.44,0.33V41.04z M47.91,33.04
		c0.43-0.19,1.16-0.44,2.01-0.44c1.66,0,2.61,0.93,2.61,3.65c0,3.18-1.12,4.11-2.78,4.11c-1.04,0-1.45-0.29-1.84-0.54V33.04z"/>
	<path d="M60.69,40.4c-0.83,0-1.48-0.23-1.83-0.42l-0.49-1.61h-1.52l0.18,2.91c1,0.37,2.33,0.62,3.51,0.62
		c3.11,0,4.55-1.51,4.55-3.51c0-1.55-0.77-2.51-2.81-3.09l-1.22-0.35c-1.37-0.39-1.85-0.74-1.85-1.53c0-0.93,0.79-1.26,1.81-1.26
		c0.75,0,1.21,0.14,1.53,0.31l0.4,1.42h1.45v-2.74c-0.79-0.27-1.97-0.48-3.21-0.48c-2.89,0-4.26,1.46-4.26,3.3
		c0,1.72,1,2.6,2.8,3.12l1.16,0.33c1.29,0.39,1.77,0.68,1.77,1.59C62.66,39.94,61.85,40.4,60.69,40.4z"/>
	<path d="M71.96,41.9c2.93,0,5.31-2.19,5.31-5.69c0-3.42-2.07-5.53-5.36-5.53c-2.95,0-5.31,2.17-5.31,5.66
		C66.61,39.71,68.64,41.9,71.96,41.9z M71.9,32.23c1.37,0,2.61,0.97,2.61,4.14c0,3.05-1.18,3.96-2.53,3.96
		c-1.39,0-2.64-0.99-2.64-4.14C69.35,33.11,70.53,32.23,71.9,32.23z"/>
	<polygon points="79.83,40.17 78.39,40.5 78.39,41.64 83.86,41.64 83.86,40.5 82.44,40.17 82.44,26.37 82.17,26.22 78.27,26.7 
		78.27,27.91 79.83,28.25 	"/>
	<path d="M85.73,38.77c0,1.92,0.89,3.1,3.09,3.1c1.49,0,2.64-0.54,3.44-1.32h0.13v1.17l0.27,0.12l3.63-0.48v-1.16l-1.41-0.32v-9.02
		l-0.27-0.14L90.9,31.1v1.2l1.37,0.33v6.83c-0.54,0.23-1.12,0.5-2.18,0.5c-1.41,0-1.77-0.6-1.77-1.88v-7.19l-0.26-0.14l-3.76,0.38
		v1.2l1.43,0.33V38.77z"/>
	<path d="M98.37,39.09c0,2.06,1.03,2.74,3.01,2.75c1.02,0,1.89-0.31,2.37-0.62V40c-0.38,0.08-0.8,0.15-1.21,0.15
		c-1.16,0-1.56-0.43-1.56-1.53V32.5h2.59v-1.62h-2.59v-2.51h-2.01l-0.38,2.51l-1.62,0.52v1.1h1.39V39.09z"/>
	<path d="M109.85,41.89c1.89,0,3.05-0.56,3.78-1.01v-1.32c-0.79,0.24-1.67,0.53-3.16,0.53c-2.03,0-3.24-1.13-3.38-3.63h7.05
		c0-3.81-1.39-5.77-4.61-5.77c-2.95,0-5.14,2.04-5.14,5.51C104.39,39.64,106.11,41.89,109.85,41.89z M109.44,32.21
		c1.27,0,1.97,0.78,1.97,2.81l-4.32,0.14C107.23,33.04,108.08,32.21,109.44,32.21z"/>
	<polygon points="116.7,40.17 115.27,40.5 115.27,41.64 120.72,41.64 120.72,40.5 119.32,40.17 119.32,26.38 119.05,26.23 
		115.15,26.7 115.15,27.92 116.7,28.25 	"/>
	<path d="M143.16,34.26c-0.47,0-0.89-0.04-0.91-0.04v1.29c0.02,0,0.83,0.13,1.45,0.13c2.61,0,4.68-1.26,4.68-4.29
		c0-2.51-1.46-4.04-5.5-4.04H137v1.28l1.5,0.37v10.99l-1.5,0.37v1.28h6.16v-1.28l-1.81-0.37V28.98h1.69c1.69,0,2.45,0.75,2.45,2.58
		C145.48,33.31,144.68,34.26,143.16,34.26z"/>
	<path d="M154.08,41.88c2.91,0,5.29-2.19,5.29-5.69c0-3.43-2.06-5.53-5.32-5.53c-2.93,0-5.28,2.17-5.28,5.65
		C148.77,39.68,150.79,41.88,154.08,41.88z M154.03,32.2c1.36,0,2.6,0.97,2.6,4.15c0,3.05-1.18,3.95-2.52,3.95
		c-1.38,0-2.62-0.99-2.62-4.14C151.49,33.09,152.67,32.2,154.03,32.2z"/>
	<path d="M164.53,40.37c-0.82,0-1.46-0.23-1.82-0.41l-0.49-1.61h-1.51l0.19,2.91c0.99,0.37,2.31,0.62,3.48,0.62
		c3.1,0,4.52-1.51,4.52-3.51c0-1.54-0.77-2.52-2.79-3.1l-1.22-0.35c-1.36-0.39-1.83-0.74-1.83-1.53c0-0.93,0.79-1.26,1.79-1.26
		c0.75,0,1.2,0.14,1.53,0.31l0.4,1.43l1.44,0v-2.75c-0.78-0.27-1.96-0.47-3.2-0.47c-2.86,0-4.22,1.46-4.22,3.3
		c0,1.71,0.99,2.6,2.78,3.11l1.15,0.33c1.28,0.39,1.75,0.68,1.75,1.59C166.48,39.92,165.68,40.37,164.53,40.37z"/>
	<polygon points="171.68,40.14 170.3,40.47 170.3,41.61 175.68,41.61 175.68,40.47 174.3,40.14 174.3,30.82 174.03,30.67 
		170.17,31.17 170.17,32.38 171.68,32.72 	"/>
	<path d="M172.9,29.33c0.85,0,1.53-0.6,1.53-1.4c0-0.82-0.68-1.42-1.53-1.42c-0.82,0-1.5,0.6-1.5,1.42
		C171.39,28.73,172.07,29.33,172.9,29.33z"/>
	<path d="M180.17,38.6v-6.13h2.58v-1.61h-2.58v-2.52h-2l-0.37,2.52l-1.61,0.52v1.09h1.38v6.6c0,2.06,1.03,2.74,3,2.74
		c1.01,0,1.87-0.31,2.35-0.62v-1.22c-0.37,0.09-0.78,0.15-1.2,0.15C180.57,40.12,180.17,39.69,180.17,38.6z"/>
	<polygon points="184.07,40.47 184.07,41.61 189.45,41.61 189.45,40.47 188.07,40.15 188.07,30.82 187.8,30.68 183.95,31.17 
		183.95,32.39 185.46,32.72 185.46,40.14 	"/>
	<path d="M186.67,29.33c0.84,0,1.53-0.6,1.53-1.4c0-0.83-0.68-1.43-1.53-1.43c-0.82,0-1.5,0.6-1.5,1.43
		C185.17,28.74,185.85,29.33,186.67,29.33z"/>
	<polygon points="200.61,32.04 200.61,30.86 196.57,30.86 196.57,32.04 197.74,32.27 195.44,38.91 195.35,38.91 193.06,32.27 
		194.24,32.04 194.24,30.86 189.23,30.86 189.23,32.04 190.27,32.32 193.79,41.61 196.07,41.61 199.56,32.32 	"/>
	<path d="M205.7,41.85c1.88,0,3.04-0.56,3.75-1.01v-1.33c-0.78,0.26-1.65,0.54-3.13,0.54c-2.02,0-3.22-1.13-3.36-3.63h7.02
		c0-3.82-1.38-5.78-4.58-5.78c-2.93,0-5.11,2.04-5.11,5.51C200.28,39.61,201.99,41.85,205.7,41.85z M205.29,32.18
		c1.25,0,1.96,0.78,1.96,2.81l-4.29,0.14C203.11,33.01,203.95,32.18,205.29,32.18z"/>
	<polygon points="211.72,40.15 210.3,40.47 210.3,41.61 215.73,41.61 215.73,40.47 214.32,40.15 214.32,26.35 214.06,26.2 
		210.17,26.67 210.17,27.89 211.72,28.22 	"/>
	<path d="M220.66,41.36l-0.5,1.22c-0.45,1.04-1.05,1.4-2.12,1.4c-0.37,0-0.64-0.06-1.09-0.16v1.88c0.37,0.19,1.13,0.06,1.75,0.06
		c1.85,0,2.72-0.91,3.4-2.72l4.04-10.71l1.05-0.29v-1.17h-4.23v1.17l1.22,0.29l-2.08,6.13h-0.08l-2.35-6.15l1.26-0.27v-1.17h-5.11
		v1.17l1.07,0.29L220.66,41.36z"/>
</g>
</svg>
