<?xml version="1.0" encoding="utf-8"?>
<svg version="1.1" id="Layer_1" xmlns="http://www.w3.org/2000/svg" x="0px" y="0px"
     viewBox="0 0 32 32" style="enable-background:new 0 0 32 32;" xml:space="preserve">
<style type="text/css">
	.st6{opacity:5.000000e-02;fill:#7656D8;}
	.st46{fill:none;stroke:#7656D8;stroke-width:1.2;stroke-linecap:round;stroke-linejoin:round;stroke-miterlimit:10;}
</style>
<path class="st6" d="M27.7,8.4v15.1c0,2.3-1.9,4.1-4.1,4.1H8.4c-2.3,0-4.1-1.9-4.1-4.1V8.4c0-2.3,1.9-4.1,4.1-4.1h15.1
	C25.8,4.3,27.7,6.2,27.7,8.4z"/>
<path class="st46" d="M27.7,8.4v15.1c0,2.3-1.9,4.1-4.1,4.1H8.4c-2.3,0-4.1-1.9-4.1-4.1V8.4c0-2.3,1.9-4.1,4.1-4.1h15.1
	C25.8,4.3,27.7,6.2,27.7,8.4z"/>
<circle class="st46" cx="13.8" cy="19.7" r="2.7"/>
<path class="st46" d="M21.6,12.3c-2.1,0.7-4.4-0.5-5.1-2.7"/>
<line class="st46" x1="16.5" y1="19.7" x2="16.5" y2="9.6"/>
</svg>
