<?xml version="1.0" encoding="utf-8"?>
<!-- Generator: Adobe Illustrator 25.4.1, SVG Export Plug-In . SVG Version: 6.00 Build 0)  -->
<svg version="1.1"
	 id="svg45" inkscape:version="1.0.1 (3bc2e813f5, 2020-09-07)" sodipodi:docname="simsage-logo-no-strapline.svg" xmlns:cc="http://creativecommons.org/ns#" xmlns:dc="http://purl.org/dc/elements/1.1/" xmlns:inkscape="http://www.inkscape.org/namespaces/inkscape" xmlns:rdf="http://www.w3.org/1999/02/22-rdf-syntax-ns#" xmlns:sodipodi="http://sodipodi.sourceforge.net/DTD/sodipodi-0.dtd" xmlns:svg="http://www.w3.org/2000/svg"
	 xmlns="http://www.w3.org/2000/svg" xmlns:xlink="http://www.w3.org/1999/xlink" x="0px" y="0px" viewBox="0 0 1444.6 423.4"
	 style="enable-background:new 0 0 1444.6 423.4;" xml:space="preserve">
<style type="text/css">
	.st0{fill:#202731;}
	.st1{fill:none;stroke:#E06A6A;stroke-width:20;stroke-linecap:round;stroke-miterlimit:10;}
	.st2{fill:none;stroke:#202731;stroke-width:20;stroke-linecap:round;stroke-linejoin:round;stroke-miterlimit:10;}
	.st3{fill:none;stroke:#75C114;stroke-width:20;stroke-linecap:round;stroke-miterlimit:10;}
	.st4{fill:none;stroke:#75C114;stroke-width:10;stroke-linecap:round;stroke-miterlimit:10;}
	.st5{fill:none;stroke:#202731;stroke-width:10;stroke-linecap:round;stroke-linejoin:round;stroke-miterlimit:10;}
	.st6{fill:none;stroke:#E06A6A;stroke-width:10;stroke-linecap:round;stroke-miterlimit:10;}
	.st7{fill:none;stroke:#5FB5BF;stroke-width:20;stroke-linecap:round;stroke-miterlimit:10;}
	.st8{fill:none;stroke:#5FB5BF;stroke-width:10;stroke-linecap:round;stroke-miterlimit:10;}
</style>
<g>
	<g>
		<path class="st0" d="M129.7,265.2H85.2v37.5h52.6v23.7H56.7V185h81v23.8H85.2v33.4h44.5V265.2z"/>
		<path class="st0" d="M178,221.3l0.8,10.4c6.2-8.2,14.3-12.3,24.4-12.3c18.1,0,27.3,12.7,27.9,38v69h-27.6v-67c0-6-0.9-10.3-2.7-13
			c-1.8-2.7-4.9-4-9.4-4c-5,0-8.9,2.6-11.7,7.7v76.3h-27.6v-105H178z"/>
		<path class="st0" d="M282.7,195.5v25.8h14.1v20.6h-14.1v52.2c0,4.1,0.6,7,1.7,8.6c1.1,1.6,3.3,2.3,6.6,2.3c2.7,0,4.8-0.2,6.5-0.7
			l-0.2,21.4c-4.7,1.7-9.7,2.6-15.1,2.6c-17.7,0-26.7-10.2-26.9-30.5v-55.9h-12.1v-20.6h12.1v-25.8H282.7z"/>
		<path class="st0" d="M354.3,328.3c-14.1,0-25.1-4.2-33-12.6c-7.9-8.4-11.8-20.5-11.8-36.1v-8.3c0-16.6,3.6-29.4,10.9-38.3
			c7.2-9,17.6-13.5,31.2-13.5c13.2,0,23.1,4.2,29.8,12.7c6.7,8.4,10.1,20.9,10.2,37.5V283h-54.7c0.4,7.8,2.1,13.5,5.1,17.1
			c3,3.6,7.7,5.4,14.1,5.4c9.2,0,16.9-3.1,23-9.4l10.8,16.6c-3.4,4.7-8.3,8.4-14.7,11.3C368.7,326.9,361.8,328.3,354.3,328.3z
			 M337,263.8h27.5v-2.5c-0.1-6.3-1.2-11-3.1-14.3c-1.9-3.2-5.3-4.9-10.1-4.9c-4.8,0-8.3,1.7-10.4,5.1
			C338.6,250.8,337.4,256.3,337,263.8z"/>
		<path class="st0" d="M458.8,247.8l-9.1-0.8c-7.5,0-12.6,3.3-15.2,9.9v69.4h-27.6v-105h25.9l0.8,11.4c4.3-8.9,10.3-13.3,18-13.3
			c3.1,0,5.6,0.4,7.6,1.3L458.8,247.8z"/>
		<path class="st0" d="M554.7,277.1c0,16.5-2.8,29.2-8.5,38c-5.7,8.8-14.1,13.2-25.3,13.2c-8.5,0-15.4-3.5-20.6-10.4v48.8h-27.5
			V221.3h25.4l1,9.6c5.2-7.7,12.4-11.6,21.5-11.6c11.2,0,19.6,4.1,25.3,12.2c5.7,8.2,8.6,20.6,8.7,37.5V277.1z M527.4,270.2
			c0-10.2-1.1-17.3-3.3-21.6c-2.2-4.2-6-6.3-11.3-6.3c-5.6,0-9.7,2.4-12.3,7.1v49.2c2.5,4.5,6.6,6.8,12.5,6.8
			c5.4,0,9.2-2.3,11.3-6.9s3.2-11.7,3.2-21.5V270.2z"/>
		<path class="st0" d="M623.2,247.8l-9.1-0.8c-7.5,0-12.6,3.3-15.2,9.9v69.4h-27.6v-105h25.9l0.8,11.4c4.3-8.9,10.3-13.3,18-13.3
			c3.1,0,5.6,0.4,7.6,1.3L623.2,247.8z"/>
		<path class="st0" d="M666.1,326.4h-27.6v-105h27.6V326.4z"/>
		<path class="st0" d="M733.9,298.2c0-2.3-1.1-4.5-3.3-6.5c-2.2-2-7.2-4.6-14.9-8c-11.3-4.6-19.1-9.4-23.3-14.3
			c-4.2-4.9-6.4-11-6.4-18.3c0-9.2,3.3-16.8,10-22.8c6.6-6,15.4-9,26.4-9c11.5,0,20.7,3,27.7,8.9c6.9,6,10.4,13.9,10.4,24h-27.5
			c0-8.5-3.6-12.8-10.7-12.8c-2.9,0-5.3,0.9-7.2,2.7c-1.9,1.8-2.8,4.3-2.8,7.6c0,2.3,1,4.4,3.1,6.2c2.1,1.8,7,4.3,14.7,7.6
			c11.2,4.1,19.1,8.8,23.7,13.8c4.6,5.1,6.9,11.7,6.9,19.8c0,9.4-3.5,16.9-10.6,22.6c-7.1,5.7-16.3,8.5-27.8,8.5
			c-7.7,0-14.5-1.5-20.4-4.5c-5.9-3-10.5-7.2-13.8-12.6c-3.3-5.4-5-11.2-5-17.4h26.1c0.1,4.8,1.2,8.4,3.3,10.8
			c2.1,2.4,5.5,3.6,10.3,3.6C730.2,308.2,733.9,304.9,733.9,298.2z"/>
		<path class="st0" d="M820.1,328.3c-14.1,0-25.1-4.2-33-12.6c-7.9-8.4-11.8-20.5-11.8-36.1v-8.3c0-16.6,3.6-29.4,10.9-38.3
			c7.2-9,17.6-13.5,31.2-13.5c13.2,0,23.1,4.2,29.8,12.7c6.7,8.4,10.1,20.9,10.2,37.5V283h-54.7c0.4,7.8,2.1,13.5,5.1,17.1
			c3,3.6,7.7,5.4,14.1,5.4c9.2,0,16.9-3.1,23-9.4l10.8,16.6c-3.4,4.7-8.3,8.4-14.7,11.3C834.5,326.9,827.6,328.3,820.1,328.3z
			 M802.8,263.8h27.5v-2.5c-0.1-6.3-1.2-11-3.1-14.3c-1.9-3.2-5.3-4.9-10.1-4.9c-4.8,0-8.3,1.7-10.4,5.1
			C804.5,250.8,803.2,256.3,802.8,263.8z"/>
		<path class="st0" d="M939.8,290.6c0-7.1-1.9-12.5-5.7-16.2c-3.8-3.8-10.7-7.4-20.7-11c-10-3.6-17.6-7.3-22.9-11.2
			c-5.3-3.9-9.2-8.4-11.8-13.4c-2.6-5-3.9-10.8-3.9-17.2c0-11.2,3.7-20.4,11.2-27.7c7.5-7.2,17.3-10.9,29.4-10.9
			c8.3,0,15.7,1.8,22.1,5.5c6.5,3.7,11.5,8.8,15,15.4s5.2,13.8,5.2,21.7h-17.9c0-8.7-2.1-15.5-6.3-20.3c-4.2-4.8-10.3-7.2-18.2-7.2
			c-7.2,0-12.8,2-16.7,6c-3.9,4-5.9,9.7-5.9,16.9c0,6,2.1,11,6.4,15s10.9,7.6,19.8,10.8c13.9,4.6,23.9,10.3,29.9,17
			c6,6.7,9,15.5,9,26.4c0,11.5-3.7,20.6-11.2,27.5c-7.4,6.9-17.6,10.3-30.4,10.3c-8.2,0-15.8-1.8-22.8-5.4
			c-7-3.6-12.4-8.6-16.4-15.1s-6-14-6-22.4h17.9c0,8.7,2.4,15.5,7.3,20.4c4.9,4.9,11.5,7.3,20,7.3c7.8,0,13.7-2,17.7-6
			C937.8,303,939.8,297.6,939.8,290.6z"/>
		<path class="st0" d="M1016.2,328.3c-13.1,0-23.1-3.9-30.1-11.7c-7-7.8-10.6-19.2-10.7-34.3v-12.7c0-15.7,3.4-27.9,10.2-36.8
			c6.8-8.9,16.4-13.3,28.6-13.3c12.3,0,21.5,3.9,27.6,11.7c6.1,7.8,9.2,20,9.3,36.6V279h-58.6v2.4c0,11.3,2.1,19.5,6.4,24.6
			c4.2,5.1,10.3,7.7,18.3,7.7c5,0,9.5-1,13.3-2.9c3.9-1.9,7.5-4.9,10.8-9.1l8.9,10.9C1042.8,323.1,1031.5,328.3,1016.2,328.3z
			 M1014.2,234.1c-7.1,0-12.4,2.4-15.8,7.3c-3.4,4.9-5.4,12.5-5.8,22.8h41.4v-2.3c-0.5-10-2.2-17.1-5.4-21.4
			C1025.4,236.3,1020.6,234.1,1014.2,234.1z"/>
		<path class="st0" d="M1125.8,326.4c-1-2.3-1.8-6.1-2.2-11.5c-6.1,8.9-13.9,13.4-23.3,13.4c-9.5,0-16.9-2.7-22.3-8s-8-12.9-8-22.6
			c0-10.7,3.6-19.2,10.9-25.4c7.2-6.3,17.2-9.5,29.8-9.6h12.6v-11.2c0-6.3-1.4-10.7-4.2-13.4c-2.8-2.7-7-4-12.7-4
			c-5.2,0-9.4,1.5-12.6,4.6c-3.2,3.1-4.9,7-4.9,11.7h-17.2c0-5.4,1.6-10.5,4.8-15.4c3.2-4.9,7.4-8.7,12.8-11.5
			c5.4-2.8,11.4-4.2,18-4.2c10.7,0,18.9,2.7,24.5,8c5.6,5.3,8.5,13.1,8.6,23.3v53c0.1,8.1,1.2,15.1,3.3,21.1v1.6H1125.8z
			 M1102.9,312.7c4.2,0,8.2-1.2,12-3.5c3.8-2.3,6.6-5.2,8.3-8.7v-25h-9.7c-8.2,0.1-14.6,2-19.3,5.5c-4.7,3.5-7.1,8.5-7.1,14.8
			c0,6,1.2,10.3,3.6,13C1093.1,311.3,1097.2,312.7,1102.9,312.7z"/>
		<path class="st0" d="M1210.4,237.4c-2.4-0.5-5-0.7-7.8-0.7c-8.8,0-15,4.8-18.4,14.5v75.1H1167v-105h16.7l0.3,10.7
			c4.6-8.4,11.1-12.6,19.5-12.6c2.7,0,5,0.5,6.8,1.4L1210.4,237.4z"/>
		<path class="st0" d="M1262.1,313.6c5.7,0,10.3-1.8,13.7-5.3c3.4-3.5,5.3-8.6,5.6-15.1h16.2c-0.4,10.1-4,18.5-10.7,25.1
			c-6.8,6.6-15,10-24.8,10c-13,0-22.9-4.1-29.8-12.3c-6.8-8.2-10.2-20.4-10.2-36.6v-11.6c0-15.9,3.4-27.9,10.2-36.2
			c6.8-8.3,16.7-12.4,29.7-12.4c10.7,0,19.3,3.4,25.6,10.2c6.3,6.8,9.7,16.1,10,27.9h-16.2c-0.4-7.8-2.2-13.6-5.6-17.5
			c-3.3-3.9-7.9-5.8-13.8-5.8c-7.6,0-13.3,2.5-17,7.5c-3.7,5-5.6,13.3-5.7,24.7v13.4c0,12.4,1.8,21.1,5.5,26.2
			C1248.4,311.1,1254.2,313.6,1262.1,313.6z"/>
		<path class="st0" d="M1334.6,232.1c6.5-8.5,14.9-12.7,25-12.7c18.6,0,28,12.4,28.3,37.2v69.8h-17.1v-69c0-8.2-1.4-14.1-4.1-17.5
			c-2.8-3.5-6.9-5.2-12.4-5.2c-4.3,0-8.1,1.4-11.5,4.3c-3.4,2.8-6.1,6.6-8.2,11.2v76.3h-17.2V177.2h17.2V232.1z"/>
	</g>
	<g>
		<path class="st7" d="M582.2,190c-21.9-21.2-35.8-44.3-35.8-44.3s47.4-79,105.8-79s105.8,79,105.8,79s-13.8,23.1-35.8,44.3"/>
		<path class="st2" d="M616.4,134.7c-2.8,9.2-2.1,19.5,2.7,28.6c9.7,18.3,32.5,25.3,50.8,15.5c18.3-9.7,25.3-32.5,15.5-50.8
			c-9.7-18.3-32.5-25.3-50.8-15.5"/>
	</g>
</g>
</svg>
