<?xml version="1.0" encoding="utf-8"?>
<!-- Generator: Adobe Illustrator 25.4.1, SVG Export Plug-In . SVG Version: 6.00 Build 0)  -->
<svg version="1.1"
	 id="svg45" inkscape:version="1.0.1 (3bc2e813f5, 2020-09-07)" sodipodi:docname="simsage-logo-no-strapline.svg" xmlns:cc="http://creativecommons.org/ns#" xmlns:dc="http://purl.org/dc/elements/1.1/" xmlns:inkscape="http://www.inkscape.org/namespaces/inkscape" xmlns:rdf="http://www.w3.org/1999/02/22-rdf-syntax-ns#" xmlns:sodipodi="http://sodipodi.sourceforge.net/DTD/sodipodi-0.dtd" xmlns:svg="http://www.w3.org/2000/svg"
	 xmlns="http://www.w3.org/2000/svg" xmlns:xlink="http://www.w3.org/1999/xlink" x="0px" y="0px" viewBox="0 0 792.7 424.7"
	 style="enable-background:new 0 0 792.7 424.7;" xml:space="preserve">
<style type="text/css">
	.st0{fill:#202731;}
	.st1{fill:none;stroke:#E06A6A;stroke-width:20;stroke-linecap:round;stroke-miterlimit:10;}
	.st2{fill:none;stroke:#202731;stroke-width:20;stroke-linecap:round;stroke-linejoin:round;stroke-miterlimit:10;}
	.st3{fill:none;stroke:#75C114;stroke-width:20;stroke-linecap:round;stroke-miterlimit:10;}
	.st4{fill:none;stroke:#75C114;stroke-width:10;stroke-linecap:round;stroke-miterlimit:10;}
	.st5{fill:none;stroke:#202731;stroke-width:10;stroke-linecap:round;stroke-linejoin:round;stroke-miterlimit:10;}
	.st6{fill:none;stroke:#E06A6A;stroke-width:10;stroke-linecap:round;stroke-miterlimit:10;}
	.st7{fill:none;stroke:#5FB5BF;stroke-width:20;stroke-linecap:round;stroke-miterlimit:10;}
	.st8{fill:none;stroke:#5FB5BF;stroke-width:10;stroke-linecap:round;stroke-miterlimit:10;}
</style>
<g>
	<g>
		<path class="st0" d="M120.6,289.5c0-5.8-1.5-10.1-4.4-13.1c-2.9-2.9-8.3-6-16.1-9.2c-14.2-5.4-24.4-11.7-30.6-18.9
			c-6.2-7.2-9.3-15.7-9.3-25.6c0-11.9,4.2-21.5,12.7-28.7c8.4-7.2,19.2-10.8,32.2-10.8c8.7,0,16.4,1.8,23.2,5.5
			c6.8,3.7,12,8.8,15.7,15.5c3.7,6.7,5.5,14.2,5.5,22.7H121c0-6.6-1.4-11.6-4.2-15.1c-2.8-3.5-6.9-5.2-12.2-5.2
			c-5,0-8.9,1.5-11.7,4.4c-2.8,2.9-4.2,6.9-4.2,11.9c0,3.9,1.6,7.4,4.7,10.5c3.1,3.1,8.6,6.4,16.5,9.8c13.8,5,23.8,11.1,30,18.3
			c6.2,7.2,9.4,16.5,9.4,27.7c0,12.3-3.9,21.9-11.7,28.8c-7.8,6.9-18.5,10.4-31.9,10.4c-9.1,0-17.4-1.9-25-5.6s-13.4-9.1-17.6-16.1
			c-4.2-7-6.4-15.2-6.4-24.8h28.6c0,8.2,1.6,14.1,4.8,17.8c3.2,3.7,8.3,5.5,15.5,5.5C115.6,305.3,120.6,300.1,120.6,289.5z"/>
		<path class="st0" d="M195.7,326.6h-27.6v-105h27.6V326.6z"/>
		<path class="st0" d="M242.8,221.6l0.8,9.7c6.1-7.8,14.3-11.7,24.4-11.7c10.5,0,17.9,4.7,22.2,14.2c6-9.4,14.6-14.2,25.7-14.2
			c18.4,0,27.8,12.7,28.3,38.2v68.8h-27.5v-67.1c0-6.1-0.8-10.4-2.5-13c-1.7-2.6-4.5-3.9-8.5-3.9c-5.1,0-8.9,3.1-11.5,9.4l0.2,3.3
			v71.3h-27.5v-66.9c0-6-0.8-10.4-2.4-13.1c-1.6-2.7-4.5-4-8.6-4c-4.7,0-8.5,2.6-11.3,7.7v76.3h-27.5v-105H242.8z"/>
		<path class="st0" d="M431.4,290.9c0-7.1-1.9-12.5-5.7-16.2c-3.8-3.8-10.7-7.4-20.7-11c-10-3.6-17.6-7.3-22.9-11.2
			c-5.3-3.9-9.2-8.4-11.8-13.4c-2.6-5-3.9-10.8-3.9-17.2c0-11.2,3.7-20.4,11.2-27.7c7.5-7.2,17.3-10.9,29.4-10.9
			c8.3,0,15.7,1.8,22.1,5.5c6.5,3.7,11.5,8.8,15,15.4s5.2,13.8,5.2,21.7h-17.9c0-8.7-2.1-15.5-6.3-20.3c-4.2-4.8-10.3-7.2-18.2-7.2
			c-7.2,0-12.8,2-16.7,6c-3.9,4-5.9,9.7-5.9,16.9c0,6,2.1,11,6.4,15c4.3,4,10.9,7.6,19.8,10.8c13.9,4.6,23.9,10.3,29.9,17
			c6,6.7,9,15.5,9,26.4c0,11.5-3.7,20.6-11.2,27.5c-7.4,6.9-17.6,10.3-30.4,10.3c-8.2,0-15.8-1.8-22.8-5.4
			c-7-3.6-12.4-8.6-16.4-15.1s-6-14-6-22.4h17.9c0,8.7,2.4,15.5,7.3,20.4c4.9,4.9,11.5,7.3,20,7.3c7.8,0,13.7-2,17.7-6
			C429.5,303.3,431.4,297.8,431.4,290.9z"/>
		<path class="st0" d="M524.4,326.6c-1-2.3-1.8-6.1-2.2-11.5c-6.1,8.9-13.9,13.4-23.3,13.4c-9.5,0-16.9-2.7-22.3-8s-8-12.9-8-22.6
			c0-10.7,3.6-19.2,10.9-25.4c7.2-6.3,17.2-9.5,29.8-9.6h12.6v-11.2c0-6.3-1.4-10.7-4.2-13.4c-2.8-2.7-7-4-12.7-4
			c-5.2,0-9.4,1.5-12.6,4.6c-3.2,3.1-4.9,7-4.9,11.7h-17.2c0-5.4,1.6-10.5,4.8-15.4c3.2-4.9,7.4-8.7,12.8-11.5
			c5.4-2.8,11.4-4.2,18-4.2c10.7,0,18.9,2.7,24.5,8c5.6,5.3,8.5,13.1,8.6,23.3v53c0.1,8.1,1.2,15.1,3.3,21.1v1.6H524.4z
			 M501.4,312.9c4.2,0,8.2-1.2,12-3.5c3.8-2.3,6.6-5.2,8.3-8.7v-25h-9.7c-8.2,0.1-14.6,2-19.3,5.5c-4.7,3.5-7.1,8.5-7.1,14.8
			c0,6,1.2,10.3,3.6,13C491.7,311.6,495.7,312.9,501.4,312.9z"/>
		<path class="st0" d="M562.1,269.3c0-16.4,3-28.8,8.9-37.1c6-8.4,14.7-12.6,26.1-12.6c10.7,0,18.8,4.6,24.4,13.7l0.9-11.7h15.5v106
			c0,13-3.3,23-10,30c-6.7,7-16,10.4-27.9,10.4c-5.2,0-11-1.3-17.4-3.8c-6.4-2.6-11.3-5.7-14.5-9.5l7-11.8c7.1,7,15,10.5,23.6,10.5
			c14.3,0,21.6-7.8,22-23.4v-13.7c-5.6,8.2-13.5,12.3-23.7,12.3c-10.9,0-19.4-4.1-25.4-12.3c-6.1-8.2-9.3-20-9.5-35.3V269.3z
			 M579.3,279.1c0,11.8,1.7,20.4,5.2,25.9c3.5,5.5,9.1,8.3,17,8.3c8.5,0,15-4.4,19.2-13.1v-52.5c-4.5-8.6-10.8-12.9-19-12.9
			c-7.9,0-13.6,2.8-17.1,8.3c-3.5,5.5-5.3,14-5.3,25.5V279.1z"/>
		<path class="st0" d="M701,328.5c-13.1,0-23.1-3.9-30.1-11.7c-7-7.8-10.6-19.2-10.7-34.3v-12.7c0-15.7,3.4-27.9,10.2-36.8
			c6.8-8.9,16.4-13.3,28.6-13.3c12.3,0,21.5,3.9,27.6,11.7c6.1,7.8,9.2,20,9.3,36.6v11.3h-58.6v2.4c0,11.3,2.1,19.5,6.4,24.6
			c4.2,5.1,10.3,7.7,18.3,7.7c5,0,9.5-1,13.3-2.9c3.9-1.9,7.5-4.9,10.8-9.1l8.9,10.9C727.7,323.3,716.3,328.5,701,328.5z
			 M699.1,234.4c-7.1,0-12.4,2.4-15.8,7.3c-3.4,4.9-5.4,12.5-5.8,22.8h41.4v-2.3c-0.5-10-2.2-17.1-5.4-21.4
			C710.3,236.5,705.5,234.4,699.1,234.4z"/>
	</g>
	<g>
		<path class="st1" d="M76.1,145.7c0,0,47.4-79,105.8-79s105.8,79,105.8,79s-11.1,18.5-29.1,37.6"/>
		<path class="st2" d="M146,134.7c-2.8,9.2-2.1,19.5,2.7,28.6c9.7,18.3,32.5,25.3,50.8,15.5s25.3-32.5,15.5-50.8
			c-9.7-18.3-32.5-25.3-50.8-15.5"/>
	</g>
</g>
</svg>
