<svg width="40" height="40" viewBox="0 0 40 40" fill="none" xmlns="http://www.w3.org/2000/svg">
<path d="M19.675 2.10238C16.2378 2.12152 12.8774 3.12059 9.98801 4.98237C7.09863 6.84414 4.80019 9.49138 3.36237 12.6135H11.7064V13.5349C9.14688 13.2277 9.36871 14.5587 9.72704 15.975L15.2044 29.6257L19.2314 20.1896L17.3885 15.7702C16.723 14.5928 16.706 13.2789 13.9758 13.3984V12.5623H26.2103V13.5178C24.777 13.5178 23.0536 13.1595 23.975 16.0944L28.9234 29.0967L31.6365 21.5035C32.272 18.3911 31.9201 15.1579 30.6298 12.2551C30.0496 10.2416 30.3226 8.56942 32.9333 7.90395C31.2342 6.07397 29.1819 4.60733 26.9002 3.5926C24.6185 2.57787 22.1548 2.03609 19.658 2L19.675 2.10238ZM36.3119 14.0468L28.3774 34.7277C30.5786 32.8336 32.8139 32.134 35.5781 26.8785C37.1782 22.7875 37.4351 18.2935 36.3119 14.0468V14.0468ZM2.45801 14.5246C1.69016 20.6333 1.75841 22.4249 3.66952 27.4075C5.24648 30.6481 7.80901 33.3062 10.9897 35.0007L2.45801 14.5246ZM19.9139 22.2714L14.027 36.4681C17.6899 37.6373 21.6402 37.535 25.2377 36.1781L19.9139 22.2714V22.2714Z" fill="#202731" fill-opacity="0.5"/>
</svg>
