<svg width="40" height="40" viewBox="0 0 40 40" fill="none" xmlns="http://www.w3.org/2000/svg">
<path d="M27.7912 2C26.3523 2.01065 24.9218 2.21356 23.5396 2.60304L23.4437 2.63341C22.5741 2.48682 21.6944 2.40446 20.812 2.38702C18.9933 2.35665 17.4323 2.78417 16.1743 3.49972C14.9337 3.08457 12.3622 2.35665 9.65192 2.50403C7.76839 2.60304 5.70795 3.15995 4.17707 4.73054C2.66007 6.29552 1.85417 8.72117 2.02182 12.0266C2.06923 12.9346 2.33517 14.4163 2.78032 16.3435C3.2197 18.2663 3.84061 20.5164 4.61761 22.573C5.39461 24.624 6.24214 26.4691 7.56836 27.7225C8.22973 28.3491 9.14548 28.8835 10.2231 28.8374C10.977 28.807 11.6569 28.4853 12.2477 28.0105C12.5356 28.3795 12.8443 28.537 13.1207 28.6844C13.4768 28.8723 13.8133 29.0005 14.1694 29.0838C14.8076 29.2413 15.898 29.4472 17.1745 29.2357C17.6393 29.1543 18.0924 29.0187 18.5238 28.8318L18.5782 30.3023C18.6441 31.8549 18.688 33.2904 19.1621 34.5505C19.2407 34.7564 19.4523 35.8106 20.2825 36.7478C21.1196 37.685 22.7441 38.2655 24.6057 37.8785C25.9134 37.6085 27.5807 37.1168 28.6896 35.5822C29.7857 34.0701 30.2794 31.8965 30.3765 28.3683C30.3997 28.1747 30.4309 28.0172 30.4598 27.8642L30.7188 27.8879H30.75C32.1468 27.9464 33.6649 27.7528 34.9356 27.1779C36.0549 26.6739 36.9047 26.1642 37.5245 25.2563C37.676 25.0324 37.8494 24.7579 37.8933 24.2888C37.9407 23.8264 37.6632 23.0928 37.2054 22.7542C36.2908 22.0746 35.7126 22.3323 35.0917 22.4616C34.4836 22.5891 33.8647 22.6614 33.2429 22.6777C35.0247 19.7604 36.3012 16.6552 37.0308 13.9111C37.4644 12.2876 37.706 10.7935 37.7234 9.48734C37.7476 8.18113 37.6343 7.02681 36.8319 6.0255C34.3147 2.90231 30.7789 2.03375 28.0455 2.00563H27.7923L27.7912 2ZM27.7183 2.96193C30.3025 2.93831 33.6071 3.64148 35.9797 6.59366C36.5162 7.25633 36.6735 8.22276 36.655 9.41871C36.6365 10.6147 36.4087 12.0379 35.9925 13.6028C35.1923 16.6394 33.6672 20.1654 31.5305 23.3369C31.604 23.3909 31.685 23.4344 31.771 23.4663C32.2161 23.6475 33.2336 23.7994 35.2686 23.3955C35.7809 23.2886 36.1555 23.2199 36.5463 23.5068C36.6412 23.5847 36.716 23.683 36.765 23.7939C36.814 23.9048 36.8357 24.0253 36.8284 24.1459C36.8074 24.3286 36.7367 24.5025 36.6238 24.6499C36.2318 25.2226 35.4571 25.7693 34.4627 26.2205C33.584 26.6177 32.3179 26.8235 31.2056 26.8359C30.6402 26.8415 30.1222 26.7999 29.6805 26.6649L29.6574 26.6604C29.4874 28.2479 29.0977 31.3891 28.8434 32.8179C28.6399 33.9711 28.2837 34.8925 27.6039 35.5777C26.9228 36.2696 25.9655 36.6791 24.6705 36.9492C23.069 37.2833 21.9059 36.9255 21.1543 36.3101C20.4027 35.6947 20.0582 34.8745 19.8535 34.3761C19.7101 34.0307 19.6373 33.5852 19.5656 32.9867C19.4869 32.2721 19.4345 31.5549 19.4084 30.8367C19.361 29.5766 19.3425 28.3165 19.361 27.0508C18.6929 27.6468 17.8629 28.0436 16.9698 28.1939C15.9049 28.3694 14.9591 28.1939 14.3937 28.0589C14.1148 27.9896 13.8456 27.8872 13.5924 27.754C13.3276 27.619 13.0802 27.4671 12.9125 27.1611C12.8159 26.9858 12.786 26.783 12.8281 26.5884C12.8781 26.3907 12.995 26.2152 13.16 26.09C13.4664 25.8481 13.8711 25.7153 14.4781 25.5916C15.587 25.3677 15.9778 25.2169 16.2125 25.0336C16.4114 24.8817 16.6415 24.5655 17.0369 24.102C17.0369 24.0851 17.0369 24.0615 17.0311 24.0435C16.3146 24.0223 15.6132 23.8377 14.9834 23.5046C14.7556 23.7386 13.5681 24.9582 12.1298 26.6458C11.5274 27.3478 10.859 27.7528 10.1491 27.7832C9.44495 27.8113 8.80439 27.4671 8.26326 26.9563C7.17986 25.9302 6.31151 24.1661 5.55879 22.1736C4.80607 20.1811 4.19789 17.9614 3.75851 16.0746C3.32492 14.1811 3.06592 12.6578 3.02892 11.9254C2.86704 8.80217 3.61976 6.69942 4.90782 5.36846C6.19589 4.0375 7.96148 3.54022 9.68429 3.44121C12.7738 3.27133 15.7118 4.31989 16.3027 4.54266C17.4462 3.78661 18.9216 3.31858 20.7646 3.34671C21.6381 3.35921 22.5071 3.46944 23.3546 3.67523L23.3859 3.65723C23.7587 3.53157 24.1386 3.42639 24.5236 3.34221C25.5701 3.10325 26.6401 2.97537 27.7149 2.96081L27.7183 2.96193ZM27.953 3.96325H27.7253C26.8465 3.97337 25.9597 4.07463 25.0994 4.25576C27.02 5.08269 28.471 6.35289 29.4943 7.63097C30.2054 8.50965 30.7893 9.47609 31.2345 10.5078C31.4102 10.9072 31.5247 11.2402 31.5848 11.4978C31.6207 11.6272 31.6392 11.7375 31.6507 11.8489C31.6507 11.9074 31.6565 11.967 31.6265 12.066C31.6265 12.0716 31.6207 12.084 31.6207 12.0896C31.6704 13.4026 31.3328 14.2914 31.2888 15.5458C31.2599 16.4549 31.5004 17.5215 31.5605 18.687C31.6149 19.7817 31.4773 20.9833 30.7477 22.1669C30.8078 22.2378 30.8622 22.3075 30.9223 22.384C32.8555 19.4183 34.2523 16.1433 34.9935 13.3475C35.3912 11.841 35.6005 10.4763 35.619 9.39958C35.6375 8.32064 35.4328 7.53534 35.1669 7.20795C33.0949 4.63491 30.2956 3.97787 27.9519 3.96212L27.953 3.96325ZM20.5635 4.34915C18.7458 4.35477 17.4381 4.88918 16.446 5.69135C15.4205 6.52391 14.7348 7.6546 14.2896 8.82017C13.7531 10.1973 13.567 11.5327 13.4941 12.4418L13.5184 12.4294C14.1604 12.0796 14.8497 11.8194 15.5661 11.6565C16.3374 11.4798 17.1745 11.427 17.926 11.715C18.6857 11.9951 19.3055 12.669 19.5344 13.6827C20.6201 18.57 19.1979 20.387 18.6741 21.7574C18.4753 22.2558 18.3007 22.7598 18.1619 23.2751C18.2278 23.2627 18.2949 23.2447 18.3608 23.2391C18.7343 23.2109 19.0222 23.3279 19.1921 23.3977C19.7229 23.6137 20.0836 24.0592 20.2825 24.5689C20.3313 24.708 20.3673 24.8511 20.39 24.9964C20.4099 25.0572 20.4205 25.1205 20.4212 25.1843C20.3605 27.0531 20.3663 28.9233 20.4386 30.7917C20.4756 31.6006 20.5299 32.3094 20.5958 32.8719C20.6617 33.4288 20.7519 33.8563 20.8132 34.0026C21.0109 34.483 21.3 35.1097 21.8249 35.5372C22.3429 35.9659 23.0887 36.2471 24.4565 35.9659C25.6417 35.7138 26.3713 35.3729 26.8581 34.8813C27.3472 34.3829 27.6351 33.6977 27.8212 32.6492C28.1045 31.0729 28.6641 26.5018 28.7312 25.6467C28.7023 24.9953 28.7971 24.498 29.0145 24.1166C29.2307 23.7296 29.5683 23.49 29.8643 23.3606C30.0077 23.2964 30.1465 23.2559 30.2609 23.2199C30.1398 23.0555 30.0153 22.8935 29.8875 22.7339C29.4654 22.2357 29.1185 21.6814 28.8572 21.0879C28.7371 20.8391 28.6043 20.5961 28.4595 20.36C28.256 20.0034 27.997 19.5511 27.7253 19.0414C27.183 18.0334 26.5933 16.8037 26.2857 15.6077C25.9793 14.4118 25.9377 13.1764 26.7205 12.309C27.4131 11.535 28.6352 11.2143 30.4586 11.3955C30.4043 11.2368 30.3754 11.1018 30.284 10.8971C29.8693 9.94923 29.3286 9.05845 28.6757 8.24751C27.1275 6.32027 24.6161 4.40877 20.745 4.34465L20.5635 4.34915ZM10.3272 4.42565C10.1324 4.42545 9.93764 4.43145 9.74326 4.44365C8.18348 4.53253 6.71389 4.97018 5.65939 6.05475C4.60604 7.14494 3.91461 8.9203 4.06376 11.868C4.09498 12.4305 4.34126 13.9887 4.76792 15.8462C5.19689 17.7048 5.80392 19.8909 6.53351 21.8237C7.26079 23.751 8.14186 25.433 8.98476 26.2295C9.40564 26.6222 9.77217 26.7864 10.104 26.7752C10.4359 26.7572 10.8394 26.5693 11.3331 25.9955C12.2291 24.9436 13.1592 23.9196 14.122 22.9252C13.4391 22.3468 12.9169 21.6105 12.6033 20.7841C12.2897 19.9578 12.1948 19.0679 12.3275 18.1965C12.4836 17.0894 12.5079 16.051 12.4836 15.2308C12.4662 14.4343 12.4107 13.9077 12.4107 13.5736V13.5376L12.4049 13.5275C12.4049 11.7982 12.7195 10.0881 13.3207 8.46465C13.7543 7.34408 14.3937 6.21451 15.3557 5.29308C14.411 4.98819 12.7299 4.53253 10.9122 4.44365C10.7178 4.43149 10.5231 4.42549 10.3283 4.42565H10.3272ZM29.44 12.3473C28.3936 12.3653 27.8085 12.6297 27.4963 12.9683C27.0616 13.4555 27.02 14.3105 27.2917 15.3658C27.5611 16.42 28.123 17.598 28.6468 18.5779C28.9058 19.0696 29.159 19.5095 29.3625 19.8661C29.5741 20.2295 29.7244 20.4815 29.8146 20.7043C29.899 20.9034 29.9961 21.0789 30.0921 21.2432C30.4956 20.4106 30.5685 19.5961 30.5257 18.741C30.4714 17.6868 30.2193 16.6079 30.2609 15.5188C30.3037 14.2408 30.5627 13.4082 30.5812 12.4238C30.2036 12.3752 29.8232 12.3496 29.4423 12.3473H29.44ZM16.7467 12.525C16.4275 12.525 16.1084 12.5655 15.7951 12.6364C15.1741 12.7817 14.5762 13.0085 14.0179 13.3103C13.83 13.4093 13.651 13.5233 13.4826 13.6512L13.4456 13.6793C13.4583 13.9032 13.4999 14.4298 13.5184 15.2151C13.5369 16.0701 13.5184 17.1592 13.3508 18.3383C12.9773 20.9045 14.892 23.0264 17.1386 23.0321C17.2716 22.5044 17.4867 21.97 17.704 21.4086C18.3296 19.7671 19.5587 18.5723 18.5227 13.8965C18.355 13.1348 18.0174 12.8243 17.5526 12.6488C17.2939 12.5602 17.0208 12.5186 16.7467 12.5262V12.525ZM28.9532 12.8288H29.0318C29.1278 12.8344 29.2249 12.8412 29.3082 12.8637C29.3833 12.878 29.4551 12.9058 29.5198 12.9458C29.5498 12.9633 29.5756 12.987 29.5954 13.0152C29.6151 13.0433 29.6284 13.0753 29.6342 13.1089V13.1213C29.6339 13.1933 29.6153 13.264 29.5799 13.3272C29.5344 13.408 29.478 13.4826 29.4122 13.5488C29.2568 13.718 29.046 13.8297 28.8156 13.865C28.5927 13.8928 28.3672 13.8386 28.1831 13.7131C28.1103 13.6617 28.0436 13.6024 27.9843 13.5365C27.9322 13.4832 27.8983 13.4156 27.8871 13.343C27.8804 13.2736 27.902 13.2045 27.9473 13.1506C28.0008 13.0973 28.0619 13.0519 28.1288 13.0156C28.278 12.9334 28.4768 12.8749 28.7069 12.8445C28.7902 12.8344 28.8746 12.8277 28.9532 12.822V12.8288ZM16.8958 13.0808C16.9745 13.0808 17.0658 13.0864 17.1502 13.0977C17.3907 13.1337 17.5954 13.1922 17.7572 13.2856C17.8366 13.3232 17.9065 13.3774 17.9619 13.4442C18.0219 13.5147 18.0521 13.6048 18.0463 13.6962C18.0298 13.7829 17.9899 13.8636 17.9307 13.9302C17.8672 14.0054 17.7924 14.0706 17.7087 14.1238C17.5083 14.2638 17.2607 14.3245 17.0161 14.2936C16.7682 14.2549 16.5412 14.1355 16.372 13.955C16.301 13.8807 16.24 13.7979 16.1905 13.7086C16.1365 13.629 16.1132 13.5333 16.1246 13.4386C16.1489 13.2811 16.2876 13.1922 16.4206 13.1461C16.5721 13.0977 16.734 13.0819 16.8958 13.0876V13.0808ZM30.8622 24.0964H30.8564C30.6344 24.1785 30.4482 24.2089 30.291 24.2798C30.1318 24.3382 30.001 24.4526 29.9245 24.6004C29.8215 24.7714 29.7441 25.0763 29.7672 25.5961C29.8367 25.6448 29.9147 25.681 29.9973 25.703C30.2563 25.7795 30.7015 25.8324 31.1952 25.8256C32.1768 25.8132 33.3874 25.5916 34.0315 25.2979C34.5578 25.0606 35.0465 24.7511 35.4825 24.3788C33.3331 24.8063 32.1236 24.6949 31.3755 24.3968C31.1918 24.3194 31.0195 24.2184 30.8633 24.0964H30.8622ZM18.481 24.237H18.4498C18.3666 24.2426 18.251 24.273 18.0162 24.5194C17.4797 25.1044 17.2936 25.4735 16.8542 25.8144C16.409 26.1597 15.8367 26.342 14.6862 26.5704C14.4408 26.6131 14.2019 26.6857 13.9751 26.7864C14.0168 26.8224 14.0168 26.8348 14.0827 26.8629C14.2526 26.9574 14.4677 27.0339 14.6435 27.0801C15.1372 27.1971 15.9431 27.3377 16.7929 27.1971C17.6358 27.0564 18.5146 26.6627 19.2685 25.6388C19.4014 25.4633 19.4118 25.1989 19.3043 24.9177C19.1968 24.6432 18.9609 24.3968 18.799 24.3326C18.6977 24.2868 18.5903 24.255 18.4799 24.2381L18.481 24.237Z" fill="#202731" fill-opacity="0.5"/>
</svg>
