<svg width="40" height="40" viewBox="0 0 40 40" fill="none" xmlns="http://www.w3.org/2000/svg">
<path d="M34.6725 8.49652V31.6072C34.6777 32.3865 34.4307 33.1465 33.9683 33.7739C33.5238 34.3842 32.8885 34.829 32.1628 35.0377L21.8172 38.0168L21.2394 38.1252H20.8422C20.4747 38.1297 20.1089 38.0748 19.7589 37.9627C19.4166 37.8455 19.0845 37.7006 18.7658 37.5293L11.9951 33.7016C11.7521 33.5689 11.547 33.3762 11.3993 33.1419C11.2549 32.9089 11.1797 32.6397 11.1826 32.3655C11.181 32.1596 11.2218 31.9554 11.3026 31.7659C11.3833 31.5764 11.5023 31.4056 11.6521 31.2642C11.8019 31.133 11.9767 31.0334 12.1659 30.9714C12.3552 30.9093 12.555 30.8861 12.7534 30.9031H21.5283V9.48956L14.9201 11.8367C14.3989 12.0317 13.9483 12.3786 13.6264 12.8324C13.3045 13.2863 13.1262 13.8262 13.1145 14.3825V26.5337C13.1192 27.0176 12.9879 27.4931 12.7354 27.9059C12.4965 28.3257 12.1383 28.665 11.7062 28.8809L8.60073 30.5781C8.33595 30.7089 8.04314 30.7727 7.74794 30.7641C7.45275 30.7554 7.16418 30.6744 6.90755 30.5283C6.65092 30.3822 6.43406 30.1753 6.27597 29.9259C6.11787 29.6764 6.02338 29.392 6.00078 29.0975V11.8909C5.98703 11.2548 6.15623 10.6281 6.48827 10.0854C6.79704 9.51838 7.25219 9.04454 7.8063 8.71319L18.9283 2.39386C19.183 2.24878 19.4564 2.13943 19.7408 2.06886C20.0265 2.01601 20.3175 1.99782 20.6075 2.0147C20.7935 1.9951 20.9811 1.9951 21.1672 2.0147C21.3565 2.0434 21.5436 2.08564 21.7269 2.14108L32.0725 5.06603C32.4532 5.16556 32.8136 5.33051 33.1378 5.55352C33.7705 5.99523 34.2451 6.62798 34.4919 7.35904C34.6145 7.73185 34.6755 8.12215 34.6725 8.51458V8.49652ZM32.2892 31.6072V8.49652C32.2945 8.23902 32.2187 7.98637 32.0725 7.77431C31.8989 7.58266 31.6614 7.46073 31.4045 7.43127L26.3129 6.02296L25.1213 5.62574C24.7241 5.49936 24.3268 5.37297 23.9477 5.28269V34.8933L31.4045 32.7086C31.6629 32.6594 31.8978 32.5261 32.0725 32.3294C32.2187 32.1174 32.2945 31.8647 32.2892 31.6072Z" fill="#202731" fill-opacity="0.5"/>
</svg>
