<svg width="40" height="40" viewBox="0 0 40 40" fill="none" xmlns="http://www.w3.org/2000/svg">
<path fill-rule="evenodd" clip-rule="evenodd" d="M9.56709 8.39212C9.21933 8.38602 8.87222 8.42436 8.53417 8.5062V8.56478H8.59121C8.79163 8.97641 9.14621 9.24312 9.39442 9.5977L9.96792 10.8017L10.0265 10.7447C10.3811 10.495 10.5445 10.0941 10.543 9.48208C10.3996 9.33253 10.378 9.14445 10.2547 8.96562C10.0913 8.7282 9.77367 8.59253 9.56709 8.39212ZM37.3433 37.8333C37.6131 38.0322 37.795 38.3405 38.1465 38.4654V38.4068C37.9615 38.1725 37.9153 37.8487 37.7457 37.6036C37.4975 37.357 37.2462 37.1072 36.9995 36.8575C36.2688 35.8893 35.3438 35.0383 34.3586 34.3322C33.5755 33.7695 31.8164 33.0079 31.4896 32.0952L31.431 32.0367C31.9875 31.975 32.6397 31.773 33.153 31.6358C34.0164 31.4046 34.7872 31.4632 35.6783 31.235C36.0807 31.1178 36.4815 31.0037 36.8839 30.8897V30.6584C36.4337 30.1959 36.113 29.5854 35.6213 29.1676C34.3355 28.073 32.9341 26.9785 31.4896 26.0689C30.6879 25.5617 29.6982 25.2348 28.8487 24.8047C28.5635 24.6613 28.0625 24.5858 27.8744 24.3468C27.4273 23.7764 27.1853 23.0565 26.8415 22.3951C26.1215 21.0076 25.4123 19.4921 24.7756 18.0322C24.3393 17.0378 24.0557 16.0573 23.5115 15.1647C20.906 10.8788 18.1002 8.29345 13.7558 5.75124C12.8308 5.21166 11.7177 4.99737 10.543 4.71833L8.64826 4.60424C8.26284 4.44237 7.86201 3.97216 7.50126 3.74245C6.06134 2.83287 2.36751 0.854908 1.30376 3.4557C0.630048 5.09758 2.30892 6.69937 2.91017 7.53033C3.33105 8.11462 3.87063 8.76828 4.1728 9.42503C4.37013 9.8567 4.40405 10.2884 4.57363 10.7447C4.99142 11.8701 5.35371 13.0911 5.8933 14.1302C6.16771 14.6559 6.46834 15.2094 6.81213 15.6796C7.02488 15.9679 7.38563 16.0958 7.44267 16.5414C7.08809 17.0362 7.06959 17.8055 6.87071 18.4345C5.97346 21.2635 6.31109 24.7785 7.61688 26.8721C8.01617 27.5134 8.95813 28.8917 10.2547 28.3629C11.3893 27.9004 11.1365 26.4697 11.4603 25.2071C11.5327 24.9203 11.4895 24.7091 11.6329 24.518V24.575L12.6658 26.6408C13.4305 27.8726 14.7872 29.1599 15.9373 30.0279C16.5323 30.478 17.001 31.2566 17.7734 31.5202V31.4616H17.7163C17.5653 31.2304 17.3309 31.1332 17.1428 30.9452C16.6654 30.4818 16.2238 29.9829 15.8216 29.4528C14.7764 28.0345 13.8529 26.4805 13.0112 24.8633C12.6088 24.0894 12.2588 23.2384 11.9197 22.4521C11.7886 22.1484 11.7902 21.6905 11.5188 21.5333C11.1473 22.1099 10.6 22.5755 10.3133 23.2553C9.85384 24.3422 9.79371 25.668 9.62413 27.0432C9.52392 27.0787 9.56863 27.054 9.50851 27.1002C8.70992 26.9075 8.42934 26.0843 8.1318 25.3782C7.38101 23.5945 7.24071 20.7193 7.90209 18.6642C8.07321 18.1324 8.84713 16.4581 8.53417 15.9663C8.38309 15.4761 7.8913 15.1939 7.61534 14.8193C7.25451 14.3164 6.9466 13.7776 6.69651 13.2114C6.08292 11.8208 5.79463 10.2575 5.14713 8.84999C4.8388 8.17783 4.31463 7.49795 3.88451 6.89978C3.40967 6.23687 2.87626 5.7497 2.5078 4.94803C2.37676 4.66283 2.19792 4.20803 2.39217 3.91512C2.45384 3.71778 2.54171 3.63453 2.73751 3.57133C3.07051 3.31387 3.99705 3.65612 4.34392 3.79949C5.2643 4.18183 6.03205 4.54566 6.81059 5.06366C7.18521 5.31033 7.56446 5.79133 8.01617 5.92391H8.53263C9.34201 6.10891 10.247 5.98095 11.0008 6.21066C12.3344 6.61612 13.5292 7.24666 14.616 7.9327C17.9245 10.0217 20.6285 12.994 22.4785 16.5414C22.7761 17.1118 22.9056 17.6575 23.1677 18.2634C23.6965 19.4844 24.3625 20.7409 24.8882 21.9357C25.4123 23.1274 25.9257 24.3299 26.6673 25.3212C27.0573 25.8422 28.565 26.1228 29.2511 26.4127C29.7305 26.6146 30.5168 26.8274 30.9716 27.1002C31.8411 27.6244 32.6828 28.2488 33.4968 28.8223C33.9038 29.1106 35.1572 29.7396 35.2189 30.256C33.1993 30.2036 31.6576 30.3902 30.341 30.9467C29.9664 31.104 29.3698 31.1086 29.3081 31.5772C29.5132 31.7931 29.5455 32.1168 29.709 32.3805C30.0235 32.8892 30.5553 33.5722 31.0286 33.9298C31.5482 34.3214 32.0816 34.7392 32.6366 35.0784C33.6233 35.6796 34.7271 36.025 35.6768 36.6277C36.2395 36.9839 36.796 37.431 37.3418 37.8333H37.3433Z" fill="#202731" fill-opacity="0.5"/>
</svg>
