<svg width="40" height="40" viewBox="0 0 40 40" fill="none" xmlns="http://www.w3.org/2000/svg">
<path d="M32.42 16.4C33.4733 16.4667 34.4667 16.7267 35.4 17.18C36.32 17.6067 37.12 18.2 37.8 18.96C38.48 19.6933 39.02 20.5333 39.42 21.48C39.8067 22.4267 40 23.4333 40 24.5C40 25.62 39.7867 26.6733 39.36 27.66C38.9333 28.6467 38.3467 29.5067 37.6 30.24C36.8667 30.9733 36 31.5533 35 31.98C34.04 32.42 33 32.64 31.88 32.64H10C8.62667 32.64 7.33333 32.3667 6.12 31.82C4.90667 31.3 3.84667 30.5933 2.94 29.7C2.03333 28.7933 1.32 27.7333 0.8 26.52C0.266667 25.3067 0 24.0133 0 22.64C0 21.5467 0.173333 20.4933 0.52 19.48C0.84 18.48 1.33333 17.56 2 16.72C2.58667 15.88 3.30667 15.1467 4.16 14.52C5.01333 13.8933 5.96 13.4133 7 13.08C7.49333 12.9067 7.96667 12.82 8.42 12.82C8.88667 12.7267 9.36667 12.6667 9.86 12.64H9.88C10.4533 11.76 11.1267 10.9733 11.9 10.28C12.6333 9.58667 13.4667 8.99333 14.4 8.5C15.2933 8.04667 16.24 7.67333 17.24 7.38C18.24 7.12667 19.2667 7 20.32 7C21.7333 7 23.0933 7.23333 24.4 7.7C25.7067 8.16667 26.9067 8.81333 28 9.64C29.0667 10.4667 29.98 11.4533 30.74 12.6C31.5133 13.76 32.0733 15.0267 32.42 16.4V16.4ZM20.32 9.5C18.84 9.5 17.44 9.80667 16.12 10.42C14.7867 11.02 13.6533 11.8867 12.72 13.02C13.2133 13.1533 13.6867 13.32 14.14 13.52C14.58 13.72 15.02 13.9533 15.46 14.22L23.42 18.98L28 17.06C28.28 16.94 28.5733 16.8267 28.88 16.72C29.1867 16.6267 29.5067 16.5467 29.84 16.48C29.52 15.44 29.0467 14.4933 28.42 13.64C27.7933 12.7867 27.06 12.0533 26.22 11.44C25.4067 10.8267 24.4867 10.3533 23.46 10.02C22.4867 9.67333 21.44 9.5 20.32 9.5ZM4 27.14L20.54 20.18L14.16 16.34C13.5067 15.9533 12.8267 15.6533 12.12 15.44C11.3733 15.24 10.6333 15.14 9.9 15.14C8.88667 15.14 7.92 15.34 7 15.74C6.12 16.14 5.34667 16.68 4.68 17.36C4.01333 18.0533 3.48 18.8533 3.08 19.76C2.69333 20.6667 2.5 21.6267 2.5 22.64C2.5 23.4267 2.63333 24.2133 2.9 25C3.15333 25.8 3.52 26.5133 4 27.14ZM31.88 30.14C32.5067 30.14 33.1067 30.0333 33.68 29.82C34.2533 29.6333 34.7867 29.3533 35.28 28.98L23.22 21.82L6.06 29C6.64667 29.36 7.27333 29.6333 7.94 29.82C8.60667 30.0333 9.29333 30.14 10 30.14H31.88ZM36.9 27.04C37.3 26.2267 37.5 25.38 37.5 24.5C37.5 23.6467 37.3333 22.8667 37 22.16C36.68 21.4667 36.2467 20.8733 35.7 20.38C35.14 19.8867 34.4933 19.5067 33.76 19.24C33.0133 18.96 32.2267 18.82 31.4 18.82C30.9333 18.82 30.4667 18.8867 30 19.02C29.5467 19.1267 29.1 19.2667 28.66 19.44C28.22 19.6 27.78 19.78 27.34 19.98C26.9133 20.18 26.4933 20.3733 26.08 20.56L36.9 27.04Z" fill="#202731" fill-opacity="0.5"/>
</svg>
