<svg width="40" height="40" viewBox="0 0 40 40" fill="none" xmlns="http://www.w3.org/2000/svg">
<path d="M38 22.25C38 23.492 37.7625 24.658 37.2875 25.748C36.8135 26.838 36.169 27.79 35.354 28.604C34.54 29.419 33.588 30.064 32.498 30.539C31.408 31.013 30.242 31.25 29 31.25C28.238 31.25 27.4765 31.15 26.7155 30.95C26.6095 31.947 26.331 32.876 25.88 33.737C25.429 34.599 24.852 35.346 24.149 35.978C23.445 36.611 22.642 37.106 21.74 37.463C20.838 37.821 19.883 38 18.875 38C17.785 38 16.7625 37.792 15.8075 37.376C14.8525 36.96 14.0205 36.3975 13.3115 35.6885C12.6025 34.9795 12.04 34.1475 11.624 33.1925C11.208 32.2375 11 31.215 11 30.125C11 29.937 11.009 29.7495 11.027 29.5625C11.044 29.3745 11.064 29.187 11.087 29H3.4955C3.0855 29 2.734 28.8535 2.441 28.5605C2.148 28.2675 2.001 27.916 2 27.506V12.494C2 12.084 2.1465 11.7325 2.4395 11.4395C2.7325 11.1465 3.084 11 3.494 11H8.804C8.944 9.723 9.307 8.5365 9.893 7.4405C10.479 6.3445 11.223 5.3925 12.125 4.5845C13.027 3.7755 14.0555 3.1425 15.2105 2.6855C16.3635 2.2285 17.585 2 18.875 2C20.27 2 21.5825 2.2665 22.8125 2.7995C24.0425 3.3325 25.115 4.056 26.03 4.97C26.944 5.885 27.6675 6.9575 28.2005 8.1875C28.7335 9.4175 29 10.73 29 12.125C29 12.313 28.994 12.5005 28.982 12.6875C28.971 12.8755 28.9535 13.063 28.9295 13.25C30.1715 13.25 31.3435 13.4845 32.4455 13.9535C33.5465 14.4215 34.5105 15.06 35.3375 15.869C36.1635 16.678 36.8135 17.63 37.2875 18.725C37.7625 19.821 38 20.996 38 22.25ZM18.875 4.25C17.902 4.25 16.9735 4.42 16.0895 4.76C15.2045 5.1 14.416 5.5715 13.724 6.1745C13.033 6.7785 12.456 7.4935 11.993 8.3195C11.531 9.1455 11.23 10.039 11.09 11H18.5075C18.9175 11 19.269 11.1465 19.562 11.4395C19.855 11.7325 20.0015 12.084 20.0015 12.494V19.9115L20.3165 19.859C20.5285 19.109 20.8335 18.397 21.2315 17.723C21.6305 17.05 22.1025 16.441 22.6475 15.896C23.1925 15.351 23.799 14.879 24.467 14.48C25.135 14.082 25.85 13.777 26.612 13.565C26.705 13.062 26.7515 12.582 26.7515 12.125C26.7515 11.035 26.5435 10.0125 26.1275 9.0575C25.7115 8.1025 25.149 7.2705 24.44 6.5615C23.731 5.8525 22.899 5.29 21.944 4.874C20.988 4.458 19.965 4.25 18.875 4.25ZM11.1755 25.853C11.7155 25.853 12.2455 25.7975 12.7655 25.6865C13.2875 25.5755 13.7535 25.3905 14.1635 25.1315C14.5735 24.8745 14.9045 24.535 15.1565 24.113C15.4085 23.691 15.5345 23.1635 15.5345 22.5305C15.5345 21.8985 15.403 21.3715 15.14 20.9495C14.876 20.5275 14.545 20.176 14.147 19.895C13.748 19.613 13.32 19.3815 12.863 19.2005L11.5805 18.6905C11.1815 18.5325 10.8505 18.3655 10.5875 18.1895C10.3235 18.0135 10.1915 17.791 10.1915 17.522C10.1915 17.322 10.2615 17.1605 10.4015 17.0375C10.5425 16.9145 10.71 16.818 10.904 16.748C11.097 16.678 11.299 16.631 11.51 16.607C11.72 16.584 11.8955 16.5725 12.0365 16.5725C12.6345 16.5725 13.162 16.6485 13.619 16.8005C14.076 16.9535 14.551 17.182 15.044 17.486V14.8145C14.762 14.7325 14.501 14.6625 14.261 14.6045C14.021 14.5445 13.7835 14.4945 13.5485 14.4545C13.3145 14.4135 13.0715 14.384 12.8195 14.366C12.5675 14.349 12.289 14.3405 11.984 14.3405C11.469 14.3405 10.942 14.399 10.403 14.516C9.863 14.633 9.3735 14.8205 8.9345 15.0785C8.4945 15.3365 8.137 15.6765 7.862 16.0985C7.587 16.5195 7.4495 17.0345 7.4495 17.6435C7.4495 18.2415 7.581 18.74 7.844 19.139C8.108 19.537 8.4395 19.877 8.8385 20.159C9.2365 20.439 9.664 20.676 10.121 20.87L11.405 21.4145C11.803 21.5845 12.134 21.7635 12.398 21.9515C12.661 22.1385 12.7925 22.367 12.7925 22.637C12.7925 22.859 12.731 23.0345 12.608 23.1635C12.485 23.2935 12.33 23.3935 12.143 23.4635C11.955 23.5335 11.7585 23.577 11.5535 23.594C11.3485 23.612 11.164 23.621 11 23.621C10.297 23.621 9.673 23.504 9.128 23.27C8.583 23.035 8.0295 22.7245 7.4675 22.3385V25.151C8.6625 25.619 9.8985 25.853 11.1755 25.853V25.853ZM18.875 35.75C19.648 35.75 20.3745 35.6035 21.0545 35.3105C21.7345 35.0175 22.3295 34.616 22.8395 34.106C23.3495 33.596 23.7535 32.9985 24.0515 32.3135C24.3505 31.6275 24.5 30.898 24.5 30.125C24.5 29.457 24.3885 28.8185 24.1655 28.2095C23.9435 27.5995 23.6335 27.0515 23.2355 26.5655C22.8355 26.0795 22.3605 25.6665 21.8105 25.3265C21.2605 24.9865 20.657 24.7465 20 24.6065V27.506C20 27.916 19.8535 28.2675 19.5605 28.5605C19.2675 28.8535 18.916 29 18.506 29H13.355C13.285 29.375 13.25 29.75 13.25 30.125C13.25 30.898 13.3965 31.6275 13.6895 32.3135C13.9825 32.9995 14.384 33.597 14.894 34.106C15.404 34.616 16.0015 35.0175 16.6865 35.3105C17.3725 35.6035 18.102 35.75 18.875 35.75V35.75ZM29 29C29.926 29 30.799 28.824 31.619 28.472C32.439 28.121 33.157 27.638 33.773 27.023C34.388 26.407 34.871 25.692 35.222 24.878C35.574 24.063 35.75 23.187 35.75 22.25C35.75 21.324 35.574 20.451 35.222 19.631C34.871 18.811 34.388 18.093 33.773 17.477C33.157 16.862 32.439 16.379 31.619 16.028C30.799 15.676 29.926 15.5 29 15.5C28.074 15.5 27.204 15.6785 26.39 16.0355C25.575 16.3935 24.86 16.88 24.245 17.495C23.63 18.11 23.1435 18.825 22.7855 19.64C22.4285 20.454 22.25 21.324 22.25 22.25C22.25 22.379 22.253 22.508 22.259 22.637C22.265 22.766 22.2735 22.895 22.2845 23.024C22.8355 23.294 23.3455 23.619 23.8145 23.999C24.2835 24.379 24.7025 24.8065 25.0715 25.2815C25.4405 25.7565 25.754 26.2695 26.012 26.8205C26.27 27.3705 26.4635 27.9445 26.5925 28.5425C27.3775 28.8475 28.18 29 29 29Z" fill="#202731" fill-opacity="0.5"/>
</svg>
