<svg width="40" height="40" viewBox="0 0 40 40" fill="none" xmlns="http://www.w3.org/2000/svg">
<path d="M36.8712 8.78667C37.1775 8.78667 37.44 8.89896 37.6646 9.12208C37.8892 9.34521 38 9.61062 38 9.91687V30.2373C38 30.5435 37.8877 30.809 37.6646 31.0321C37.4415 31.2552 37.176 31.3675 36.8712 31.3675H23.3219V37.1527L3 33.6075V6.65312L23.3219 3V8.78521H36.8698L36.8712 8.78667ZM15.5606 24.3281L12.0854 24.0802V21.4362H15.5417V18.5779H12.0854V15.8071H15.5606V12.9692L9.6325 13.4285V26.6235L15.5592 27.1879V24.3296L15.5606 24.3281ZM36.8712 9.91687H23.3219V11.0456H24.0102C24.1269 11.0456 24.2246 11.069 24.3019 11.1156C24.5542 11.2775 24.6023 11.3665 24.9187 11.645C25.2848 11.9775 25.7558 12.4354 26.0912 12.7825C26.256 12.9531 26.3392 13.0567 26.3392 13.0917C26.3173 13.1933 26.2751 13.2896 26.2152 13.3746C26.04 13.6693 25.8451 13.9519 25.6319 14.2204C25.5385 14.3371 25.4802 14.3969 25.4569 14.3969C25.3985 14.3969 25.311 14.3415 25.2002 14.2292C24.9669 14.0031 24.7219 13.6794 24.4594 13.4708C24.3237 13.36 24.2042 13.3031 24.0977 13.3031H23.3219V18.225L25.7208 20.5715V20.7654L25.5444 20.9594C25.4773 21.0002 25.4277 21.0469 25.3504 21.0469C25.2271 21.0121 25.1085 20.9621 24.9975 20.8981C24.4958 20.6502 23.7696 20.1923 23.3204 19.9196V26.851C23.4152 26.851 23.5129 26.8423 23.6121 26.8248C23.7112 26.8073 23.7973 26.7694 23.8688 26.711C24.1414 26.4855 24.4005 26.2439 24.6446 25.9877C25.1623 25.4292 27.7654 22.7779 28.3313 22.1946C28.3852 22.1742 28.4902 22.1727 28.5252 22.1946C28.5835 22.2412 28.6462 22.2952 28.7104 22.3535C28.7411 22.3796 28.7657 22.412 28.7826 22.4485C28.7994 22.485 28.8082 22.5248 28.8081 22.565C28.8081 22.5883 28.776 22.6671 28.7104 22.8027C28.1101 23.9559 27.4227 25.0616 26.6542 26.1102C26.1379 26.816 25.591 27.5102 25.015 28.1927C24.859 28.3721 24.6796 28.6083 24.4856 28.7746C24.3806 28.8694 24.2683 28.9481 24.1502 29.0123C24.0321 29.0765 23.9212 29.11 23.8148 29.11H23.3219V30.2387H36.8698V9.91687H36.8712ZM25.8273 17.7831C25.785 17.7175 25.7383 17.6665 25.7398 17.5892C25.7398 17.5658 25.7733 17.49 25.8448 17.3602C26.0242 17.035 26.2823 16.5115 26.4617 16.214C26.8962 15.4731 27.3731 14.7498 27.8908 14.044C28.4085 13.3381 28.9437 12.6556 29.495 11.9979C29.686 11.804 29.8435 11.5837 30.0871 11.3533C30.2927 11.1492 30.5071 11.0456 30.7302 11.0456H35.1606C35.2384 11.0402 35.3165 11.0516 35.3895 11.0789C35.4626 11.1062 35.5289 11.1489 35.5841 11.2041C35.6392 11.2592 35.6819 11.3255 35.7092 11.3986C35.7366 11.4716 35.7479 11.5497 35.7425 11.6275V16.249C35.7454 16.4867 35.636 16.6048 35.4946 16.7783C35.2248 17.0846 34.9462 17.3806 34.6575 17.6679C34.3687 17.9552 34.0887 18.2542 33.819 18.5604C33.6556 18.6333 33.6323 18.5837 33.4135 18.4627C33.1213 18.281 32.839 18.0838 32.5677 17.8721C32.4496 17.7787 32.3912 17.719 32.3912 17.6956C32.3912 17.6373 32.4467 17.5513 32.5575 17.4404C32.7835 17.2071 33.1087 16.9606 33.3158 16.6996C33.4281 16.564 33.4835 16.4429 33.4835 16.3379V13.5496C33.4894 13.4373 33.3494 13.2973 33.2371 13.3031H31.156C30.9956 13.306 30.7944 13.3221 30.6777 13.4446C30.4048 13.6699 30.1457 13.9115 29.9019 14.1679L29.1785 14.9262L26.2152 17.9596H26.0212L25.8273 17.7846V17.7831ZM29.196 19.1073C29.5067 19.2356 29.9835 19.5112 30.3073 19.6892C31.1823 20.1646 31.9377 20.6765 32.7515 21.2685C33.5681 21.8665 34.3367 22.4819 35.1067 23.1381C35.3837 23.3802 35.7235 23.7185 35.7425 24.0992V28.5267C35.7479 28.6047 35.7365 28.6829 35.7091 28.7561C35.6817 28.8294 35.6389 28.8958 35.5836 28.9511C35.5283 29.0064 35.4619 29.0492 35.3886 29.0766C35.3154 29.104 35.2372 29.1154 35.1592 29.11H30.5362C30.2985 29.1129 30.1804 29.0021 30.0069 28.8621C29.3915 28.3254 28.8417 27.7231 28.2262 27.185C28.2055 27.1473 28.1936 27.1054 28.1912 27.0625C28.1912 27.0158 28.235 26.921 28.3225 26.781C28.4902 26.5142 28.7221 26.1729 28.9131 25.9352C29.0079 25.8156 29.0662 25.7573 29.091 25.7573C29.1494 25.7573 29.234 25.8127 29.3462 25.925C29.5796 26.151 29.8246 26.4762 30.0871 26.6833C30.2227 26.7956 30.3423 26.851 30.4487 26.851H33.2371C33.3494 26.8569 33.4894 26.7169 33.485 26.6031V24.5221C33.4842 24.4363 33.4749 24.3508 33.4573 24.2669C33.4424 24.1837 33.4027 24.107 33.3435 24.0467C33.1174 23.774 32.8759 23.5145 32.6202 23.2694L31.8619 22.5475L28.8256 19.5827V19.3887L29.0021 19.1948C29.0692 19.154 29.1187 19.1073 29.196 19.1073Z" fill="#202731" fill-opacity="0.5"/>
</svg>
