<?xml version="1.0" encoding="UTF-8" standalone="no"?>
<svg
   xmlns:dc="http://purl.org/dc/elements/1.1/"
   xmlns:cc="http://creativecommons.org/ns#"
   xmlns:rdf="http://www.w3.org/1999/02/22-rdf-syntax-ns#"
   xmlns:svg="http://www.w3.org/2000/svg"
   xmlns="http://www.w3.org/2000/svg"
   xmlns:sodipodi="http://sodipodi.sourceforge.net/DTD/sodipodi-0.dtd"
   xmlns:inkscape="http://www.inkscape.org/namespaces/inkscape"
   version="1.1"
   x="0px"
   y="0px"
   viewBox="0 0 799.99997 400"
   xml:space="preserve"
   id="svg45"
   sodipodi:docname="simsage-logo-no-strapline.svg"
   width="800"
   height="400"
   inkscape:version="1.0.1 (3bc2e813f5, 2020-09-07)"><metadata
   id="metadata51"><rdf:RDF><cc:Work
       rdf:about=""><dc:format>image/svg+xml</dc:format><dc:type
         rdf:resource="http://purl.org/dc/dcmitype/StillImage" /><dc:title></dc:title></cc:Work></rdf:RDF></metadata><defs
   id="defs49" /><sodipodi:namedview
   pagecolor="#ffffff"
   bordercolor="#666666"
   borderopacity="1"
   objecttolerance="10"
   gridtolerance="10"
   guidetolerance="10"
   inkscape:pageopacity="0"
   inkscape:pageshadow="2"
   inkscape:window-width="2139"
   inkscape:window-height="1083"
   id="namedview47"
   showgrid="false"
   inkscape:zoom="0.81725958"
   inkscape:cx="699.90002"
   inkscape:cy="500.14999"
   inkscape:window-x="0"
   inkscape:window-y="0"
   inkscape:window-maximized="0"
   inkscape:current-layer="svg45" />
<style
   type="text/css"
   id="style2">
	.st0{fill:#202731;}
	.st1{fill:#E06A6A;}
</style>
<g
   id="svg4049"
   inkscape:version="1.0.1 (3bc2e813f5, 2020-09-07)"
   sodipodi:docname="simsage-logo.svg"
   transform="translate(-313.19216,-276.54808)">
	
		<sodipodi:namedview
   bordercolor="#666666"
   borderopacity="1"
   gridtolerance="10"
   guidetolerance="10"
   id="namedview4051"
   inkscape:current-layer="g42"
   inkscape:cx="647.7421"
   inkscape:cy="370.49215"
   inkscape:document-rotation="0"
   inkscape:pageopacity="0"
   inkscape:pageshadow="2"
   inkscape:snap-text-baseline="false"
   inkscape:window-height="1077"
   inkscape:window-maximized="0"
   inkscape:window-width="1343"
   inkscape:window-x="129"
   inkscape:window-y="0"
   inkscape:zoom="0.5"
   objecttolerance="10"
   pagecolor="#ffffff"
   showgrid="false"
   units="mm"
   width="100mm">
		</sodipodi:namedview>
	<g
   id="g33">
		<g
   id="g7">
			<path
   class="st0"
   d="m 418.2,538.9 c 0,-6.3 -1.6,-11.1 -4.8,-14.3 -3.2,-3.2 -9.1,-6.6 -17.6,-10 -15.5,-5.9 -26.7,-12.8 -33.5,-20.7 -6.8,-7.9 -10.2,-17.2 -10.2,-28 0,-13 4.6,-23.5 13.9,-31.4 9.2,-7.9 21,-11.9 35.2,-11.9 9.5,0 18,2 25.4,6 7.4,4 13.2,9.7 17.2,17 4,7.3 6,15.6 6,24.9 h -31.1 c 0,-7.2 -1.5,-12.7 -4.6,-16.5 -3.1,-3.8 -7.5,-5.7 -13.3,-5.7 -5.5,0 -9.7,1.6 -12.8,4.8 -3,3.2 -4.6,7.6 -4.6,13 0,4.3 1.7,8.1 5.1,11.5 3.4,3.4 9.4,7 18.1,10.7 15.1,5.5 26.1,12.2 32.9,20.1 6.8,7.9 10.3,18 10.3,30.3 0,13.5 -4.3,24 -12.9,31.6 -8.6,7.6 -20.2,11.4 -35,11.4 -10,0 -19.1,-2.1 -27.3,-6.2 -8.2,-4.1 -14.7,-10 -19.3,-17.6 -4.6,-7.7 -7,-16.7 -7,-27.1 h 31.4 c 0,8.9 1.7,15.4 5.2,19.5 3.5,4 9.1,6.1 17,6.1 10.8,-0.1 16.3,-5.9 16.3,-17.5 z"
   id="path5" />
		</g>
		<g
   id="g11">
			<path
   class="st0"
   d="m 500.4,579.5 h -30.2 v -115 h 30.2 z"
   id="path9" />
		</g>
		<g
   id="g15">
			<path
   class="st0"
   d="m 552,464.5 0.9,10.6 c 6.7,-8.5 15.6,-12.8 26.7,-12.8 11.5,0 19.6,5.2 24.3,15.5 6.6,-10.3 16,-15.5 28.2,-15.5 20.1,0 30.4,13.9 30.9,41.8 v 75.4 h -30.1 v -73.4 c 0,-6.7 -0.9,-11.4 -2.8,-14.2 -1.8,-2.8 -5,-4.3 -9.4,-4.3 -5.6,0 -9.8,3.4 -12.5,10.3 l 0.2,3.6 v 78 h -30.1 v -73.2 c 0,-6.6 -0.9,-11.4 -2.7,-14.3 -1.8,-2.9 -4.9,-4.4 -9.5,-4.4 -5.2,0 -9.3,2.8 -12.3,8.4 v 83.5 h -30.1 v -115 z"
   id="path13" />
		</g>
		<g
   id="g19">
			<path
   class="st0"
   d="m 758.5,540.4 c 0,-7.7 -2.1,-13.6 -6.3,-17.8 -4.2,-4.1 -11.7,-8.1 -22.6,-12 -10.9,-3.9 -19.3,-8 -25,-12.3 -5.8,-4.3 -10.1,-9.2 -13,-14.7 -2.9,-5.5 -4.3,-11.8 -4.3,-18.9 0,-12.3 4.1,-22.4 12.3,-30.3 8.2,-7.9 18.9,-11.9 32.2,-11.9 9.1,0 17.1,2 24.2,6.1 7.1,4 12.5,9.7 16.4,16.9 3.9,7.2 5.7,15.2 5.7,23.8 h -19.6 c 0,-9.6 -2.3,-17 -6.9,-22.2 -4.6,-5.2 -11.2,-7.9 -19.9,-7.9 -7.9,0 -14,2.2 -18.3,6.6 -4.3,4.4 -6.5,10.6 -6.5,18.5 0,6.5 2.3,12 7,16.4 4.7,4.4 11.9,8.3 21.7,11.8 15.2,5 26.1,11.2 32.7,18.6 6.6,7.4 9.8,17 9.8,28.9 0,12.5 -4.1,22.6 -12.2,30.1 -8.1,7.5 -19.2,11.3 -33.3,11.3 -9,0 -17.3,-2 -24.9,-5.9 -7.6,-3.9 -13.6,-9.5 -18,-16.6 -4.4,-7.1 -6.5,-15.3 -6.5,-24.5 h 19.6 c 0,9.6 2.7,17 8,22.3 5.3,5.3 12.6,8 21.8,8 8.6,0 15,-2.2 19.3,-6.6 4.4,-4.1 6.6,-10.1 6.6,-17.7 z"
   id="path17" />
		</g>
		<g
   id="g23">
			<path
   class="st0"
   d="m 852.4,579.5 c -1.1,-2.5 -1.9,-6.7 -2.4,-12.5 -6.7,9.8 -15.2,14.7 -25.5,14.7 -10.4,0 -18.5,-2.9 -24.4,-8.8 -5.8,-5.8 -8.8,-14.1 -8.8,-24.7 0,-11.7 4,-21 11.9,-27.8 7.9,-6.9 18.8,-10.4 32.6,-10.5 h 13.8 v -12.2 c 0,-6.9 -1.5,-11.8 -4.6,-14.7 -3,-2.9 -7.7,-4.4 -13.9,-4.4 -5.7,0 -10.3,1.7 -13.8,5 -3.5,3.4 -5.3,7.6 -5.3,12.8 h -18.8 c 0,-5.9 1.7,-11.5 5.2,-16.8 3.5,-5.3 8.1,-9.5 14,-12.6 5.9,-3 12.4,-4.6 19.7,-4.6 11.8,0 20.7,2.9 26.8,8.8 6.1,5.8 9.3,14.4 9.4,25.6 v 58 c 0.1,8.9 1.3,16.5 3.6,23.1 v 1.7 h -19.5 z m -25.1,-14.9 c 4.6,0 9,-1.3 13.2,-3.8 4.2,-2.6 7.2,-5.7 9.1,-9.6 V 523.8 H 839 c -8.9,0.1 -16,2.1 -21.2,6 -5.2,3.9 -7.8,9.3 -7.8,16.2 0,6.5 1.3,11.2 3.9,14.2 2.7,2.9 7.1,4.4 13.4,4.4 z"
   id="path21" />
		</g>
		<g
   id="g27">
			<path
   class="st0"
   d="m 885.8,516.8 c 0,-17.9 3.3,-31.5 9.8,-40.7 6.5,-9.2 16,-13.8 28.6,-13.8 11.7,0 20.6,5 26.7,15 l 1,-12.9 h 17 v 116.1 c 0,14.2 -3.6,25.2 -10.9,32.8 -7.3,7.6 -17.5,11.4 -30.5,11.4 -5.7,0 -12,-1.4 -19.1,-4.2 -7.1,-2.8 -12.3,-6.3 -15.9,-10.4 l 7.7,-13 c 7.8,7.7 16.4,11.5 25.8,11.5 15.7,0 23.7,-8.5 24.1,-25.6 v -15 c -6.1,9 -14.7,13.5 -25.9,13.5 -11.9,0 -21.2,-4.5 -27.8,-13.4 -6.7,-9 -10.1,-21.8 -10.4,-38.6 v -12.7 z m 18.8,10.7 c 0,12.9 1.9,22.3 5.7,28.4 3.8,6.1 10,9.1 18.7,9.1 9.4,0 16.4,-4.8 21,-14.3 v -57.4 c -4.9,-9.4 -11.8,-14.1 -20.8,-14.1 -8.6,0 -14.9,3 -18.7,9.1 -3.8,6.1 -5.8,15.3 -5.8,27.9 v 11.3 z"
   id="path25" />
		</g>
		<g
   id="g31">
			<path
   class="st0"
   d="m 1030.1,581.7 c -14.3,0 -25.3,-4.3 -33,-12.8 -7.7,-8.5 -11.6,-21.1 -11.7,-37.6 v -13.9 c 0,-17.1 3.7,-30.6 11.2,-40.3 7.5,-9.7 17.9,-14.6 31.3,-14.6 13.5,0 23.5,4.3 30.2,12.9 6.7,8.6 10.1,21.9 10.2,40.1 v 12.3 h -64.2 v 2.7 c 0,12.3 2.3,21.3 7,26.9 4.6,5.6 11.3,8.4 20,8.4 5.5,0 10.4,-1 14.6,-3.1 4.2,-2.1 8.2,-5.4 11.9,-9.9 l 9.8,11.9 c -8.2,11.2 -20.6,17 -37.3,17 z m -2.2,-103.1 c -7.8,0 -13.6,2.7 -17.3,8 -3.8,5.4 -5.9,13.7 -6.4,24.9 h 45.3 V 509 c -0.5,-10.9 -2.5,-18.7 -5.9,-23.4 -3.4,-4.7 -8.6,-7 -15.7,-7 z"
   id="path29" />
		</g>
	</g>
	<g
   id="g37">
		<path
   class="st0"
   d="m 484.9,446.2 c -25.3,0 -45.9,-20.6 -45.9,-45.9 0,-3.9 0.5,-7.7 1.4,-11.4 1.4,-5.5 7,-8.7 12.4,-7.3 5.5,1.4 8.7,7 7.3,12.4 -0.5,2.1 -0.8,4.2 -0.8,6.4 0,14 11.4,25.5 25.5,25.5 14,0 25.5,-11.4 25.5,-25.5 0,-14 -11.4,-25.5 -25.5,-25.5 -4.3,0 -8.5,1.1 -12.2,3.1 -4.9,2.7 -11.1,0.9 -13.8,-4.1 -2.7,-4.9 -0.9,-11.1 4.1,-13.8 6.7,-3.7 14.3,-5.6 21.9,-5.6 25.3,0 45.9,20.6 45.9,45.9 0.1,25.2 -20.5,45.8 -45.8,45.8 z"
   id="path35" />
	</g>
	<g
   id="g41">
		<path
   class="st1"
   d="m 566.6,442.7 c -2.6,0 -5.1,-1 -7,-2.9 -3.8,-3.9 -3.8,-10.2 0.1,-14 9.6,-9.5 15.9,-21.1 18.5,-26.6 -12.5,-36.2 -51,-61.4 -95.1,-61.6 -0.2,0 -0.4,0 -0.6,0 -43.3,0 -82.4,24.8 -95.2,60.6 -1.8,5.1 -7.5,7.8 -12.7,6 -5.1,-1.8 -7.8,-7.5 -6,-12.7 15.9,-44.4 62,-73.9 114.6,-73.7 54.1,0.3 101.4,32.9 115.1,79.2 l 1,3.3 -1.3,3.2 c -0.3,0.8 -8.4,20.7 -24.3,36.4 -2.1,1.9 -4.6,2.8 -7.1,2.8 z"
   id="path39" />
	</g>
</g>
<g
   id="new_leaf_1"
   transform="translate(-313.19216,-276.54808)">
</g>
</svg>
